<?xml version="1.0" encoding="UTF-8" standalone="no"?>
<!DOCTYPE svg PUBLIC "-//W3C//DTD SVG 1.1//EN"
 "http://www.w3.org/Graphics/SVG/1.1/DTD/svg11.dtd">
<!-- Generated by graphviz version 2.38.0 (20140413.2041)
 -->
<!-- Title: %3 Pages: 1 -->
<svg width="390pt" height="116pt"
 viewBox="0.00 0.00 389.98 116.00" xmlns="http://www.w3.org/2000/svg" xmlns:xlink="http://www.w3.org/1999/xlink">
<g id="graph0" class="graph" transform="scale(1 1) rotate(0) translate(4 112)">
<title>%3</title>
<polygon fill="white" stroke="none" points="-4,4 -4,-112 385.984,-112 385.984,4 -4,4"/>
<!-- A -->
<g id="node1" class="node"><title>A</title>
<ellipse fill="none" stroke="black" cx="190.992" cy="-90" rx="53.8905" ry="18"/>
<text text-anchor="middle" x="190.992" y="-86.3" font-family="Times New Roman,serif" font-size="14.00">King Arthur</text>
</g>
<!-- B -->
<g id="node2" class="node"><title>B</title>
<ellipse fill="none" stroke="black" cx="90.9919" cy="-18" rx="90.9839" ry="18"/>
<text text-anchor="middle" x="90.9919" y="-14.3" font-family="Times New Roman,serif" font-size="14.00">Sir Bedevere the Wise</text>
</g>
<!-- A&#45;&gt;B -->
<g id="edge1" class="edge"><title>A&#45;&gt;B</title>
<path fill="none" stroke="black" d="M168.799,-73.4647C155.331,-64.0371 137.916,-51.8466 122.977,-41.3897"/>
<polygon fill="black" stroke="black" points="124.716,-38.3345 114.516,-35.4672 120.702,-44.0692 124.716,-38.3345"/>
</g>
<!-- L -->
<g id="node3" class="node"><title>L</title>
<ellipse fill="none" stroke="black" cx="290.992" cy="-18" rx="90.9839" ry="18"/>
<text text-anchor="middle" x="290.992" y="-14.3" font-family="Times New Roman,serif" font-size="14.00">Sir Lancelot the Brave</text>
</g>
<!-- A&#45;&gt;L -->
<g id="edge2" class="edge"><title>A&#45;&gt;L</title>
<path fill="none" stroke="black" d="M213.185,-73.4647C226.653,-64.0371 244.068,-51.8466 259.007,-41.3897"/>
<polygon fill="black" stroke="black" points="261.282,-44.0692 267.467,-35.4672 257.268,-38.3345 261.282,-44.0692"/>
</g>
<!-- B&#45;&gt;L -->
<g id="edge3" class="edge"><title>B&#45;&gt;L</title>
<path fill="none" stroke="black" d="M182.008,-18C184.615,-18 187.223,-18 189.83,-18"/>
<polygon fill="black" stroke="black" points="189.888,-21.5001 199.888,-18 189.888,-14.5001 189.888,-21.5001"/>
</g>
</g>
</svg>
