<?xml version="1.0" encoding="UTF-8" standalone="no"?>
<!DOCTYPE svg PUBLIC "-//W3C//DTD SVG 1.1//EN"
 "http://www.w3.org/Graphics/SVG/1.1/DTD/svg11.dtd">
<!-- Generated by graphviz version 2.38.0 (20140413.2041)
 -->
<!-- Title: g Pages: 1 -->
<svg width="368pt" height="212pt"
 viewBox="0.00 0.00 368.00 212.00" xmlns="http://www.w3.org/2000/svg" xmlns:xlink="http://www.w3.org/1999/xlink">
<g id="graph0" class="graph" transform="scale(1 1) rotate(0) translate(4 208)">
<title>g</title>
<polygon fill="white" stroke="none" points="-4,4 -4,-208 364,-208 364,4 -4,4"/>
<!-- node0 -->
<g id="node1" class="node"><title>node0</title>
<polygon fill="none" stroke="black" points="167.5,-180.5 167.5,-203.5 234.5,-203.5 234.5,-180.5 167.5,-180.5"/>
<text text-anchor="middle" x="177.5" y="-188.3" font-family="Times New Roman,serif" font-size="14.00"> </text>
<polyline fill="none" stroke="black" points="187.5,-180.5 187.5,-203.5 "/>
<text text-anchor="middle" x="201" y="-188.3" font-family="Times New Roman,serif" font-size="14.00">G</text>
<polyline fill="none" stroke="black" points="214.5,-180.5 214.5,-203.5 "/>
<text text-anchor="middle" x="224.5" y="-188.3" font-family="Times New Roman,serif" font-size="14.00"> </text>
</g>
<!-- node1 -->
<g id="node2" class="node"><title>node1</title>
<polygon fill="none" stroke="black" points="103.5,-120.5 103.5,-143.5 168.5,-143.5 168.5,-120.5 103.5,-120.5"/>
<text text-anchor="middle" x="113.5" y="-128.3" font-family="Times New Roman,serif" font-size="14.00"> </text>
<polyline fill="none" stroke="black" points="123.5,-120.5 123.5,-143.5 "/>
<text text-anchor="middle" x="136" y="-128.3" font-family="Times New Roman,serif" font-size="14.00">E</text>
<polyline fill="none" stroke="black" points="148.5,-120.5 148.5,-143.5 "/>
<text text-anchor="middle" x="158.5" y="-128.3" font-family="Times New Roman,serif" font-size="14.00"> </text>
</g>
<!-- node0&#45;&gt;node1 -->
<g id="edge2" class="edge"><title>node0:f0&#45;&gt;node1:f1</title>
<path fill="none" stroke="black" d="M177,-180C177,-159.918 148.883,-165.039 139.217,-153.62"/>
<polygon fill="black" stroke="black" points="142.491,-152.374 136,-144 135.852,-154.594 142.491,-152.374"/>
</g>
<!-- node4 -->
<g id="node5" class="node"><title>node4</title>
<polygon fill="none" stroke="black" points="233,-120.5 233,-143.5 299,-143.5 299,-120.5 233,-120.5"/>
<text text-anchor="middle" x="243" y="-128.3" font-family="Times New Roman,serif" font-size="14.00"> </text>
<polyline fill="none" stroke="black" points="253,-120.5 253,-143.5 "/>
<text text-anchor="middle" x="266" y="-128.3" font-family="Times New Roman,serif" font-size="14.00">R</text>
<polyline fill="none" stroke="black" points="279,-120.5 279,-143.5 "/>
<text text-anchor="middle" x="289" y="-128.3" font-family="Times New Roman,serif" font-size="14.00"> </text>
</g>
<!-- node0&#45;&gt;node4 -->
<g id="edge1" class="edge"><title>node0:f2&#45;&gt;node4:f1</title>
<path fill="none" stroke="black" d="M225,-180C225,-159.918 253.117,-165.039 262.783,-153.62"/>
<polygon fill="black" stroke="black" points="266.148,-154.594 266,-144 259.509,-152.374 266.148,-154.594"/>
</g>
<!-- node2 -->
<g id="node3" class="node"><title>node2</title>
<polygon fill="none" stroke="black" points="42,-60.5 42,-83.5 108,-83.5 108,-60.5 42,-60.5"/>
<text text-anchor="middle" x="52" y="-68.3" font-family="Times New Roman,serif" font-size="14.00"> </text>
<polyline fill="none" stroke="black" points="62,-60.5 62,-83.5 "/>
<text text-anchor="middle" x="75" y="-68.3" font-family="Times New Roman,serif" font-size="14.00">B</text>
<polyline fill="none" stroke="black" points="88,-60.5 88,-83.5 "/>
<text text-anchor="middle" x="98" y="-68.3" font-family="Times New Roman,serif" font-size="14.00"> </text>
</g>
<!-- node1&#45;&gt;node2 -->
<g id="edge3" class="edge"><title>node1:f0&#45;&gt;node2:f1</title>
<path fill="none" stroke="black" d="M113,-120C113,-100.916 87.4293,-104.572 78.2399,-93.6598"/>
<polygon fill="black" stroke="black" points="81.4983,-92.368 75,-84 74.8616,-94.5939 81.4983,-92.368"/>
</g>
<!-- node3 -->
<g id="node4" class="node"><title>node3</title>
<polygon fill="none" stroke="black" points="126.5,-60.5 126.5,-83.5 191.5,-83.5 191.5,-60.5 126.5,-60.5"/>
<text text-anchor="middle" x="136.5" y="-68.3" font-family="Times New Roman,serif" font-size="14.00"> </text>
<polyline fill="none" stroke="black" points="146.5,-60.5 146.5,-83.5 "/>
<text text-anchor="middle" x="159" y="-68.3" font-family="Times New Roman,serif" font-size="14.00">F</text>
<polyline fill="none" stroke="black" points="171.5,-60.5 171.5,-83.5 "/>
<text text-anchor="middle" x="181.5" y="-68.3" font-family="Times New Roman,serif" font-size="14.00"> </text>
</g>
<!-- node1&#45;&gt;node3 -->
<g id="edge4" class="edge"><title>node1:f2&#45;&gt;node3:f1</title>
<path fill="none" stroke="black" d="M159,-120C159,-108 159,-102.75 159,-94.125"/>
<polygon fill="black" stroke="black" points="162.5,-94 159,-84 155.5,-94 162.5,-94"/>
</g>
<!-- node7 -->
<g id="node8" class="node"><title>node7</title>
<polygon fill="none" stroke="black" points="0,-0.5 0,-23.5 66,-23.5 66,-0.5 0,-0.5"/>
<text text-anchor="middle" x="10" y="-8.3" font-family="Times New Roman,serif" font-size="14.00"> </text>
<polyline fill="none" stroke="black" points="20,-0.5 20,-23.5 "/>
<text text-anchor="middle" x="33" y="-8.3" font-family="Times New Roman,serif" font-size="14.00">A</text>
<polyline fill="none" stroke="black" points="46,-0.5 46,-23.5 "/>
<text text-anchor="middle" x="56" y="-8.3" font-family="Times New Roman,serif" font-size="14.00"> </text>
</g>
<!-- node2&#45;&gt;node7 -->
<g id="edge6" class="edge"><title>node2:f0&#45;&gt;node7:f1</title>
<path fill="none" stroke="black" d="M52,-60C52,-46.0072 40.6341,-42.9467 35.4839,-33.9075"/>
<polygon fill="black" stroke="black" points="38.8268,-32.8486 33,-24 32.037,-34.551 38.8268,-32.8486"/>
</g>
<!-- node8 -->
<g id="node9" class="node"><title>node8</title>
<polygon fill="none" stroke="black" points="84,-0.5 84,-23.5 150,-23.5 150,-0.5 84,-0.5"/>
<text text-anchor="middle" x="94" y="-8.3" font-family="Times New Roman,serif" font-size="14.00"> </text>
<polyline fill="none" stroke="black" points="104,-0.5 104,-23.5 "/>
<text text-anchor="middle" x="117" y="-8.3" font-family="Times New Roman,serif" font-size="14.00">C</text>
<polyline fill="none" stroke="black" points="130,-0.5 130,-23.5 "/>
<text text-anchor="middle" x="140" y="-8.3" font-family="Times New Roman,serif" font-size="14.00"> </text>
</g>
<!-- node2&#45;&gt;node8 -->
<g id="edge5" class="edge"><title>node2:f2&#45;&gt;node8:f1</title>
<path fill="none" stroke="black" d="M98,-60C98,-46.0072 109.366,-42.9467 114.516,-33.9075"/>
<polygon fill="black" stroke="black" points="117.963,-34.551 117,-24 111.173,-32.8486 117.963,-34.551"/>
</g>
<!-- node5 -->
<g id="node6" class="node"><title>node5</title>
<polygon fill="none" stroke="black" points="210,-60.5 210,-83.5 276,-83.5 276,-60.5 210,-60.5"/>
<text text-anchor="middle" x="220" y="-68.3" font-family="Times New Roman,serif" font-size="14.00"> </text>
<polyline fill="none" stroke="black" points="230,-60.5 230,-83.5 "/>
<text text-anchor="middle" x="243" y="-68.3" font-family="Times New Roman,serif" font-size="14.00">H</text>
<polyline fill="none" stroke="black" points="256,-60.5 256,-83.5 "/>
<text text-anchor="middle" x="266" y="-68.3" font-family="Times New Roman,serif" font-size="14.00"> </text>
</g>
<!-- node4&#45;&gt;node5 -->
<g id="edge8" class="edge"><title>node4:f0&#45;&gt;node5:f1</title>
<path fill="none" stroke="black" d="M243,-120C243,-108 243,-102.75 243,-94.125"/>
<polygon fill="black" stroke="black" points="246.5,-94 243,-84 239.5,-94 246.5,-94"/>
</g>
<!-- node6 -->
<g id="node7" class="node"><title>node6</title>
<polygon fill="none" stroke="black" points="294,-60.5 294,-83.5 360,-83.5 360,-60.5 294,-60.5"/>
<text text-anchor="middle" x="304" y="-68.3" font-family="Times New Roman,serif" font-size="14.00"> </text>
<polyline fill="none" stroke="black" points="314,-60.5 314,-83.5 "/>
<text text-anchor="middle" x="327" y="-68.3" font-family="Times New Roman,serif" font-size="14.00">Y</text>
<polyline fill="none" stroke="black" points="340,-60.5 340,-83.5 "/>
<text text-anchor="middle" x="350" y="-68.3" font-family="Times New Roman,serif" font-size="14.00"> </text>
</g>
<!-- node4&#45;&gt;node6 -->
<g id="edge7" class="edge"><title>node4:f2&#45;&gt;node6:f1</title>
<path fill="none" stroke="black" d="M289,-120C289,-100.916 314.571,-104.572 323.76,-93.6598"/>
<polygon fill="black" stroke="black" points="327.138,-94.5939 327,-84 320.502,-92.368 327.138,-94.5939"/>
</g>
</g>
</svg>
