<?xml version="1.0" encoding="UTF-8" standalone="no"?>
<!DOCTYPE svg PUBLIC "-//W3C//DTD SVG 1.1//EN"
 "http://www.w3.org/Graphics/SVG/1.1/DTD/svg11.dtd">
<!-- Generated by graphviz version 2.38.0 (20140413.2041)
 -->
<!-- Title: G Pages: 1 -->
<svg width="222pt" height="364pt"
 viewBox="0.00 0.00 222.00 364.00" xmlns="http://www.w3.org/2000/svg" xmlns:xlink="http://www.w3.org/1999/xlink">
<g id="graph0" class="graph" transform="scale(1 1) rotate(0) translate(4 360)">
<title>G</title>
<polygon fill="white" stroke="none" points="-4,4 -4,-360 218,-360 218,4 -4,4"/>
<g id="clust1" class="cluster"><title>cluster0</title>
<polygon fill="none" stroke="black" points="64,-152 64,-348 206,-348 206,-152 64,-152"/>
</g>
<g id="clust2" class="cluster"><title>cluster1</title>
<polygon fill="none" stroke="black" points="64,-8 64,-132 206,-132 206,-8 64,-8"/>
</g>
<!-- a -->
<g id="node1" class="node"><title>a</title>
<ellipse fill="none" stroke="black" cx="135" cy="-322" rx="27" ry="18"/>
<text text-anchor="middle" x="135" y="-318.3" font-family="Times New Roman,serif" font-size="14.00">a</text>
</g>
<!-- b -->
<g id="node2" class="node"><title>b</title>
<ellipse fill="none" stroke="black" cx="99" cy="-250" rx="27" ry="18"/>
<text text-anchor="middle" x="99" y="-246.3" font-family="Times New Roman,serif" font-size="14.00">b</text>
</g>
<!-- a&#45;&gt;b -->
<g id="edge1" class="edge"><title>a&#45;&gt;b</title>
<path fill="none" stroke="black" d="M126.65,-304.765C122.288,-296.283 116.853,-285.714 111.959,-276.197"/>
<polygon fill="black" stroke="black" points="114.99,-274.439 107.304,-267.147 108.765,-277.641 114.99,-274.439"/>
</g>
<!-- c -->
<g id="node3" class="node"><title>c</title>
<ellipse fill="none" stroke="black" cx="171" cy="-250" rx="27" ry="18"/>
<text text-anchor="middle" x="171" y="-246.3" font-family="Times New Roman,serif" font-size="14.00">c</text>
</g>
<!-- a&#45;&gt;c -->
<g id="edge2" class="edge"><title>a&#45;&gt;c</title>
<path fill="none" stroke="black" d="M143.35,-304.765C147.712,-296.283 153.147,-285.714 158.041,-276.197"/>
<polygon fill="black" stroke="black" points="161.235,-277.641 162.696,-267.147 155.01,-274.439 161.235,-277.641"/>
</g>
<!-- d -->
<g id="node4" class="node"><title>d</title>
<ellipse fill="none" stroke="black" cx="99" cy="-178" rx="27" ry="18"/>
<text text-anchor="middle" x="99" y="-174.3" font-family="Times New Roman,serif" font-size="14.00">d</text>
</g>
<!-- b&#45;&gt;d -->
<g id="edge3" class="edge"><title>b&#45;&gt;d</title>
<path fill="none" stroke="black" d="M99,-231.697C99,-223.983 99,-214.712 99,-206.112"/>
<polygon fill="black" stroke="black" points="102.5,-206.104 99,-196.104 95.5001,-206.104 102.5,-206.104"/>
</g>
<!-- f -->
<g id="node7" class="node"><title>f</title>
<ellipse fill="none" stroke="black" cx="99" cy="-34" rx="27" ry="18"/>
<text text-anchor="middle" x="99" y="-30.3" font-family="Times New Roman,serif" font-size="14.00">f</text>
</g>
<!-- b&#45;&gt;f -->
<g id="edge7" class="edge"><title>b&#45;&gt;f</title>
<path fill="none" stroke="black" d="M112.75,-234.069C120.961,-224.1 130.619,-210.247 135,-196 142.052,-173.066 145.58,-157.538 145.581,-142.011"/>
<polygon fill="black" stroke="black" points="149.063,-141.547 145.075,-131.731 142.071,-141.891 149.063,-141.547"/>
</g>
<!-- c&#45;&gt;d -->
<g id="edge4" class="edge"><title>c&#45;&gt;d</title>
<path fill="none" stroke="black" d="M156.43,-234.834C146.25,-224.938 132.476,-211.546 120.969,-200.359"/>
<polygon fill="black" stroke="black" points="123.405,-197.846 113.796,-193.385 118.526,-202.865 123.405,-197.846"/>
</g>
<!-- e -->
<g id="node5" class="node"><title>e</title>
<ellipse fill="none" stroke="black" cx="99" cy="-106" rx="27" ry="18"/>
<text text-anchor="middle" x="99" y="-102.3" font-family="Times New Roman,serif" font-size="14.00">e</text>
</g>
<!-- c&#45;&gt;e -->
<g id="edge10" class="edge"><title>c&#45;&gt;e</title>
<path fill="none" stroke="black" d="M135,-152C130.703,-144.409 125.157,-136.769 119.712,-129.993"/>
<polygon fill="black" stroke="black" points="122.073,-127.362 112.969,-121.943 116.707,-131.857 122.073,-127.362"/>
</g>
<!-- g -->
<g id="node6" class="node"><title>g</title>
<ellipse fill="none" stroke="black" cx="171" cy="-34" rx="27" ry="18"/>
<text text-anchor="middle" x="171" y="-30.3" font-family="Times New Roman,serif" font-size="14.00">g</text>
</g>
<!-- c&#45;&gt;g -->
<g id="edge9" class="edge"><title>c&#45;&gt;g</title>
<path fill="none" stroke="black" d="M171,-152.011C171,-148.759 171,-145.494 171,-142.23"/>
<polygon fill="black" stroke="black" points="174.5,-141.93 171,-131.93 167.5,-141.93 174.5,-141.93"/>
</g>
<!-- d&#45;&gt;e -->
<g id="edge8" class="edge"><title>d&#45;&gt;e</title>
<path fill="none" stroke="black" d="M99,-159.697C99,-151.983 99,-142.712 99,-134.112"/>
<polygon fill="black" stroke="black" points="102.5,-134.104 99,-124.104 95.5001,-134.104 102.5,-134.104"/>
</g>
<!-- h -->
<g id="node8" class="node"><title>h</title>
<ellipse fill="none" stroke="black" cx="27" cy="-106" rx="27" ry="18"/>
<text text-anchor="middle" x="27" y="-102.3" font-family="Times New Roman,serif" font-size="14.00">h</text>
</g>
<!-- d&#45;&gt;h -->
<g id="edge11" class="edge"><title>d&#45;&gt;h</title>
<path fill="none" stroke="black" d="M84.4297,-162.834C74.2501,-152.938 60.4761,-139.546 48.9694,-128.359"/>
<polygon fill="black" stroke="black" points="51.4055,-125.846 41.7957,-121.385 46.5259,-130.865 51.4055,-125.846"/>
</g>
<!-- e&#45;&gt;g -->
<g id="edge5" class="edge"><title>e&#45;&gt;g</title>
<path fill="none" stroke="black" d="M113.57,-90.8345C123.75,-80.9376 137.524,-67.5462 149.031,-56.3591"/>
<polygon fill="black" stroke="black" points="151.474,-58.865 156.204,-49.3847 146.595,-53.8461 151.474,-58.865"/>
</g>
<!-- e&#45;&gt;f -->
<g id="edge6" class="edge"><title>e&#45;&gt;f</title>
<path fill="none" stroke="black" d="M99,-87.6966C99,-79.9827 99,-70.7125 99,-62.1124"/>
<polygon fill="black" stroke="black" points="102.5,-62.1043 99,-52.1043 95.5001,-62.1044 102.5,-62.1043"/>
</g>
</g>
</svg>
