<?xml version="1.0" encoding="UTF-8" standalone="no"?>
<!DOCTYPE svg PUBLIC "-//W3C//DTD SVG 1.1//EN"
 "http://www.w3.org/Graphics/SVG/1.1/DTD/svg11.dtd">
<!-- Generated by graphviz version 2.38.0 (20140413.2041)
 -->
<!-- Title: G Pages: 1 -->
<svg width="224pt" height="408pt"
 viewBox="0.00 0.00 224.00 408.00" xmlns="http://www.w3.org/2000/svg" xmlns:xlink="http://www.w3.org/1999/xlink">
<g id="graph0" class="graph" transform="scale(1 1) rotate(0) translate(4 404)">
<title>G</title>
<polygon fill="white" stroke="none" points="-4,4 -4,-404 220,-404 220,4 -4,4"/>
<g id="clust1" class="cluster"><title>cluster_0</title>
<polygon fill="lightgrey" stroke="lightgrey" points="8,-65 8,-356 98,-356 98,-65 8,-65"/>
<text text-anchor="middle" x="53" y="-340.8" font-family="Times New Roman,serif" font-size="14.00">process #1</text>
</g>
<g id="clust2" class="cluster"><title>cluster_1</title>
<polygon fill="none" stroke="blue" points="129,-65 129,-356 208,-356 208,-65 129,-65"/>
<text text-anchor="middle" x="168.5" y="-340.8" font-family="Times New Roman,serif" font-size="14.00">process #2</text>
</g>
<!-- a0 -->
<g id="node1" class="node"><title>a0</title>
<ellipse fill="white" stroke="white" cx="63" cy="-307" rx="27" ry="18"/>
<text text-anchor="middle" x="63" y="-303.3" font-family="Times New Roman,serif" font-size="14.00">a0</text>
</g>
<!-- a1 -->
<g id="node2" class="node"><title>a1</title>
<ellipse fill="white" stroke="white" cx="63" cy="-235" rx="27" ry="18"/>
<text text-anchor="middle" x="63" y="-231.3" font-family="Times New Roman,serif" font-size="14.00">a1</text>
</g>
<!-- a0&#45;&gt;a1 -->
<g id="edge1" class="edge"><title>a0&#45;&gt;a1</title>
<path fill="none" stroke="black" d="M63,-288.697C63,-280.983 63,-271.712 63,-263.112"/>
<polygon fill="black" stroke="black" points="66.5001,-263.104 63,-253.104 59.5001,-263.104 66.5001,-263.104"/>
</g>
<!-- a2 -->
<g id="node3" class="node"><title>a2</title>
<ellipse fill="white" stroke="white" cx="63" cy="-163" rx="27" ry="18"/>
<text text-anchor="middle" x="63" y="-159.3" font-family="Times New Roman,serif" font-size="14.00">a2</text>
</g>
<!-- a1&#45;&gt;a2 -->
<g id="edge2" class="edge"><title>a1&#45;&gt;a2</title>
<path fill="none" stroke="black" d="M63,-216.697C63,-208.983 63,-199.712 63,-191.112"/>
<polygon fill="black" stroke="black" points="66.5001,-191.104 63,-181.104 59.5001,-191.104 66.5001,-191.104"/>
</g>
<!-- b3 -->
<g id="node8" class="node"><title>b3</title>
<ellipse fill="lightgrey" stroke="black" cx="164" cy="-91" rx="27" ry="18"/>
<text text-anchor="middle" x="164" y="-87.3" font-family="Times New Roman,serif" font-size="14.00">b3</text>
</g>
<!-- a1&#45;&gt;b3 -->
<g id="edge9" class="edge"><title>a1&#45;&gt;b3</title>
<path fill="none" stroke="black" d="M74.001,-218.533C91.6079,-193.779 126.245,-145.081 147.038,-115.847"/>
<polygon fill="black" stroke="black" points="150.069,-117.625 153.013,-107.448 144.364,-113.568 150.069,-117.625"/>
</g>
<!-- a3 -->
<g id="node4" class="node"><title>a3</title>
<ellipse fill="white" stroke="white" cx="63" cy="-91" rx="27" ry="18"/>
<text text-anchor="middle" x="63" y="-87.3" font-family="Times New Roman,serif" font-size="14.00">a3</text>
</g>
<!-- a2&#45;&gt;a3 -->
<g id="edge3" class="edge"><title>a2&#45;&gt;a3</title>
<path fill="none" stroke="black" d="M63,-144.697C63,-136.983 63,-127.712 63,-119.112"/>
<polygon fill="black" stroke="black" points="66.5001,-119.104 63,-109.104 59.5001,-119.104 66.5001,-119.104"/>
</g>
<!-- a3&#45;&gt;a0 -->
<g id="edge11" class="edge"><title>a3&#45;&gt;a0</title>
<path fill="none" stroke="black" d="M49.2496,-106.931C41.0392,-116.9 31.381,-130.753 27,-145 12.8916,-190.88 12.8916,-207.12 27,-253 30.2858,-263.685 36.5399,-274.149 42.9254,-282.919"/>
<polygon fill="black" stroke="black" points="40.354,-285.314 49.2496,-291.069 45.8844,-281.023 40.354,-285.314"/>
</g>
<!-- end -->
<g id="node10" class="node"><title>end</title>
<polygon fill="none" stroke="black" points="131.5,-37 94.5,-37 94.5,-0 131.5,-0 131.5,-37"/>
<polyline fill="none" stroke="black" points="106.5,-37 94.5,-25 "/>
<polyline fill="none" stroke="black" points="94.5,-12 106.5,-0 "/>
<polyline fill="none" stroke="black" points="119.5,-0 131.5,-12 "/>
<polyline fill="none" stroke="black" points="131.5,-25 119.5,-37 "/>
<text text-anchor="middle" x="113" y="-14.8" font-family="Times New Roman,serif" font-size="14.00">end</text>
</g>
<!-- a3&#45;&gt;end -->
<g id="edge12" class="edge"><title>a3&#45;&gt;end</title>
<path fill="none" stroke="black" d="M74.0966,-74.3538C80.1492,-65.8197 87.7959,-55.0378 94.7049,-45.2961"/>
<polygon fill="black" stroke="black" points="97.5978,-47.2672 100.528,-37.0856 91.888,-43.2177 97.5978,-47.2672"/>
</g>
<!-- b0 -->
<g id="node5" class="node"><title>b0</title>
<ellipse fill="lightgrey" stroke="black" cx="168" cy="-307" rx="27" ry="18"/>
<text text-anchor="middle" x="168" y="-303.3" font-family="Times New Roman,serif" font-size="14.00">b0</text>
</g>
<!-- b1 -->
<g id="node6" class="node"><title>b1</title>
<ellipse fill="lightgrey" stroke="black" cx="170" cy="-235" rx="27" ry="18"/>
<text text-anchor="middle" x="170" y="-231.3" font-family="Times New Roman,serif" font-size="14.00">b1</text>
</g>
<!-- b0&#45;&gt;b1 -->
<g id="edge4" class="edge"><title>b0&#45;&gt;b1</title>
<path fill="none" stroke="black" d="M168.494,-288.697C168.715,-280.983 168.98,-271.712 169.225,-263.112"/>
<polygon fill="black" stroke="black" points="172.724,-263.2 169.511,-253.104 165.727,-263 172.724,-263.2"/>
</g>
<!-- b2 -->
<g id="node7" class="node"><title>b2</title>
<ellipse fill="lightgrey" stroke="black" cx="173" cy="-163" rx="27" ry="18"/>
<text text-anchor="middle" x="173" y="-159.3" font-family="Times New Roman,serif" font-size="14.00">b2</text>
</g>
<!-- b1&#45;&gt;b2 -->
<g id="edge5" class="edge"><title>b1&#45;&gt;b2</title>
<path fill="none" stroke="black" d="M170.742,-216.697C171.072,-208.983 171.469,-199.712 171.838,-191.112"/>
<polygon fill="black" stroke="black" points="175.335,-191.245 172.267,-181.104 168.342,-190.945 175.335,-191.245"/>
</g>
<!-- b2&#45;&gt;a3 -->
<g id="edge10" class="edge"><title>b2&#45;&gt;a3</title>
<path fill="none" stroke="black" d="M153.839,-149.807C136.331,-138.665 110.241,-122.062 90.5068,-109.504"/>
<polygon fill="black" stroke="black" points="92.2567,-106.469 81.941,-104.053 88.4985,-112.375 92.2567,-106.469"/>
</g>
<!-- b2&#45;&gt;b3 -->
<g id="edge6" class="edge"><title>b2&#45;&gt;b3</title>
<path fill="none" stroke="black" d="M170.821,-145.055C169.83,-137.346 168.632,-128.027 167.518,-119.364"/>
<polygon fill="black" stroke="black" points="170.968,-118.747 166.221,-109.275 164.025,-119.64 170.968,-118.747"/>
</g>
<!-- b3&#45;&gt;end -->
<g id="edge13" class="edge"><title>b3&#45;&gt;end</title>
<path fill="none" stroke="black" d="M152.681,-74.3538C146.508,-65.8197 138.708,-55.0378 131.661,-45.2961"/>
<polygon fill="black" stroke="black" points="134.419,-43.1364 125.721,-37.0856 128.747,-47.2393 134.419,-43.1364"/>
</g>
<!-- start -->
<g id="node9" class="node"><title>start</title>
<polygon fill="none" stroke="black" points="115,-400 77.1282,-382 115,-364 152.872,-382 115,-400"/>
<polyline fill="none" stroke="black" points="87.9663,-387.151 87.9663,-376.849 "/>
<polyline fill="none" stroke="black" points="104.162,-369.151 125.838,-369.151 "/>
<polyline fill="none" stroke="black" points="142.034,-376.849 142.034,-387.151 "/>
<polyline fill="none" stroke="black" points="125.838,-394.849 104.162,-394.849 "/>
<text text-anchor="middle" x="115" y="-378.3" font-family="Times New Roman,serif" font-size="14.00">start</text>
</g>
<!-- start&#45;&gt;a0 -->
<g id="edge7" class="edge"><title>start&#45;&gt;a0</title>
<path fill="none" stroke="black" d="M105.942,-368.284C98.8241,-358.292 88.7051,-344.086 80.0777,-331.974"/>
<polygon fill="black" stroke="black" points="82.776,-329.73 74.1234,-323.616 77.0746,-333.791 82.776,-329.73"/>
</g>
<!-- start&#45;&gt;b0 -->
<g id="edge8" class="edge"><title>start&#45;&gt;b0</title>
<path fill="none" stroke="black" d="M124.232,-368.284C131.487,-358.292 141.801,-344.086 150.594,-331.974"/>
<polygon fill="black" stroke="black" points="153.62,-333.764 156.663,-323.616 147.955,-329.651 153.62,-333.764"/>
</g>
</g>
</svg>
