<?xml version="1.0" encoding="UTF-8" standalone="no"?>
<!DOCTYPE svg PUBLIC "-//W3C//DTD SVG 1.1//EN"
 "http://www.w3.org/Graphics/SVG/1.1/DTD/svg11.dtd">
<!-- Generated by graphviz version 2.44.1 (20200629.0846)
 -->
<!-- Title: G Pages: 1 -->
<svg width="224pt" height="408pt"
 viewBox="0.00 0.00 224.00 408.00" xmlns="http://www.w3.org/2000/svg" xmlns:xlink="http://www.w3.org/1999/xlink">
<g id="graph0" class="graph" transform="scale(1 1) rotate(0) translate(4 404)">
<title>G</title>
<polygon fill="white" stroke="transparent" points="-4,4 -4,-404 220,-404 220,4 -4,4"/>
<g id="clust1" class="cluster">
<title>cluster_0</title>
<polygon fill="lightgrey" stroke="lightgrey" points="8,-65 8,-356 98,-356 98,-65 8,-65"/>
<text text-anchor="middle" x="53" y="-340.8" font-family="Times New Roman,serif" font-size="14.00">process #1</text>
</g>
<g id="clust2" class="cluster">
<title>cluster_1</title>
<polygon fill="none" stroke="blue" points="129,-65 129,-356 208,-356 208,-65 129,-65"/>
<text text-anchor="middle" x="168.5" y="-340.8" font-family="Times New Roman,serif" font-size="14.00">process #2</text>
</g>
<!-- a0 -->
<g id="node1" class="node">
<title>a0</title>
<ellipse fill="white" stroke="white" cx="63" cy="-307" rx="27" ry="18"/>
<text text-anchor="middle" x="63" y="-303.3" font-family="Times New Roman,serif" font-size="14.00">a0</text>
</g>
<!-- a1 -->
<g id="node2" class="node">
<title>a1</title>
<ellipse fill="white" stroke="white" cx="63" cy="-235" rx="27" ry="18"/>
<text text-anchor="middle" x="63" y="-231.3" font-family="Times New Roman,serif" font-size="14.00">a1</text>
</g>
<!-- a0&#45;&gt;a1 -->
<g id="edge1" class="edge">
<title>a0&#45;&gt;a1</title>
<path fill="none" stroke="black" d="M63,-288.7C63,-280.98 63,-271.71 63,-263.11"/>
<polygon fill="black" stroke="black" points="66.5,-263.1 63,-253.1 59.5,-263.1 66.5,-263.1"/>
</g>
<!-- a2 -->
<g id="node3" class="node">
<title>a2</title>
<ellipse fill="white" stroke="white" cx="63" cy="-163" rx="27" ry="18"/>
<text text-anchor="middle" x="63" y="-159.3" font-family="Times New Roman,serif" font-size="14.00">a2</text>
</g>
<!-- a1&#45;&gt;a2 -->
<g id="edge2" class="edge">
<title>a1&#45;&gt;a2</title>
<path fill="none" stroke="black" d="M63,-216.7C63,-208.98 63,-199.71 63,-191.11"/>
<polygon fill="black" stroke="black" points="66.5,-191.1 63,-181.1 59.5,-191.1 66.5,-191.1"/>
</g>
<!-- b3 -->
<g id="node8" class="node">
<title>b3</title>
<ellipse fill="lightgrey" stroke="black" cx="164" cy="-91" rx="27" ry="18"/>
<text text-anchor="middle" x="164" y="-87.3" font-family="Times New Roman,serif" font-size="14.00">b3</text>
</g>
<!-- a1&#45;&gt;b3 -->
<g id="edge9" class="edge">
<title>a1&#45;&gt;b3</title>
<path fill="none" stroke="black" d="M74,-218.53C91.61,-193.78 126.25,-145.08 147.04,-115.85"/>
<polygon fill="black" stroke="black" points="150.07,-117.63 153.01,-107.45 144.36,-113.57 150.07,-117.63"/>
</g>
<!-- a3 -->
<g id="node4" class="node">
<title>a3</title>
<ellipse fill="white" stroke="white" cx="63" cy="-91" rx="27" ry="18"/>
<text text-anchor="middle" x="63" y="-87.3" font-family="Times New Roman,serif" font-size="14.00">a3</text>
</g>
<!-- a2&#45;&gt;a3 -->
<g id="edge3" class="edge">
<title>a2&#45;&gt;a3</title>
<path fill="none" stroke="black" d="M63,-144.7C63,-136.98 63,-127.71 63,-119.11"/>
<polygon fill="black" stroke="black" points="66.5,-119.1 63,-109.1 59.5,-119.1 66.5,-119.1"/>
</g>
<!-- a3&#45;&gt;a0 -->
<g id="edge11" class="edge">
<title>a3&#45;&gt;a0</title>
<path fill="none" stroke="black" d="M49.25,-106.93C41.04,-116.9 31.38,-130.75 27,-145 12.89,-190.88 12.89,-207.12 27,-253 30.29,-263.69 36.54,-274.15 42.93,-282.92"/>
<polygon fill="black" stroke="black" points="40.35,-285.31 49.25,-291.07 45.88,-281.02 40.35,-285.31"/>
</g>
<!-- end -->
<g id="node10" class="node">
<title>end</title>
<polygon fill="none" stroke="black" points="131.5,-37 94.5,-37 94.5,0 131.5,0 131.5,-37"/>
<polyline fill="none" stroke="black" points="106.5,-37 94.5,-25 "/>
<polyline fill="none" stroke="black" points="94.5,-12 106.5,0 "/>
<polyline fill="none" stroke="black" points="119.5,0 131.5,-12 "/>
<polyline fill="none" stroke="black" points="131.5,-25 119.5,-37 "/>
<text text-anchor="middle" x="113" y="-14.8" font-family="Times New Roman,serif" font-size="14.00">end</text>
</g>
<!-- a3&#45;&gt;end -->
<g id="edge12" class="edge">
<title>a3&#45;&gt;end</title>
<path fill="none" stroke="black" d="M74.1,-74.35C80.15,-65.82 87.8,-55.04 94.7,-45.3"/>
<polygon fill="black" stroke="black" points="97.6,-47.27 100.53,-37.09 91.89,-43.22 97.6,-47.27"/>
</g>
<!-- b0 -->
<g id="node5" class="node">
<title>b0</title>
<ellipse fill="lightgrey" stroke="black" cx="164" cy="-307" rx="27" ry="18"/>
<text text-anchor="middle" x="164" y="-303.3" font-family="Times New Roman,serif" font-size="14.00">b0</text>
</g>
<!-- b1 -->
<g id="node6" class="node">
<title>b1</title>
<ellipse fill="lightgrey" stroke="black" cx="168" cy="-235" rx="27" ry="18"/>
<text text-anchor="middle" x="168" y="-231.3" font-family="Times New Roman,serif" font-size="14.00">b1</text>
</g>
<!-- b0&#45;&gt;b1 -->
<g id="edge4" class="edge">
<title>b0&#45;&gt;b1</title>
<path fill="none" stroke="black" d="M164.99,-288.7C165.43,-280.98 165.96,-271.71 166.45,-263.11"/>
<polygon fill="black" stroke="black" points="169.95,-263.29 167.02,-253.1 162.96,-262.89 169.95,-263.29"/>
</g>
<!-- b2 -->
<g id="node7" class="node">
<title>b2</title>
<ellipse fill="lightgrey" stroke="black" cx="173" cy="-163" rx="27" ry="18"/>
<text text-anchor="middle" x="173" y="-159.3" font-family="Times New Roman,serif" font-size="14.00">b2</text>
</g>
<!-- b1&#45;&gt;b2 -->
<g id="edge5" class="edge">
<title>b1&#45;&gt;b2</title>
<path fill="none" stroke="black" d="M169.24,-216.7C169.79,-208.98 170.45,-199.71 171.06,-191.11"/>
<polygon fill="black" stroke="black" points="174.56,-191.33 171.78,-181.1 167.57,-190.83 174.56,-191.33"/>
</g>
<!-- b2&#45;&gt;a3 -->
<g id="edge10" class="edge">
<title>b2&#45;&gt;a3</title>
<path fill="none" stroke="black" d="M153.84,-149.81C136.33,-138.67 110.24,-122.06 90.51,-109.5"/>
<polygon fill="black" stroke="black" points="92.26,-106.47 81.94,-104.05 88.5,-112.37 92.26,-106.47"/>
</g>
<!-- b2&#45;&gt;b3 -->
<g id="edge6" class="edge">
<title>b2&#45;&gt;b3</title>
<path fill="none" stroke="black" d="M170.82,-145.05C169.83,-137.35 168.63,-128.03 167.52,-119.36"/>
<polygon fill="black" stroke="black" points="170.97,-118.75 166.22,-109.28 164.02,-119.64 170.97,-118.75"/>
</g>
<!-- b3&#45;&gt;end -->
<g id="edge13" class="edge">
<title>b3&#45;&gt;end</title>
<path fill="none" stroke="black" d="M152.68,-74.35C146.51,-65.82 138.71,-55.04 131.66,-45.3"/>
<polygon fill="black" stroke="black" points="134.42,-43.14 125.72,-37.09 128.75,-47.24 134.42,-43.14"/>
</g>
<!-- start -->
<g id="node9" class="node">
<title>start</title>
<polygon fill="none" stroke="black" points="113,-400 75.13,-382 113,-364 150.87,-382 113,-400"/>
<polyline fill="none" stroke="black" points="85.97,-387.15 85.97,-376.85 "/>
<polyline fill="none" stroke="black" points="102.16,-369.15 123.84,-369.15 "/>
<polyline fill="none" stroke="black" points="140.03,-376.85 140.03,-387.15 "/>
<polyline fill="none" stroke="black" points="123.84,-394.85 102.16,-394.85 "/>
<text text-anchor="middle" x="113" y="-378.3" font-family="Times New Roman,serif" font-size="14.00">start</text>
</g>
<!-- start&#45;&gt;a0 -->
<g id="edge7" class="edge">
<title>start&#45;&gt;a0</title>
<path fill="none" stroke="black" d="M104.06,-367.95C97.23,-357.98 87.64,-343.97 79.44,-332"/>
<polygon fill="black" stroke="black" points="82.31,-330 73.78,-323.73 76.54,-333.96 82.31,-330"/>
</g>
<!-- start&#45;&gt;b0 -->
<g id="edge8" class="edge">
<title>start&#45;&gt;b0</title>
<path fill="none" stroke="black" d="M122.12,-367.95C129.08,-357.98 138.87,-343.97 147.23,-332"/>
<polygon fill="black" stroke="black" points="150.15,-333.93 153.01,-323.73 144.41,-329.92 150.15,-333.93"/>
</g>
</g>
</svg>
