<?xml version="1.0" encoding="UTF-8" standalone="no"?>
<!DOCTYPE svg PUBLIC "-//W3C//DTD SVG 1.1//EN"
 "http://www.w3.org/Graphics/SVG/1.1/DTD/svg11.dtd">
<!-- Generated by graphviz version 2.38.0 (20140413.2041)
 -->
<!-- Title: ER Pages: 1 -->
<svg width="352pt" height="436pt"
 viewBox="0.00 0.00 351.54 436.37" xmlns="http://www.w3.org/2000/svg" xmlns:xlink="http://www.w3.org/1999/xlink">
<g id="graph0" class="graph" transform="scale(1 1) rotate(0) translate(158.439 174.559)">
<title>ER</title>
<polygon fill="white" stroke="none" points="-158.439,261.813 -158.439,-174.559 193.1,-174.559 193.1,261.813 -158.439,261.813"/>
<text text-anchor="middle" x="17.3304" y="225.813" font-family="Times New Roman,serif" font-size="20.00">Entity Relation Diagram</text>
<text text-anchor="middle" x="17.3304" y="247.813" font-family="Times New Roman,serif" font-size="20.00">drawn by NEATO</text>
<!-- course -->
<g id="node1" class="node"><title>course</title>
<polygon fill="none" stroke="black" points="113.543,-48.4456 59.5425,-48.4456 59.5425,-12.4456 113.543,-12.4456 113.543,-48.4456"/>
<text text-anchor="middle" x="86.5425" y="-26.7456" font-family="Times New Roman,serif" font-size="14.00">course</text>
</g>
<!-- C&#45;I -->
<g id="node10" class="node"><title>C&#45;I</title>
<polygon fill="lightgrey" stroke="lightgrey" points="33.7217,-114.449 1.37974,-96.4492 33.7217,-78.4492 66.0636,-96.4492 33.7217,-114.449"/>
<text text-anchor="middle" x="33.7217" y="-92.7492" font-family="Times New Roman,serif" font-size="14.00">C&#45;I</text>
</g>
<!-- course&#45;&#45;C&#45;I -->
<g id="edge3" class="edge"><title>course&#45;&#45;C&#45;I</title>
<path fill="none" stroke="black" d="M72.109,-48.4814C63.1897,-59.6267 51.9583,-73.6612 43.953,-83.6643"/>
<text text-anchor="middle" x="54.531" y="-54.8729" font-family="Times New Roman,serif" font-size="14.00">n</text>
</g>
<!-- institute -->
<g id="node2" class="node"><title>institute</title>
<polygon fill="none" stroke="black" points="-18.75,-105.706 -77.75,-105.706 -77.75,-69.7063 -18.75,-69.7063 -18.75,-105.706"/>
<text text-anchor="middle" x="-48.25" y="-84.0063" font-family="Times New Roman,serif" font-size="14.00">institute</text>
</g>
<!-- name1 -->
<g id="node5" class="node"><title>name1</title>
<ellipse fill="none" stroke="black" cx="-92.878" cy="-152.559" rx="29.795" ry="18"/>
<text text-anchor="middle" x="-92.878" y="-148.859" font-family="Times New Roman,serif" font-size="14.00">name</text>
</g>
<!-- institute&#45;&#45;name1 -->
<g id="edge5" class="edge"><title>institute&#45;&#45;name1</title>
<path fill="none" stroke="black" d="M-60.6814,-105.771C-67.1807,-115.216 -75.0819,-126.698 -81.4304,-135.924"/>
</g>
<!-- S&#45;I -->
<g id="node12" class="node"><title>S&#45;I</title>
<polygon fill="lightgrey" stroke="lightgrey" points="-77.1806,-28.8586 -108.185,-10.8586 -77.1806,7.14139 -46.176,-10.8586 -77.1806,-28.8586"/>
<text text-anchor="middle" x="-77.1806" y="-7.15861" font-family="Times New Roman,serif" font-size="14.00">S&#45;I</text>
</g>
<!-- institute&#45;&#45;S&#45;I -->
<g id="edge6" class="edge"><title>institute&#45;&#45;S&#45;I</title>
<path fill="none" stroke="black" d="M-55.1061,-69.4945C-60.119,-56.1791 -66.8361,-38.3367 -71.5392,-25.8438"/>
<text text-anchor="middle" x="-66.8227" y="-51.4691" font-family="Times New Roman,serif" font-size="14.00">1</text>
</g>
<!-- student -->
<g id="node3" class="node"><title>student</title>
<polygon fill="none" stroke="black" points="-13.1816,48.1705 -70.1816,48.1705 -70.1816,84.1705 -13.1816,84.1705 -13.1816,48.1705"/>
<text text-anchor="middle" x="-41.6816" y="69.8705" font-family="Times New Roman,serif" font-size="14.00">student</text>
</g>
<!-- name2 -->
<g id="node6" class="node"><title>name2</title>
<ellipse fill="none" stroke="black" cx="-124.542" cy="77.2328" rx="29.795" ry="18"/>
<text text-anchor="middle" x="-124.542" y="80.9328" font-family="Times New Roman,serif" font-size="14.00">name</text>
</g>
<!-- student&#45;&#45;name2 -->
<g id="edge9" class="edge"><title>student&#45;&#45;name2</title>
<path fill="none" stroke="black" d="M-70.1973,69.9775C-78.2492,71.0525 -87.0242,72.224 -95.1278,73.3059"/>
</g>
<!-- grade -->
<g id="node8" class="node"><title>grade</title>
<ellipse fill="none" stroke="black" cx="-1.75067" cy="139.813" rx="30.5947" ry="18"/>
<text text-anchor="middle" x="-1.75067" y="143.513" font-family="Times New Roman,serif" font-size="14.00">grade</text>
</g>
<!-- student&#45;&#45;grade -->
<g id="edge8" class="edge"><title>student&#45;&#45;grade</title>
<path fill="none" stroke="black" d="M-31.811,84.3743C-25.5291,95.9597 -17.4379,110.882 -11.2327,122.326"/>
</g>
<!-- number -->
<g id="node9" class="node"><title>number</title>
<ellipse fill="none" stroke="black" cx="-77.7046" cy="138.365" rx="38.1938" ry="18"/>
<text text-anchor="middle" x="-77.7046" y="142.065" font-family="Times New Roman,serif" font-size="14.00">number</text>
</g>
<!-- student&#45;&#45;number -->
<g id="edge10" class="edge"><title>student&#45;&#45;number</title>
<path fill="none" stroke="black" d="M-50.7717,84.3881C-56.2742,95.4158 -63.2629,109.422 -68.7422,120.403"/>
</g>
<!-- S&#45;C -->
<g id="node11" class="node"><title>S&#45;C</title>
<polygon fill="lightgrey" stroke="lightgrey" points="38.268,20.0101 2.57309,38.0101 38.268,56.0101 73.9629,38.0101 38.268,20.0101"/>
<text text-anchor="middle" x="38.268" y="41.7101" font-family="Times New Roman,serif" font-size="14.00">S&#45;C</text>
</g>
<!-- student&#45;&#45;S&#45;C -->
<g id="edge11" class="edge"><title>student&#45;&#45;S&#45;C</title>
<path fill="none" stroke="black" d="M-12.8179,56.0039C-2.97784,52.538 7.83799,48.7284 16.9742,45.5103"/>
<text text-anchor="middle" x="-3.42185" y="46.9571" font-family="Times New Roman,serif" font-size="14.00">m</text>
</g>
<!-- name0 -->
<g id="node4" class="node"><title>name0</title>
<ellipse fill="none" stroke="black" cx="144.953" cy="-86.1968" rx="29.795" ry="18"/>
<text text-anchor="middle" x="144.953" y="-82.4968" font-family="Times New Roman,serif" font-size="14.00">name</text>
</g>
<!-- name0&#45;&#45;course -->
<g id="edge1" class="edge"><title>name0&#45;&#45;course</title>
<path fill="none" stroke="black" d="M128.992,-70.9625C121.831,-64.1276 113.322,-56.0064 105.81,-48.8358"/>
</g>
<!-- code -->
<g id="node7" class="node"><title>code</title>
<ellipse fill="none" stroke="black" cx="160.502" cy="4.62428" rx="28.6953" ry="18"/>
<text text-anchor="middle" x="160.502" y="8.32428" font-family="Times New Roman,serif" font-size="14.00">code</text>
</g>
<!-- code&#45;&#45;course -->
<g id="edge2" class="edge"><title>code&#45;&#45;course</title>
<path fill="none" stroke="black" d="M137.506,-6.27983C129.958,-9.8589 121.499,-13.8702 113.674,-17.5806"/>
</g>
<!-- C&#45;I&#45;&#45;institute -->
<g id="edge4" class="edge"><title>C&#45;I&#45;&#45;institute</title>
<path fill="none" stroke="black" d="M6.42628,-93.5379C-1.58435,-92.6835 -10.3833,-91.7451 -18.5368,-90.8754"/>
<text text-anchor="middle" x="-9.55527" y="-96.0067" font-family="Times New Roman,serif" font-size="14.00">1</text>
</g>
<!-- S&#45;C&#45;&#45;course -->
<g id="edge12" class="edge"><title>S&#45;C&#45;&#45;course</title>
<path fill="none" stroke="black" d="M47.8055,24.4854C55.2245,13.9649 65.5912,-0.735636 73.7336,-12.2819"/>
<text text-anchor="middle" x="57.2695" y="2.30178" font-family="Times New Roman,serif" font-size="14.00">n</text>
</g>
<!-- S&#45;I&#45;&#45;student -->
<g id="edge7" class="edge"><title>S&#45;I&#45;&#45;student</title>
<path fill="none" stroke="black" d="M-70.5035,3.62997C-64.7192,16.1813 -56.3228,34.4006 -50.0831,47.9401"/>
<text text-anchor="middle" x="-63.7933" y="21.985" font-family="Times New Roman,serif" font-size="14.00">n</text>
</g>
</g>
</svg>
