<?xml version="1.0" encoding="UTF-8" standalone="no"?>
<!DOCTYPE svg PUBLIC "-//W3C//DTD SVG 1.1//EN"
 "http://www.w3.org/Graphics/SVG/1.1/DTD/svg11.dtd">
<!-- Generated by graphviz version 2.44.1 (20200629.0846)
 -->
<!-- Title: ER Pages: 1 -->
<svg width="352pt" height="436pt"
 viewBox="0.00 0.00 351.54 436.37" xmlns="http://www.w3.org/2000/svg" xmlns:xlink="http://www.w3.org/1999/xlink">
<g id="graph0" class="graph" transform="scale(1 1) rotate(0) translate(4 432.37)">
<title>ER</title>
<polygon fill="white" stroke="transparent" points="-4,4 -4,-432.37 347.54,-432.37 347.54,4 -4,4"/>
<text text-anchor="middle" x="171.77" y="-32" font-family="Times New Roman,serif" font-size="20.00">Entity Relation Diagram</text>
<text text-anchor="middle" x="171.77" y="-10" font-family="Times New Roman,serif" font-size="20.00">drawn by NEATO</text>
<!-- course -->
<g id="node1" class="node">
<title>course</title>
<polygon fill="none" stroke="black" points="267.98,-306.26 213.98,-306.26 213.98,-270.26 267.98,-270.26 267.98,-306.26"/>
<text text-anchor="middle" x="240.98" y="-284.56" font-family="Times New Roman,serif" font-size="14.00">course</text>
</g>
<!-- C&#45;I -->
<g id="node10" class="node">
<title>C&#45;I</title>
<polygon fill="lightgrey" stroke="lightgrey" points="188.16,-372.26 155.82,-354.26 188.16,-336.26 220.5,-354.26 188.16,-372.26"/>
<text text-anchor="middle" x="188.16" y="-350.56" font-family="Times New Roman,serif" font-size="14.00">C&#45;I</text>
</g>
<!-- course&#45;&#45;C&#45;I -->
<g id="edge3" class="edge">
<title>course&#45;&#45;C&#45;I</title>
<path fill="none" stroke="black" d="M226.55,-306.29C217.63,-317.44 206.4,-331.47 198.39,-341.48"/>
<text text-anchor="middle" x="208.97" y="-312.69" font-family="Times New Roman,serif" font-size="14.00">n</text>
</g>
<!-- institute -->
<g id="node2" class="node">
<title>institute</title>
<polygon fill="none" stroke="black" points="135.69,-363.52 76.69,-363.52 76.69,-327.52 135.69,-327.52 135.69,-363.52"/>
<text text-anchor="middle" x="106.19" y="-341.82" font-family="Times New Roman,serif" font-size="14.00">institute</text>
</g>
<!-- name1 -->
<g id="node5" class="node">
<title>name1</title>
<ellipse fill="none" stroke="black" cx="61.56" cy="-410.37" rx="29.8" ry="18"/>
<text text-anchor="middle" x="61.56" y="-406.67" font-family="Times New Roman,serif" font-size="14.00">name</text>
</g>
<!-- institute&#45;&#45;name1 -->
<g id="edge5" class="edge">
<title>institute&#45;&#45;name1</title>
<path fill="none" stroke="black" d="M93.76,-363.58C87.26,-373.03 79.36,-384.51 73.01,-393.74"/>
</g>
<!-- S&#45;I -->
<g id="node12" class="node">
<title>S&#45;I</title>
<polygon fill="lightgrey" stroke="lightgrey" points="77.26,-286.67 46.25,-268.67 77.26,-250.67 108.26,-268.67 77.26,-286.67"/>
<text text-anchor="middle" x="77.26" y="-264.97" font-family="Times New Roman,serif" font-size="14.00">S&#45;I</text>
</g>
<!-- institute&#45;&#45;S&#45;I -->
<g id="edge6" class="edge">
<title>institute&#45;&#45;S&#45;I</title>
<path fill="none" stroke="black" d="M99.33,-327.31C94.32,-313.99 87.6,-296.15 82.9,-283.66"/>
<text text-anchor="middle" x="87.62" y="-309.28" font-family="Times New Roman,serif" font-size="14.00">1</text>
</g>
<!-- student -->
<g id="node3" class="node">
<title>student</title>
<polygon fill="none" stroke="black" points="141.26,-209.64 84.26,-209.64 84.26,-173.64 141.26,-173.64 141.26,-209.64"/>
<text text-anchor="middle" x="112.76" y="-187.94" font-family="Times New Roman,serif" font-size="14.00">student</text>
</g>
<!-- name2 -->
<g id="node6" class="node">
<title>name2</title>
<ellipse fill="none" stroke="black" cx="29.9" cy="-180.58" rx="29.8" ry="18"/>
<text text-anchor="middle" x="29.9" y="-176.88" font-family="Times New Roman,serif" font-size="14.00">name</text>
</g>
<!-- student&#45;&#45;name2 -->
<g id="edge9" class="edge">
<title>student&#45;&#45;name2</title>
<path fill="none" stroke="black" d="M84.24,-187.84C76.19,-186.76 67.41,-185.59 59.31,-184.51"/>
</g>
<!-- grade -->
<g id="node8" class="node">
<title>grade</title>
<ellipse fill="none" stroke="black" cx="152.69" cy="-118" rx="30.59" ry="18"/>
<text text-anchor="middle" x="152.69" y="-114.3" font-family="Times New Roman,serif" font-size="14.00">grade</text>
</g>
<!-- student&#45;&#45;grade -->
<g id="edge8" class="edge">
<title>student&#45;&#45;grade</title>
<path fill="none" stroke="black" d="M122.63,-173.44C128.91,-161.85 137,-146.93 143.21,-135.49"/>
</g>
<!-- number -->
<g id="node9" class="node">
<title>number</title>
<ellipse fill="none" stroke="black" cx="76.73" cy="-119.45" rx="38.19" ry="18"/>
<text text-anchor="middle" x="76.73" y="-115.75" font-family="Times New Roman,serif" font-size="14.00">number</text>
</g>
<!-- student&#45;&#45;number -->
<g id="edge10" class="edge">
<title>student&#45;&#45;number</title>
<path fill="none" stroke="black" d="M103.67,-173.43C98.16,-162.4 91.18,-148.39 85.7,-137.41"/>
</g>
<!-- S&#45;C -->
<g id="node11" class="node">
<title>S&#45;C</title>
<polygon fill="lightgrey" stroke="lightgrey" points="192.71,-237.8 157.01,-219.8 192.71,-201.8 228.4,-219.8 192.71,-237.8"/>
<text text-anchor="middle" x="192.71" y="-216.1" font-family="Times New Roman,serif" font-size="14.00">S&#45;C</text>
</g>
<!-- student&#45;&#45;S&#45;C -->
<g id="edge11" class="edge">
<title>student&#45;&#45;S&#45;C</title>
<path fill="none" stroke="black" d="M141.62,-201.81C151.46,-205.28 162.28,-209.08 171.41,-212.3"/>
<text text-anchor="middle" x="151.02" y="-210.86" font-family="Times New Roman,serif" font-size="14.00">m</text>
</g>
<!-- name0 -->
<g id="node4" class="node">
<title>name0</title>
<ellipse fill="none" stroke="black" cx="299.39" cy="-344.01" rx="29.8" ry="18"/>
<text text-anchor="middle" x="299.39" y="-340.31" font-family="Times New Roman,serif" font-size="14.00">name</text>
</g>
<!-- name0&#45;&#45;course -->
<g id="edge1" class="edge">
<title>name0&#45;&#45;course</title>
<path fill="none" stroke="black" d="M283.43,-328.78C276.27,-321.94 267.76,-313.82 260.25,-306.65"/>
</g>
<!-- code -->
<g id="node7" class="node">
<title>code</title>
<ellipse fill="none" stroke="black" cx="314.94" cy="-253.19" rx="28.7" ry="18"/>
<text text-anchor="middle" x="314.94" y="-249.49" font-family="Times New Roman,serif" font-size="14.00">code</text>
</g>
<!-- code&#45;&#45;course -->
<g id="edge2" class="edge">
<title>code&#45;&#45;course</title>
<path fill="none" stroke="black" d="M291.95,-264.09C284.4,-267.67 275.94,-271.68 268.11,-275.39"/>
</g>
<!-- C&#45;I&#45;&#45;institute -->
<g id="edge4" class="edge">
<title>C&#45;I&#45;&#45;institute</title>
<path fill="none" stroke="black" d="M160.87,-351.35C152.85,-350.5 144.06,-349.56 135.9,-348.69"/>
<text text-anchor="middle" x="144.88" y="-353.82" font-family="Times New Roman,serif" font-size="14.00">1</text>
</g>
<!-- S&#45;C&#45;&#45;course -->
<g id="edge12" class="edge">
<title>S&#45;C&#45;&#45;course</title>
<path fill="none" stroke="black" d="M202.24,-233.33C209.66,-243.85 220.03,-258.55 228.17,-270.1"/>
<text text-anchor="middle" x="211.71" y="-255.51" font-family="Times New Roman,serif" font-size="14.00">n</text>
</g>
<!-- S&#45;I&#45;&#45;student -->
<g id="edge7" class="edge">
<title>S&#45;I&#45;&#45;student</title>
<path fill="none" stroke="black" d="M83.94,-254.18C89.72,-241.63 98.12,-223.41 104.36,-209.87"/>
<text text-anchor="middle" x="90.65" y="-235.83" font-family="Times New Roman,serif" font-size="14.00">n</text>
</g>
</g>
</svg>
