<?xml version="1.0" encoding="UTF-8" standalone="no"?>
<!DOCTYPE svg PUBLIC "-//W3C//DTD SVG 1.1//EN"
 "http://www.w3.org/Graphics/SVG/1.1/DTD/svg11.dtd">
<!-- Generated by graphviz version 2.44.1 (20200629.0846)
 -->
<!-- Title: G Pages: 1 -->
<svg width="376pt" height="298pt"
 viewBox="0.00 0.00 376.00 298.00" xmlns="http://www.w3.org/2000/svg" xmlns:xlink="http://www.w3.org/1999/xlink">
<g id="graph0" class="graph" transform="scale(1 1) rotate(0) translate(4 294)">
<title>G</title>
<polygon fill="white" stroke="transparent" points="-4,4 -4,-294 372,-294 372,4 -4,4"/>
<g id="clust1" class="cluster">
<title>clusterA</title>
<polygon fill="none" stroke="black" points="0.02,0.36 0.02,-214.64 187.02,-214.64 187.02,0.36 0.02,0.36"/>
</g>
<g id="clust2" class="cluster">
<title>clusterC</title>
<polygon fill="none" stroke="black" points="108.23,-107.64 108.23,-206.64 179.23,-206.64 179.23,-107.64 108.23,-107.64"/>
</g>
<g id="clust3" class="cluster">
<title>clusterB</title>
<polygon fill="none" stroke="black" points="200.19,-193.25 200.19,-290.25 311.19,-290.25 311.19,-193.25 200.19,-193.25"/>
</g>
<!-- e -->
<g id="node1" class="node">
<title>e</title>
<ellipse fill="none" stroke="black" cx="340.72" cy="-129.63" rx="27" ry="18"/>
<text text-anchor="middle" x="340.72" y="-125.93" font-family="Times New Roman,serif" font-size="14.00">e</text>
</g>
<!-- __0:clusterB -->
<!-- e&#45;&#45;__0:clusterB -->
<g id="edge7" class="edge">
<title>e&#45;&#45;__0:clusterB</title>
<path fill="none" stroke="black" d="M328.53,-145.69C319.07,-158.17 305.43,-176.15 292.51,-193.19"/>
</g>
<!-- a -->
<g id="node2" class="node">
<title>a</title>
<ellipse fill="none" stroke="black" cx="34.58" cy="-26.01" rx="27" ry="18"/>
<text text-anchor="middle" x="34.58" y="-22.31" font-family="Times New Roman,serif" font-size="14.00">a</text>
</g>
<!-- b -->
<g id="node3" class="node">
<title>b</title>
<ellipse fill="none" stroke="black" cx="71.05" cy="-72.56" rx="27" ry="18"/>
<text text-anchor="middle" x="71.05" y="-68.86" font-family="Times New Roman,serif" font-size="14.00">b</text>
</g>
<!-- a&#45;&#45;b -->
<g id="edge1" class="edge">
<title>a&#45;&#45;b</title>
<path fill="none" stroke="black" d="M47.13,-42.03C50.76,-46.66 54.72,-51.71 58.36,-56.36"/>
</g>
<!-- C -->
<g id="node4" class="node">
<title>C</title>
<ellipse fill="none" stroke="black" cx="143.34" cy="-180.22" rx="27" ry="18"/>
<text text-anchor="middle" x="143.34" y="-176.52" font-family="Times New Roman,serif" font-size="14.00">C</text>
</g>
<!-- D -->
<g id="node5" class="node">
<title>D</title>
<ellipse fill="none" stroke="black" cx="144.13" cy="-133.7" rx="27" ry="18"/>
<text text-anchor="middle" x="144.13" y="-130" font-family="Times New Roman,serif" font-size="14.00">D</text>
</g>
<!-- C&#45;&#45;D -->
<g id="edge2" class="edge">
<title>C&#45;&#45;D</title>
<path fill="none" stroke="black" d="M143.65,-162.1C143.7,-158.73 143.76,-155.21 143.82,-151.85"/>
</g>
<!-- d -->
<g id="node6" class="node">
<title>d</title>
<ellipse fill="none" stroke="black" cx="234.78" cy="-219.09" rx="27" ry="18"/>
<text text-anchor="middle" x="234.78" y="-215.39" font-family="Times New Roman,serif" font-size="14.00">d</text>
</g>
<!-- d&#45;&#45;D -->
<g id="edge4" class="edge">
<title>d&#45;&#45;D</title>
<path fill="none" stroke="black" d="M218.99,-204.22C202.35,-188.55 176.31,-164.01 159.74,-148.4"/>
</g>
<!-- f -->
<g id="node7" class="node">
<title>f</title>
<ellipse fill="none" stroke="black" cx="276.31" cy="-264.41" rx="27" ry="18"/>
<text text-anchor="middle" x="276.31" y="-260.71" font-family="Times New Roman,serif" font-size="14.00">f</text>
</g>
<!-- d&#45;&#45;f -->
<g id="edge3" class="edge">
<title>d&#45;&#45;f</title>
<path fill="none" stroke="black" d="M249.08,-234.69C253.3,-239.3 257.92,-244.34 262.14,-248.94"/>
</g>
<!-- __1:clusterC -->
<!-- __2:clusterB -->
<!-- __1:clusterC&#45;&#45;__2:clusterB -->
<g id="edge8" class="edge">
<title>__1:clusterC&#45;&#45;__2:clusterB</title>
<path fill="none" stroke="black" d="M179.47,-184.14C185.99,-189.08 192.94,-194.33 199.89,-199.58"/>
</g>
</g>
</svg>
