<?xml version="1.0" encoding="UTF-8" standalone="no"?>
<!DOCTYPE svg PUBLIC "-//W3C//DTD SVG 1.1//EN"
 "http://www.w3.org/Graphics/SVG/1.1/DTD/svg11.dtd">
<!-- Generated by graphviz version 2.38.0 (20140413.2041)
 -->
<!-- Title: G Pages: 1 -->
<svg width="358pt" height="228pt"
 viewBox="0.00 0.00 358.00 228.00" xmlns="http://www.w3.org/2000/svg" xmlns:xlink="http://www.w3.org/1999/xlink">
<g id="graph0" class="graph" transform="scale(1 1) rotate(0) translate(4 224)">
<title>G</title>
<polygon fill="white" stroke="none" points="-4,4 -4,-224 354,-224 354,4 -4,4"/>
<g id="clust1" class="cluster"><title>clusterA</title>
<polygon fill="none" stroke="black" points="-0.286448,0.321491 -0.286448,-114.679 205.714,-114.679 205.714,0.321491 -0.286448,0.321491"/>
</g>
<g id="clust2" class="cluster"><title>clusterC</title>
<polygon fill="none" stroke="black" points="20.8944,-7.98378 20.8944,-106.984 91.8944,-106.984 91.8944,-7.98378 20.8944,-7.98378"/>
</g>
<g id="clust3" class="cluster"><title>clusterB</title>
<polygon fill="none" stroke="black" points="173.23,-122.813 173.23,-219.813 284.23,-219.813 284.23,-122.813 173.23,-122.813"/>
</g>
<!-- e -->
<g id="node1" class="node"><title>e</title>
<ellipse fill="none" stroke="black" cx="322.521" cy="-65.7223" rx="27" ry="18"/>
<text text-anchor="middle" x="322.521" y="-62.0223" font-family="Times New Roman,serif" font-size="14.00">e</text>
</g>
<!-- __0:clusterB -->
<!-- e&#45;&#45;__0:clusterB -->
<g id="edge7" class="edge"><title>e&#45;&#45;__0:clusterB</title>
<path fill="none" stroke="black" d="M308.682,-81.3026C298.898,-92.3171 285.209,-107.728 271.92,-122.69"/>
</g>
<!-- a -->
<g id="node2" class="node"><title>a</title>
<ellipse fill="none" stroke="black" cx="134.278" cy="-26.0511" rx="27" ry="18"/>
<text text-anchor="middle" x="134.278" y="-22.3511" font-family="Times New Roman,serif" font-size="14.00">a</text>
</g>
<!-- b -->
<g id="node3" class="node"><title>b</title>
<ellipse fill="none" stroke="black" cx="170.748" cy="-72.6047" rx="27" ry="18"/>
<text text-anchor="middle" x="170.748" y="-68.9047" font-family="Times New Roman,serif" font-size="14.00">b</text>
</g>
<!-- a&#45;&#45;b -->
<g id="edge1" class="edge"><title>a&#45;&#45;b</title>
<path fill="none" stroke="black" d="M146.829,-42.0722C150.455,-46.7013 154.415,-51.7557 158.05,-56.396"/>
</g>
<!-- C -->
<g id="node4" class="node"><title>C</title>
<ellipse fill="none" stroke="black" cx="55.9968" cy="-80.5593" rx="27" ry="18"/>
<text text-anchor="middle" x="55.9968" y="-76.8593" font-family="Times New Roman,serif" font-size="14.00">C</text>
</g>
<!-- D -->
<g id="node5" class="node"><title>D</title>
<ellipse fill="none" stroke="black" cx="56.7927" cy="-34.0413" rx="27" ry="18"/>
<text text-anchor="middle" x="56.7927" y="-30.3413" font-family="Times New Roman,serif" font-size="14.00">D</text>
</g>
<!-- C&#45;&#45;D -->
<g id="edge2" class="edge"><title>C&#45;&#45;D</title>
<path fill="none" stroke="black" d="M56.3068,-62.441C56.3644,-59.0736 56.4246,-55.5549 56.4823,-52.1866"/>
</g>
<!-- d -->
<g id="node6" class="node"><title>d</title>
<ellipse fill="none" stroke="black" cx="207.825" cy="-148.66" rx="27" ry="18"/>
<text text-anchor="middle" x="207.825" y="-144.96" font-family="Times New Roman,serif" font-size="14.00">d</text>
</g>
<!-- d&#45;&#45;D -->
<g id="edge4" class="edge"><title>d&#45;&#45;D</title>
<path fill="none" stroke="black" d="M189.906,-135.062C160.839,-113.002 103.74,-69.67 74.6878,-47.622"/>
</g>
<!-- f -->
<g id="node7" class="node"><title>f</title>
<ellipse fill="none" stroke="black" cx="249.356" cy="-193.971" rx="27" ry="18"/>
<text text-anchor="middle" x="249.356" y="-190.271" font-family="Times New Roman,serif" font-size="14.00">f</text>
</g>
<!-- d&#45;&#45;f -->
<g id="edge3" class="edge"><title>d&#45;&#45;f</title>
<path fill="none" stroke="black" d="M222.117,-164.254C226.341,-168.861 230.961,-173.902 235.177,-178.502"/>
</g>
<!-- __1:clusterC -->
<!-- __2:clusterB -->
<!-- __1:clusterC&#45;&#45;__2:clusterB -->
<g id="edge8" class="edge"><title>__1:clusterC&#45;&#45;__2:clusterB</title>
<path fill="none" stroke="black" d="M92.1025,-81.0693C115.468,-96.5027 146.478,-116.984 173.047,-134.534"/>
</g>
</g>
</svg>
