<?xml version="1.0" encoding="UTF-8" standalone="no"?>
<!DOCTYPE svg PUBLIC "-//W3C//DTD SVG 1.1//EN"
 "http://www.w3.org/Graphics/SVG/1.1/DTD/svg11.dtd">
<!-- Generated by graphviz version 2.38.0 (20140413.2041)
 -->
<!-- Title: finite_state_machine Pages: 1 -->
<svg width="576pt" height="258pt"
 viewBox="0.00 0.00 576.00 258.45" xmlns="http://www.w3.org/2000/svg" xmlns:xlink="http://www.w3.org/1999/xlink">
<g id="graph0" class="graph" transform="scale(0.769883 0.769883) rotate(0) translate(4 331.694)">
<title>finite_state_machine</title>
<polygon fill="white" stroke="none" points="-4,4 -4,-331.694 744.166,-331.694 744.166,4 -4,4"/>
<!-- LR_0 -->
<g id="node1" class="node"><title>LR_0</title>
<ellipse fill="none" stroke="black" cx="35.8472" cy="-106.847" rx="31.712" ry="31.712"/>
<ellipse fill="none" stroke="black" cx="35.8472" cy="-106.847" rx="35.695" ry="35.695"/>
<text text-anchor="middle" x="35.8472" y="-103.147" font-family="Times New Roman,serif" font-size="14.00">LR_0</text>
</g>
<!-- LR_2 -->
<g id="node5" class="node"><title>LR_2</title>
<ellipse fill="none" stroke="black" cx="174.542" cy="-146.847" rx="31.6951" ry="31.6951"/>
<text text-anchor="middle" x="174.542" y="-143.147" font-family="Times New Roman,serif" font-size="14.00">LR_2</text>
</g>
<!-- LR_0&#45;&gt;LR_2 -->
<g id="edge1" class="edge"><title>LR_0&#45;&gt;LR_2</title>
<path fill="none" stroke="black" d="M70.6368,-116.735C89.8449,-122.356 113.995,-129.422 134.071,-135.297"/>
<polygon fill="black" stroke="black" points="133.274,-138.711 143.855,-138.16 135.24,-131.992 133.274,-138.711"/>
<text text-anchor="middle" x="107.194" y="-135.647" font-family="Times New Roman,serif" font-size="14.00">SS(B)</text>
</g>
<!-- LR_1 -->
<g id="node6" class="node"><title>LR_1</title>
<ellipse fill="none" stroke="black" cx="174.542" cy="-54.8472" rx="31.6951" ry="31.6951"/>
<text text-anchor="middle" x="174.542" y="-51.1472" font-family="Times New Roman,serif" font-size="14.00">LR_1</text>
</g>
<!-- LR_0&#45;&gt;LR_1 -->
<g id="edge2" class="edge"><title>LR_0&#45;&gt;LR_1</title>
<path fill="none" stroke="black" d="M69.5889,-94.3919C89.2263,-86.9216 114.304,-77.3816 134.909,-69.5435"/>
<polygon fill="black" stroke="black" points="136.22,-72.7895 144.322,-65.9626 133.731,-66.2469 136.22,-72.7895"/>
<text text-anchor="middle" x="107.194" y="-89.6472" font-family="Times New Roman,serif" font-size="14.00">SS(S)</text>
</g>
<!-- LR_3 -->
<g id="node2" class="node"><title>LR_3</title>
<ellipse fill="none" stroke="black" cx="323.236" cy="-35.8472" rx="31.712" ry="31.712"/>
<ellipse fill="none" stroke="black" cx="323.236" cy="-35.8472" rx="35.695" ry="35.695"/>
<text text-anchor="middle" x="323.236" y="-32.1472" font-family="Times New Roman,serif" font-size="14.00">LR_3</text>
</g>
<!-- LR_4 -->
<g id="node3" class="node"><title>LR_4</title>
<ellipse fill="none" stroke="black" cx="323.236" cy="-291.847" rx="31.712" ry="31.712"/>
<ellipse fill="none" stroke="black" cx="323.236" cy="-291.847" rx="35.695" ry="35.695"/>
<text text-anchor="middle" x="323.236" y="-288.147" font-family="Times New Roman,serif" font-size="14.00">LR_4</text>
</g>
<!-- LR_8 -->
<g id="node4" class="node"><title>LR_8</title>
<ellipse fill="none" stroke="black" cx="704.319" cy="-147.847" rx="31.712" ry="31.712"/>
<ellipse fill="none" stroke="black" cx="704.319" cy="-147.847" rx="35.695" ry="35.695"/>
<text text-anchor="middle" x="704.319" y="-144.147" font-family="Times New Roman,serif" font-size="14.00">LR_8</text>
</g>
<!-- LR_6 -->
<g id="node7" class="node"><title>LR_6</title>
<ellipse fill="none" stroke="black" cx="323.236" cy="-172.847" rx="31.6951" ry="31.6951"/>
<text text-anchor="middle" x="323.236" y="-169.147" font-family="Times New Roman,serif" font-size="14.00">LR_6</text>
</g>
<!-- LR_8&#45;&gt;LR_6 -->
<g id="edge13" class="edge"><title>LR_8&#45;&gt;LR_6</title>
<path fill="none" stroke="black" d="M669.127,-154.782C625.934,-163.158 549.217,-176.756 482.777,-181.847 454.552,-184.01 447.36,-183.186 419.083,-181.847 401.296,-181.005 381.696,-179.28 364.953,-177.563"/>
<polygon fill="black" stroke="black" points="365.251,-174.075 354.939,-176.503 364.515,-181.036 365.251,-174.075"/>
<text text-anchor="middle" x="513.277" y="-184.647" font-family="Times New Roman,serif" font-size="14.00">S(b)</text>
</g>
<!-- LR_5 -->
<g id="node8" class="node"><title>LR_5</title>
<ellipse fill="none" stroke="black" cx="450.93" cy="-107.847" rx="31.6951" ry="31.6951"/>
<text text-anchor="middle" x="450.93" y="-104.147" font-family="Times New Roman,serif" font-size="14.00">LR_5</text>
</g>
<!-- LR_8&#45;&gt;LR_5 -->
<g id="edge14" class="edge"><title>LR_8&#45;&gt;LR_5</title>
<path fill="none" stroke="black" d="M668.545,-142.414C628.191,-136.095 559.65,-125.319 500.777,-115.847 498.086,-115.414 495.312,-114.966 492.517,-114.512"/>
<polygon fill="black" stroke="black" points="492.845,-111.02 482.413,-112.867 491.72,-117.929 492.845,-111.02"/>
<text text-anchor="middle" x="575.625" y="-137.647" font-family="Times New Roman,serif" font-size="14.00">S(a)</text>
</g>
<!-- LR_2&#45;&gt;LR_4 -->
<g id="edge6" class="edge"><title>LR_2&#45;&gt;LR_4</title>
<path fill="none" stroke="black" d="M197.821,-168.87C222.322,-193.087 261.915,-232.223 289.846,-259.831"/>
<polygon fill="black" stroke="black" points="287.463,-262.397 297.035,-266.938 292.384,-257.418 287.463,-262.397"/>
<text text-anchor="middle" x="246.889" y="-239.647" font-family="Times New Roman,serif" font-size="14.00">S(A)</text>
</g>
<!-- LR_2&#45;&gt;LR_6 -->
<g id="edge4" class="edge"><title>LR_2&#45;&gt;LR_6</title>
<path fill="none" stroke="black" d="M205.937,-152.234C227.893,-156.126 257.777,-161.422 281.754,-165.672"/>
<polygon fill="black" stroke="black" points="281.17,-169.123 291.628,-167.422 282.392,-162.231 281.17,-169.123"/>
<text text-anchor="middle" x="246.889" y="-167.647" font-family="Times New Roman,serif" font-size="14.00">SS(b)</text>
</g>
<!-- LR_2&#45;&gt;LR_5 -->
<g id="edge5" class="edge"><title>LR_2&#45;&gt;LR_5</title>
<path fill="none" stroke="black" d="M205.087,-137.127C227.428,-130.219 259.001,-121.39 287.389,-116.847 328.309,-110.299 375.679,-108.299 408.684,-107.786"/>
<polygon fill="black" stroke="black" points="408.911,-111.284 418.87,-107.668 408.829,-104.284 408.911,-111.284"/>
<text text-anchor="middle" x="323.236" y="-120.647" font-family="Times New Roman,serif" font-size="14.00">SS(a)</text>
</g>
<!-- LR_1&#45;&gt;LR_3 -->
<g id="edge3" class="edge"><title>LR_1&#45;&gt;LR_3</title>
<path fill="none" stroke="black" d="M206.293,-50.8642C226.839,-48.2031 254.208,-44.6582 277.196,-41.6808"/>
<polygon fill="black" stroke="black" points="277.941,-45.1136 287.409,-40.358 277.042,-38.1716 277.941,-45.1136"/>
<text text-anchor="middle" x="246.889" y="-52.6472" font-family="Times New Roman,serif" font-size="14.00">S($end)</text>
</g>
<!-- LR_6&#45;&gt;LR_6 -->
<g id="edge9" class="edge"><title>LR_6&#45;&gt;LR_6</title>
<path fill="none" stroke="black" d="M311.262,-202.528C310.87,-213.589 314.861,-222.694 323.236,-222.694 328.863,-222.694 332.511,-218.584 334.18,-212.532"/>
<polygon fill="black" stroke="black" points="337.667,-212.834 335.21,-202.528 330.704,-212.117 337.667,-212.834"/>
<text text-anchor="middle" x="323.236" y="-226.494" font-family="Times New Roman,serif" font-size="14.00">S(b)</text>
</g>
<!-- LR_6&#45;&gt;LR_5 -->
<g id="edge10" class="edge"><title>LR_6&#45;&gt;LR_5</title>
<path fill="none" stroke="black" d="M351.82,-158.583C369.912,-149.227 393.768,-136.89 413.426,-126.724"/>
<polygon fill="black" stroke="black" points="415.136,-129.781 422.41,-122.078 411.92,-123.563 415.136,-129.781"/>
<text text-anchor="middle" x="389.083" y="-148.647" font-family="Times New Roman,serif" font-size="14.00">S(a)</text>
</g>
<!-- LR_5&#45;&gt;LR_5 -->
<g id="edge8" class="edge"><title>LR_5&#45;&gt;LR_5</title>
<path fill="none" stroke="black" d="M439.691,-138.022C439.45,-148.859 443.196,-157.694 450.93,-157.694 456.006,-157.694 459.364,-153.889 461.005,-148.211"/>
<polygon fill="black" stroke="black" points="464.511,-148.355 462.169,-138.022 457.556,-147.56 464.511,-148.355"/>
<text text-anchor="middle" x="450.93" y="-161.494" font-family="Times New Roman,serif" font-size="14.00">S(a)</text>
</g>
<!-- LR_7 -->
<g id="node9" class="node"><title>LR_7</title>
<ellipse fill="none" stroke="black" cx="575.625" cy="-79.8472" rx="31.6951" ry="31.6951"/>
<text text-anchor="middle" x="575.625" y="-76.1472" font-family="Times New Roman,serif" font-size="14.00">LR_7</text>
</g>
<!-- LR_5&#45;&gt;LR_7 -->
<g id="edge7" class="edge"><title>LR_5&#45;&gt;LR_7</title>
<path fill="none" stroke="black" d="M482.259,-100.926C497.891,-97.3585 517.169,-92.959 534.063,-89.1037"/>
<polygon fill="black" stroke="black" points="535.249,-92.4232 544.219,-86.7859 533.691,-85.5986 535.249,-92.4232"/>
<text text-anchor="middle" x="513.277" y="-100.647" font-family="Times New Roman,serif" font-size="14.00">S(b)</text>
</g>
<!-- LR_7&#45;&gt;LR_8 -->
<g id="edge11" class="edge"><title>LR_7&#45;&gt;LR_8</title>
<path fill="none" stroke="black" d="M604.384,-94.3732C618.255,-101.666 635.28,-110.668 650.472,-118.847 654.739,-121.145 659.192,-123.56 663.624,-125.976"/>
<polygon fill="black" stroke="black" points="662.172,-129.17 672.625,-130.896 665.529,-123.028 662.172,-129.17"/>
<text text-anchor="middle" x="637.972" y="-122.647" font-family="Times New Roman,serif" font-size="14.00">S(b)</text>
</g>
<!-- LR_7&#45;&gt;LR_5 -->
<g id="edge12" class="edge"><title>LR_7&#45;&gt;LR_5</title>
<path fill="none" stroke="black" d="M544.569,-71.6302C530.928,-69.2535 514.755,-68.3565 500.777,-72.8472 494.781,-74.7738 488.895,-77.7384 483.403,-81.1443"/>
<polygon fill="black" stroke="black" points="481.431,-78.2524 475.135,-86.7737 485.371,-84.0385 481.431,-78.2524"/>
<text text-anchor="middle" x="513.277" y="-76.6472" font-family="Times New Roman,serif" font-size="14.00">S(a)</text>
</g>
</g>
</svg>
