<?xml version="1.0" encoding="UTF-8" standalone="no"?>
<!DOCTYPE svg PUBLIC "-//W3C//DTD SVG 1.1//EN"
 "http://www.w3.org/Graphics/SVG/1.1/DTD/svg11.dtd">
<!-- Generated by graphviz version 2.44.1 (20200629.0846)
 -->
<!-- Title: ni Pages: 1 -->
<svg width="522pt" height="105pt"
 viewBox="0.00 0.00 522.37 105.43" xmlns="http://www.w3.org/2000/svg" xmlns:xlink="http://www.w3.org/1999/xlink">
<g id="graph0" class="graph" transform="scale(1 1) rotate(0) translate(4 101.43)">
<title>ni</title>
<polygon fill="white" stroke="transparent" points="-4,4 -4,-101.43 518.37,-101.43 518.37,4 -4,4"/>
<!-- 1 -->
<g id="node1" class="node">
<title>1</title>
<polygon fill="none" stroke="black" points="36,-60.71 0,-60.71 0,-36.71 36,-36.71 36,-30.71 54,-48.71 36,-66.71 36,-60.71"/>
<text text-anchor="middle" x="27" y="-45.01" font-family="Times New Roman,serif" font-size="14.00">Ni!</text>
</g>
<!-- 2 -->
<g id="node2" class="node">
<title>2</title>
<polygon fill="none" stroke="black" points="126,-60.71 90,-60.71 90,-36.71 126,-36.71 126,-30.71 144,-48.71 126,-66.71 126,-60.71"/>
<text text-anchor="middle" x="117" y="-45.01" font-family="Times New Roman,serif" font-size="14.00">Ni!</text>
</g>
<!-- 1&#45;&#45;2 -->
<g id="edge1" class="edge">
<title>1&#45;&#45;2</title>
<path fill="none" stroke="black" d="M54.4,-48.71C65.64,-48.71 78.72,-48.71 89.92,-48.71"/>
</g>
<!-- 3 -->
<g id="node3" class="node">
<title>3</title>
<polygon fill="none" stroke="black" points="211.43,-30.76 213.2,-30.86 214.96,-31.01 216.69,-31.21 218.39,-31.45 220.05,-31.74 221.67,-32.08 223.23,-32.46 224.73,-32.89 226.17,-33.36 227.54,-33.88 228.84,-34.43 230.06,-35.02 231.2,-35.65 232.25,-36.32 233.22,-37.02 234.09,-37.75 234.87,-38.52 235.56,-39.31 236.15,-40.12 236.65,-40.96 237.05,-41.82 237.36,-42.7 237.58,-43.6 237.7,-44.51 237.73,-45.43 237.68,-46.36 237.54,-47.3 237.31,-48.24 237.01,-49.19 236.63,-50.13 236.18,-51.07 235.66,-52 235.08,-52.92 234.43,-53.83 233.72,-54.73 232.97,-55.61 232.16,-56.47 231.3,-57.31 230.41,-58.12 229.48,-58.91 228.51,-59.68 227.51,-60.41 226.48,-61.11 225.43,-61.78 224.35,-62.41 223.26,-63 222.15,-63.55 221.02,-64.07 219.89,-64.54 218.74,-64.97 217.58,-65.35 216.42,-65.69 215.24,-65.98 214.07,-66.22 212.89,-66.42 211.71,-66.57 210.52,-66.67 209.34,-66.71 208.15,-66.71 206.96,-66.67 205.78,-66.57 204.6,-66.42 203.42,-66.22 202.24,-65.98 201.07,-65.69 199.91,-65.35 198.75,-64.97 197.6,-64.54 196.46,-64.07 195.34,-63.55 194.23,-63 193.13,-62.41 192.06,-61.78 191.01,-61.11 189.98,-60.41 188.98,-59.68 188.01,-58.91 187.08,-58.12 186.18,-57.31 185.33,-56.47 184.52,-55.61 183.76,-54.73 183.06,-53.83 182.41,-52.92 181.83,-52 181.3,-51.07 180.85,-50.13 180.47,-49.19 180.17,-48.24 179.95,-47.3 179.81,-46.36 179.75,-45.43 179.79,-44.51 179.91,-43.6 180.13,-42.7 180.43,-41.82 180.84,-40.96 181.34,-40.12 181.93,-39.31 182.62,-38.52 183.4,-37.75 184.27,-37.02 185.24,-36.32 186.29,-35.65 187.43,-35.02 188.65,-34.43 189.94,-33.88 191.31,-33.36 192.75,-32.89 194.26,-32.46 195.82,-32.08 197.44,-31.74 199.1,-31.45 200.79,-31.21 202.53,-31.01 204.28,-30.86 206.06,-30.76 207.85,-30.71 209.64,-30.71 211.43,-30.76"/>
<text text-anchor="middle" x="208.74" y="-45.01" font-family="Times New Roman,serif" font-size="14.00">Ni!</text>
</g>
<!-- 2&#45;&#45;3 -->
<g id="edge2" class="edge">
<title>2&#45;&#45;3</title>
<path fill="none" stroke="black" d="M144.44,-48.71C155.71,-48.71 168.86,-48.71 180.25,-48.71"/>
</g>
<!-- 4 -->
<g id="node4" class="node">
<title>4</title>
<polygon fill="none" stroke="black" points="376.15,-60.27 336.85,-60.27 324.71,-97.65 312.56,-60.27 273.26,-60.27 305.06,-37.16 292.91,0.22 324.71,-22.89 356.5,0.22 344.36,-37.16 376.15,-60.27"/>
<text text-anchor="middle" x="324.71" y="-45.01" font-family="Times New Roman,serif" font-size="14.00">Ni!</text>
</g>
<!-- 3&#45;&#45;4 -->
<g id="edge3" class="edge">
<title>3&#45;&#45;4</title>
<path fill="none" stroke="black" d="M237.33,-48.71C252.88,-48.71 272.44,-48.71 289.02,-48.71"/>
</g>
<!-- 5 -->
<g id="node5" class="node">
<title>5</title>
<polygon fill="none" stroke="black" points="514.6,-60.27 475.3,-60.27 463.15,-97.65 451.01,-60.27 411.71,-60.27 443.5,-37.16 431.36,0.22 463.15,-22.89 494.95,0.22 482.8,-37.16 514.6,-60.27"/>
<text text-anchor="middle" x="463.15" y="-45.01" font-family="Times New Roman,serif" font-size="14.00">Ni!</text>
</g>
<!-- 4&#45;&#45;5 -->
<g id="edge4" class="edge">
<title>4&#45;&#45;5</title>
<path fill="none" stroke="black" d="M360.14,-48.71C380.82,-48.71 407.05,-48.71 427.73,-48.71"/>
</g>
</g>
</svg>
