<?xml version="1.0" encoding="UTF-8" standalone="no"?>
<!DOCTYPE svg PUBLIC "-//W3C//DTD SVG 1.1//EN"
 "http://www.w3.org/Graphics/SVG/1.1/DTD/svg11.dtd">
<!-- Generated by graphviz version 2.38.0 (20140413.2041)
 -->
<!-- Title: ni Pages: 1 -->
<svg width="522pt" height="105pt"
 viewBox="0.00 0.00 522.37 105.43" xmlns="http://www.w3.org/2000/svg" xmlns:xlink="http://www.w3.org/1999/xlink">
<g id="graph0" class="graph" transform="scale(1 1) rotate(0) translate(4 101.43)">
<title>ni</title>
<polygon fill="white" stroke="none" points="-4,4 -4,-101.43 518.374,-101.43 518.374,4 -4,4"/>
<!-- 1 -->
<g id="node1" class="node"><title>1</title>
<polygon fill="none" stroke="black" points="36,-60.7148 0,-60.7148 0,-36.7148 36,-36.7148 36,-30.7148 54,-48.7148 36,-66.7148 36,-60.7148"/>
<text text-anchor="middle" x="27" y="-45.0148" font-family="Times New Roman,serif" font-size="14.00">Ni!</text>
</g>
<!-- 2 -->
<g id="node2" class="node"><title>2</title>
<polygon fill="none" stroke="black" points="126,-60.7148 90,-60.7148 90,-36.7148 126,-36.7148 126,-30.7148 144,-48.7148 126,-66.7148 126,-60.7148"/>
<text text-anchor="middle" x="117" y="-45.0148" font-family="Times New Roman,serif" font-size="14.00">Ni!</text>
</g>
<!-- 1&#45;&#45;2 -->
<g id="edge1" class="edge"><title>1&#45;&#45;2</title>
<path fill="none" stroke="black" d="M54.4029,-48.7148C65.6421,-48.7148 78.7152,-48.7148 89.919,-48.7148"/>
</g>
<!-- 3 -->
<g id="node3" class="node"><title>3</title>
<polygon fill="none" stroke="black" points="211.426,-30.7641 213.202,-30.8627 214.96,-31.0101 216.692,-31.2061 218.391,-31.4501 220.052,-31.7414 221.666,-32.0792 223.228,-32.4627 224.732,-32.8907 226.172,-33.362 227.543,-33.8754 228.841,-34.4295 230.061,-35.0228 231.198,-35.6536 232.251,-36.3202 233.215,-37.0207 234.089,-37.7533 234.87,-38.516 235.558,-39.3066 236.151,-40.123 236.649,-40.9629 237.052,-41.8241 237.361,-42.7042 237.576,-43.6008 237.699,-44.5113 237.732,-45.4334 237.678,-46.3645 237.537,-47.302 237.315,-48.2434 237.012,-49.1861 236.633,-50.1275 236.182,-51.0651 235.662,-51.9961 235.076,-52.9182 234.429,-53.8288 233.724,-54.7254 232.966,-55.6054 232.158,-56.4666 231.305,-57.3066 230.409,-58.123 229.476,-58.9136 228.507,-59.6762 227.508,-60.4089 226.48,-61.1094 225.428,-61.776 224.353,-62.4068 223.26,-63 222.149,-63.5541 221.024,-64.0676 219.886,-64.5389 218.737,-64.9669 217.58,-65.3503 216.415,-65.6881 215.244,-65.9795 214.069,-66.2234 212.889,-66.4194 211.706,-66.5669 210.522,-66.6654 209.336,-66.7148 208.15,-66.7148 206.965,-66.6654 205.78,-66.5669 204.598,-66.4194 203.418,-66.2234 202.243,-65.9795 201.072,-65.6881 199.907,-65.3503 198.75,-64.9669 197.601,-64.5389 196.463,-64.0676 195.338,-63.5541 194.227,-63 193.134,-62.4068 192.059,-61.776 191.007,-61.1094 189.979,-60.4089 188.98,-59.6762 188.011,-58.9136 187.078,-58.123 186.182,-57.3066 185.329,-56.4666 184.521,-55.6054 183.763,-54.7254 183.058,-53.8288 182.411,-52.9182 181.825,-51.9961 181.305,-51.0651 180.853,-50.1275 180.475,-49.1861 180.172,-48.2434 179.949,-47.302 179.809,-46.3645 179.754,-45.4334 179.788,-44.5113 179.911,-43.6008 180.126,-42.7042 180.435,-41.8241 180.838,-40.9629 181.336,-40.123 181.929,-39.3066 182.617,-38.516 183.398,-37.7533 184.272,-37.0207 185.236,-36.3202 186.289,-35.6536 187.426,-35.0228 188.646,-34.4295 189.943,-33.8754 191.315,-33.362 192.755,-32.8907 194.259,-32.4627 195.821,-32.0792 197.435,-31.7414 199.095,-31.4501 200.795,-31.2061 202.527,-31.0101 204.285,-30.8627 206.061,-30.7641 207.848,-30.7148 209.639,-30.7148 211.426,-30.7641"/>
<text text-anchor="middle" x="208.743" y="-45.0148" font-family="Times New Roman,serif" font-size="14.00">Ni!</text>
</g>
<!-- 2&#45;&#45;3 -->
<g id="edge2" class="edge"><title>2&#45;&#45;3</title>
<path fill="none" stroke="black" d="M144.441,-48.7148C155.712,-48.7148 168.861,-48.7148 180.246,-48.7148"/>
</g>
<!-- 4 -->
<g id="node4" class="node"><title>4</title>
<polygon fill="none" stroke="black" points="376.153,-60.2657 336.853,-60.2657 324.709,-97.6453 312.564,-60.2657 273.264,-60.2657 305.059,-37.1639 292.914,0.215733 324.709,-22.8861 356.503,0.215733 344.359,-37.1639 376.153,-60.2657"/>
<text text-anchor="middle" x="324.709" y="-45.0148" font-family="Times New Roman,serif" font-size="14.00">Ni!</text>
</g>
<!-- 3&#45;&#45;4 -->
<g id="edge3" class="edge"><title>3&#45;&#45;4</title>
<path fill="none" stroke="black" d="M237.331,-48.7148C252.878,-48.7148 272.445,-48.7148 289.022,-48.7148"/>
</g>
<!-- 5 -->
<g id="node5" class="node"><title>5</title>
<polygon fill="none" stroke="black" points="514.597,-60.2657 475.297,-60.2657 463.152,-97.6453 451.008,-60.2657 411.708,-60.2657 443.502,-37.1639 431.358,0.215733 463.152,-22.8861 494.947,0.215733 482.802,-37.1639 514.597,-60.2657"/>
<text text-anchor="middle" x="463.152" y="-45.0148" font-family="Times New Roman,serif" font-size="14.00">Ni!</text>
</g>
<!-- 4&#45;&#45;5 -->
<g id="edge4" class="edge"><title>4&#45;&#45;5</title>
<path fill="none" stroke="black" d="M360.139,-48.7148C380.823,-48.7148 407.051,-48.7148 427.733,-48.7148"/>
</g>
</g>
</svg>
