<?xml version="1.0" encoding="UTF-8" standalone="no"?>
<!DOCTYPE svg PUBLIC "-//W3C//DTD SVG 1.1//EN"
 "http://www.w3.org/Graphics/SVG/1.1/DTD/svg11.dtd">
<!-- Generated by graphviz version 2.38.0 (20140413.2041)
 -->
<!-- Title: G Pages: 1 -->
<svg width="693pt" height="252pt"
 viewBox="0.00 0.00 693.30 251.93" xmlns="http://www.w3.org/2000/svg" xmlns:xlink="http://www.w3.org/1999/xlink">
<g id="graph0" class="graph" transform="scale(1 1) rotate(0) translate(4 247.926)">
<title>G</title>
<polygon fill="white" stroke="none" points="-4,4 -4,-247.926 689.304,-247.926 689.304,4 -4,4"/>
<!-- run -->
<g id="node1" class="node"><title>run</title>
<ellipse fill="none" stroke="black" cx="156.628" cy="-113.566" rx="27" ry="18"/>
<text text-anchor="middle" x="156.628" y="-109.866" font-family="Times New Roman,serif" font-size="14.00">run</text>
</g>
<!-- intr -->
<g id="node2" class="node"><title>intr</title>
<ellipse fill="none" stroke="black" cx="34.2576" cy="-75.4583" rx="27" ry="18"/>
<text text-anchor="middle" x="34.2576" y="-71.7583" font-family="Times New Roman,serif" font-size="14.00">intr</text>
</g>
<!-- run&#45;&#45;intr -->
<g id="edge1" class="edge"><title>run&#45;&#45;intr</title>
<path fill="none" stroke="black" d="M132.159,-105.946C110.955,-99.3429 80.4171,-89.8329 59.104,-83.1958"/>
</g>
<!-- kernel -->
<g id="node4" class="node"><title>kernel</title>
<ellipse fill="none" stroke="black" cx="350.756" cy="-125.195" rx="32.4942" ry="18"/>
<text text-anchor="middle" x="350.756" y="-121.495" font-family="Times New Roman,serif" font-size="14.00">kernel</text>
</g>
<!-- run&#45;&#45;kernel -->
<g id="edge4" class="edge"><title>run&#45;&#45;kernel</title>
<path fill="none" stroke="black" d="M183.621,-115.183C218.834,-117.292 280.394,-120.98 318.168,-123.243"/>
</g>
<!-- runbl -->
<g id="node3" class="node"><title>runbl</title>
<ellipse fill="none" stroke="black" cx="29.2474" cy="-153.272" rx="29.4969" ry="18"/>
<text text-anchor="middle" x="29.2474" y="-149.572" font-family="Times New Roman,serif" font-size="14.00">runbl</text>
</g>
<!-- intr&#45;&#45;runbl -->
<g id="edge2" class="edge"><title>intr&#45;&#45;runbl</title>
<path fill="none" stroke="black" d="M33.0956,-93.5059C32.2919,-105.987 31.2265,-122.534 30.4205,-135.053"/>
</g>
<!-- runbl&#45;&#45;run -->
<g id="edge3" class="edge"><title>runbl&#45;&#45;run</title>
<path fill="none" stroke="black" d="M55.6408,-145.045C78.0854,-138.049 110.071,-128.078 131.997,-121.244"/>
</g>
<!-- zombie -->
<g id="node5" class="node"><title>zombie</title>
<ellipse fill="none" stroke="black" cx="294.131" cy="-221.131" rx="37.0935" ry="18"/>
<text text-anchor="middle" x="294.131" y="-217.431" font-family="Times New Roman,serif" font-size="14.00">zombie</text>
</g>
<!-- kernel&#45;&#45;zombie -->
<g id="edge5" class="edge"><title>kernel&#45;&#45;zombie</title>
<path fill="none" stroke="black" d="M340.633,-142.346C330.389,-159.701 314.638,-186.388 304.357,-203.804"/>
</g>
<!-- sleep -->
<g id="node6" class="node"><title>sleep</title>
<ellipse fill="none" stroke="black" cx="482.705" cy="-58.875" rx="29.4969" ry="18"/>
<text text-anchor="middle" x="482.705" y="-55.175" font-family="Times New Roman,serif" font-size="14.00">sleep</text>
</g>
<!-- kernel&#45;&#45;sleep -->
<g id="edge6" class="edge"><title>kernel&#45;&#45;sleep</title>
<path fill="none" stroke="black" d="M374.958,-113.031C399.212,-100.84 436.262,-82.2182 459.98,-70.297"/>
</g>
<!-- runmem -->
<g id="node7" class="node"><title>runmem</title>
<ellipse fill="none" stroke="black" cx="519.307" cy="-154.788" rx="40.0939" ry="18"/>
<text text-anchor="middle" x="519.307" y="-151.088" font-family="Times New Roman,serif" font-size="14.00">runmem</text>
</g>
<!-- kernel&#45;&#45;runmem -->
<g id="edge7" class="edge"><title>kernel&#45;&#45;runmem</title>
<path fill="none" stroke="black" d="M382.064,-130.692C410.244,-135.639 451.711,-142.92 481.684,-148.182"/>
</g>
<!-- sleep&#45;&#45;runmem -->
<g id="edge13" class="edge"><title>sleep&#45;&#45;runmem</title>
<path fill="none" stroke="black" d="M489.419,-76.4669C495.981,-93.6645 505.922,-119.712 512.512,-136.983"/>
</g>
<!-- swap -->
<g id="node8" class="node"><title>swap</title>
<ellipse fill="none" stroke="black" cx="611.563" cy="-18" rx="29.795" ry="18"/>
<text text-anchor="middle" x="611.563" y="-14.3" font-family="Times New Roman,serif" font-size="14.00">swap</text>
</g>
<!-- sleep&#45;&#45;swap -->
<g id="edge8" class="edge"><title>sleep&#45;&#45;swap</title>
<path fill="none" stroke="black" d="M508.782,-50.6033C530.991,-43.5583 562.759,-33.481 585.083,-26.3997"/>
</g>
<!-- runswap -->
<g id="node9" class="node"><title>runswap</title>
<ellipse fill="none" stroke="black" cx="643.708" cy="-126.795" rx="41.6928" ry="18"/>
<text text-anchor="middle" x="643.708" y="-123.095" font-family="Times New Roman,serif" font-size="14.00">runswap</text>
</g>
<!-- swap&#45;&#45;runswap -->
<g id="edge9" class="edge"><title>swap&#45;&#45;runswap</title>
<path fill="none" stroke="black" d="M616.871,-35.9653C622.827,-56.1233 632.433,-88.6343 638.392,-108.803"/>
</g>
<!-- runswap&#45;&#45;runmem -->
<g id="edge11" class="edge"><title>runswap&#45;&#45;runmem</title>
<path fill="none" stroke="black" d="M606.72,-135.118C590.534,-138.76 571.605,-143.02 555.509,-146.642"/>
</g>
<!-- new -->
<g id="node10" class="node"><title>new</title>
<ellipse fill="none" stroke="black" cx="630.999" cy="-225.926" rx="27" ry="18"/>
<text text-anchor="middle" x="630.999" y="-222.226" font-family="Times New Roman,serif" font-size="14.00">new</text>
</g>
<!-- runswap&#45;&#45;new -->
<g id="edge10" class="edge"><title>runswap&#45;&#45;new</title>
<path fill="none" stroke="black" d="M641.377,-144.977C639.084,-162.864 635.603,-190.013 633.315,-207.859"/>
</g>
<!-- new&#45;&#45;runmem -->
<g id="edge12" class="edge"><title>new&#45;&#45;runmem</title>
<path fill="none" stroke="black" d="M611.288,-213.372C592.124,-201.166 563.012,-182.624 542.688,-169.68"/>
</g>
</g>
</svg>
