<?xml version="1.0" encoding="UTF-8" standalone="no"?>
<!DOCTYPE svg PUBLIC "-//W3C//DTD SVG 1.1//EN"
 "http://www.w3.org/Graphics/SVG/1.1/DTD/svg11.dtd">
<!-- Generated by graphviz version 2.38.0 (20140413.2041)
 -->
<!-- Title: %3 Pages: 1 -->
<svg width="206pt" height="188pt"
 viewBox="0.00 0.00 206.00 188.00" xmlns="http://www.w3.org/2000/svg" xmlns:xlink="http://www.w3.org/1999/xlink">
<g id="graph0" class="graph" transform="scale(1 1) rotate(0) translate(4 184)">
<title>%3</title>
<polygon fill="white" stroke="none" points="-4,4 -4,-184 202,-184 202,4 -4,4"/>
<!-- A -->
<g id="node1" class="node"><title>A</title>
<ellipse fill="none" stroke="black" cx="72" cy="-162" rx="27" ry="18"/>
<text text-anchor="middle" x="72" y="-158.3" font-family="Times New Roman,serif" font-size="14.00">A</text>
</g>
<!-- C -->
<g id="node3" class="node"><title>C</title>
<ellipse fill="none" stroke="black" cx="36" cy="-90" rx="27" ry="18"/>
<text text-anchor="middle" x="36" y="-86.3" font-family="Times New Roman,serif" font-size="14.00">C</text>
</g>
<!-- A&#45;&gt;C -->
<g id="edge2" class="edge"><title>A&#45;&gt;C</title>
<path fill="none" stroke="black" d="M63.6504,-144.765C59.2885,-136.283 53.8531,-125.714 48.9587,-116.197"/>
<polygon fill="black" stroke="black" points="51.9904,-114.439 44.3043,-107.147 45.7654,-117.641 51.9904,-114.439"/>
</g>
<!-- B -->
<g id="node4" class="node"><title>B</title>
<ellipse fill="none" stroke="black" cx="99" cy="-18" rx="27" ry="18"/>
<text text-anchor="middle" x="99" y="-14.3" font-family="Times New Roman,serif" font-size="14.00">B</text>
</g>
<!-- A&#45;&gt;B -->
<g id="edge1" class="edge"><title>A&#45;&gt;B</title>
<path fill="none" stroke="black" d="M75.2568,-143.871C79.8585,-119.67 88.312,-75.2108 93.7914,-46.3932"/>
<polygon fill="black" stroke="black" points="97.302,-46.6671 95.7316,-36.1893 90.4252,-45.3594 97.302,-46.6671"/>
</g>
<!-- X -->
<g id="node2" class="node"><title>X</title>
<ellipse fill="none" stroke="black" cx="171" cy="-162" rx="27" ry="18"/>
<text text-anchor="middle" x="171" y="-158.3" font-family="Times New Roman,serif" font-size="14.00">X</text>
</g>
<!-- Y -->
<g id="node6" class="node"><title>Y</title>
<ellipse fill="none" stroke="black" cx="171" cy="-18" rx="27" ry="18"/>
<text text-anchor="middle" x="171" y="-14.3" font-family="Times New Roman,serif" font-size="14.00">Y</text>
</g>
<!-- X&#45;&gt;Y -->
<g id="edge4" class="edge"><title>X&#45;&gt;Y</title>
<path fill="none" stroke="black" d="M171,-143.871C171,-119.67 171,-75.2108 171,-46.3932"/>
<polygon fill="black" stroke="black" points="174.5,-46.1892 171,-36.1893 167.5,-46.1893 174.5,-46.1892"/>
</g>
<!-- D -->
<g id="node5" class="node"><title>D</title>
<ellipse fill="none" stroke="black" cx="27" cy="-18" rx="27" ry="18"/>
<text text-anchor="middle" x="27" y="-14.3" font-family="Times New Roman,serif" font-size="14.00">D</text>
</g>
<!-- C&#45;&gt;D -->
<g id="edge3" class="edge"><title>C&#45;&gt;D</title>
<path fill="none" stroke="black" d="M33.8214,-72.055C32.8302,-64.3456 31.632,-55.0269 30.5183,-46.3642"/>
<polygon fill="black" stroke="black" points="33.9678,-45.7473 29.2211,-36.2753 27.025,-46.64 33.9678,-45.7473"/>
</g>
</g>
</svg>
