<?xml version="1.0" encoding="UTF-8" standalone="no"?>
<!DOCTYPE svg PUBLIC "-//W3C//DTD SVG 1.1//EN"
 "http://www.w3.org/Graphics/SVG/1.1/DTD/svg11.dtd">
<!-- Generated by graphviz version 2.38.0 (20140413.2041)
 -->
<!-- Title: structs Pages: 1 -->
<svg width="242pt" height="163pt"
 viewBox="0.00 0.00 242.00 163.00" xmlns="http://www.w3.org/2000/svg" xmlns:xlink="http://www.w3.org/1999/xlink">
<g id="graph0" class="graph" transform="scale(1 1) rotate(0) translate(4 159)">
<title>structs</title>
<polygon fill="white" stroke="none" points="-4,4 -4,-159 238,-159 238,4 -4,4"/>
<!-- struct1 -->
<g id="node1" class="node"><title>struct1</title>
<polygon fill="none" stroke="black" points="28.5,-126 28.5,-147 52.5,-147 52.5,-126 28.5,-126"/>
<text text-anchor="start" x="31.5" y="-132.8" font-family="Times New Roman,serif" font-size="14.00">left</text>
<polygon fill="none" stroke="black" points="52.5,-126 52.5,-147 96.5,-147 96.5,-126 52.5,-126"/>
<text text-anchor="start" x="55.5" y="-132.8" font-family="Times New Roman,serif" font-size="14.00">middle</text>
<polygon fill="none" stroke="black" points="96.5,-126 96.5,-147 127.5,-147 127.5,-126 96.5,-126"/>
<text text-anchor="start" x="99.5" y="-132.8" font-family="Times New Roman,serif" font-size="14.00">right</text>
</g>
<!-- struct2 -->
<g id="node2" class="node"><title>struct2</title>
<polygon fill="none" stroke="black" points="8.5,-30.5 8.5,-51.5 35.5,-51.5 35.5,-30.5 8.5,-30.5"/>
<text text-anchor="start" x="11.5" y="-37.3" font-family="Times New Roman,serif" font-size="14.00">one</text>
<polygon fill="none" stroke="black" points="35.5,-30.5 35.5,-51.5 63.5,-51.5 63.5,-30.5 35.5,-30.5"/>
<text text-anchor="start" x="38.5" y="-37.3" font-family="Times New Roman,serif" font-size="14.00">two</text>
</g>
<!-- struct1&#45;&gt;struct2 -->
<g id="edge1" class="edge"><title>struct1:f1&#45;&gt;struct2:f0</title>
<path fill="none" stroke="black" d="M74.5,-125C74.5,-88.8278 30.9717,-91.4553 22.8101,-62.558"/>
<polygon fill="black" stroke="black" points="26.2624,-61.9641 21.5,-52.5 19.3211,-62.8683 26.2624,-61.9641"/>
</g>
<!-- struct3 -->
<g id="node3" class="node"><title>struct3</title>
<polygon fill="none" stroke="black" points="97.5,-3.5 97.5,-78.5 140.5,-78.5 140.5,-3.5 97.5,-3.5"/>
<text text-anchor="start" x="105.5" y="-44.8" font-family="Times New Roman,serif" font-size="14.00">hello</text>
<text text-anchor="start" x="102.5" y="-29.8" font-family="Times New Roman,serif" font-size="14.00">world</text>
<polygon fill="none" stroke="black" points="140.5,-53.5 140.5,-78.5 192.5,-78.5 192.5,-53.5 140.5,-53.5"/>
<text text-anchor="start" x="162.5" y="-62.3" font-family="Times New Roman,serif" font-size="14.00">b</text>
<polygon fill="none" stroke="black" points="192.5,-3.5 192.5,-78.5 209.5,-78.5 209.5,-3.5 192.5,-3.5"/>
<text text-anchor="start" x="197.5" y="-37.3" font-family="Times New Roman,serif" font-size="14.00">g</text>
<polygon fill="none" stroke="black" points="209.5,-3.5 209.5,-78.5 226.5,-78.5 226.5,-3.5 209.5,-3.5"/>
<text text-anchor="start" x="214.5" y="-37.3" font-family="Times New Roman,serif" font-size="14.00">h</text>
<polygon fill="none" stroke="black" points="140.5,-28.5 140.5,-53.5 157.5,-53.5 157.5,-28.5 140.5,-28.5"/>
<text text-anchor="start" x="145.5" y="-37.3" font-family="Times New Roman,serif" font-size="14.00">c</text>
<polygon fill="none" stroke="black" points="157.5,-28.5 157.5,-53.5 175.5,-53.5 175.5,-28.5 157.5,-28.5"/>
<text text-anchor="start" x="162.5" y="-37.3" font-family="Times New Roman,serif" font-size="14.00">d</text>
<polygon fill="none" stroke="black" points="175.5,-28.5 175.5,-53.5 192.5,-53.5 192.5,-28.5 175.5,-28.5"/>
<text text-anchor="start" x="180.5" y="-37.3" font-family="Times New Roman,serif" font-size="14.00">e</text>
<polygon fill="none" stroke="black" points="140.5,-3.5 140.5,-28.5 192.5,-28.5 192.5,-3.5 140.5,-3.5"/>
<text text-anchor="start" x="164" y="-12.3" font-family="Times New Roman,serif" font-size="14.00">f</text>
</g>
<!-- struct1&#45;&gt;struct3 -->
<g id="edge2" class="edge"><title>struct1:f2&#45;&gt;struct3:here</title>
<path fill="none" stroke="black" d="M112.5,-125C112.5,-97.3617 133.618,-71.6361 149.442,-56.2398"/>
<polygon fill="black" stroke="black" points="152.121,-58.5299 157.094,-49.1746 147.372,-53.3868 152.121,-58.5299"/>
</g>
</g>
</svg>
