<?xml version="1.0" encoding="UTF-8" standalone="no"?>
<!DOCTYPE svg PUBLIC "-//W3C//DTD SVG 1.1//EN"
 "http://www.w3.org/Graphics/SVG/1.1/DTD/svg11.dtd">
<!-- Generated by graphviz version 2.38.0 (20140413.2041)
 -->
<!-- Title: TrafficLights Pages: 1 -->
<svg width="383pt" height="484pt"
 viewBox="0.00 0.00 382.57 483.82" xmlns="http://www.w3.org/2000/svg" xmlns:xlink="http://www.w3.org/1999/xlink">
<g id="graph0" class="graph" transform="scale(1 1) rotate(0) translate(190.909 224.889)">
<title>TrafficLights</title>
<polygon fill="white" stroke="none" points="-190.909,258.936 -190.909,-224.889 191.659,-224.889 191.659,258.936 -190.909,258.936"/>
<text text-anchor="middle" x="0.3752" y="234.536" font-family="Times New Roman,serif" font-size="12.00">PetriNet Model TrafficLights</text>
<text text-anchor="middle" x="0.3752" y="247.536" font-family="Times New Roman,serif" font-size="12.00">Extracted from ConceptBase and layed out by Graphviz</text>
<!-- gy2 -->
<g id="node1" class="node"><title>gy2</title>
<polygon fill="none" stroke="black" points="-74.6078,164.183 -128.608,164.183 -128.608,200.183 -74.6078,200.183 -74.6078,164.183"/>
<text text-anchor="middle" x="-101.608" y="185.883" font-family="Times New Roman,serif" font-size="14.00">gy2</text>
</g>
<!-- yellow2 -->
<g id="node8" class="node"><title>yellow2</title>
<ellipse fill="none" stroke="black" cx="-154.409" cy="108.683" rx="32.5" ry="32.5"/>
<text text-anchor="middle" x="-154.409" y="112.383" font-family="Times New Roman,serif" font-size="14.00">yellow2</text>
</g>
<!-- gy2&#45;&gt;yellow2 -->
<g id="edge1" class="edge"><title>gy2&#45;&gt;yellow2</title>
<path fill="none" stroke="black" d="M-114.66,164.014C-119.137,157.781 -124.31,150.581 -129.413,143.477"/>
<polygon fill="black" stroke="black" points="-132.334,145.411 -135.325,135.248 -126.648,141.327 -132.334,145.411"/>
</g>
<!-- yr2 -->
<g id="node2" class="node"><title>yr2</title>
<polygon fill="none" stroke="black" points="-88.9729,12.4915 -142.973,12.4915 -142.973,48.4915 -88.9729,48.4915 -88.9729,12.4915"/>
<text text-anchor="middle" x="-115.973" y="34.1915" font-family="Times New Roman,serif" font-size="14.00">yr2</text>
</g>
<!-- red2 -->
<g id="node9" class="node"><title>red2</title>
<ellipse fill="none" stroke="black" cx="-42.9405" cy="75.0428" rx="32.5" ry="32.5"/>
<text text-anchor="middle" x="-42.9405" y="78.7428" font-family="Times New Roman,serif" font-size="14.00">red2</text>
</g>
<!-- yr2&#45;&gt;red2 -->
<g id="edge4" class="edge"><title>yr2&#45;&gt;red2</title>
<path fill="none" stroke="black" d="M-88.7783,47.0808C-85.7671,48.9177 -82.6653,50.8099 -79.5624,52.7027"/>
<polygon fill="black" stroke="black" points="-77.6039,49.7975 -70.8896,57.9933 -81.2493,55.7734 -77.6039,49.7975"/>
</g>
<!-- safe1 -->
<g id="node14" class="node"><title>safe1</title>
<ellipse fill="none" stroke="black" cx="-101.65" cy="-57.2197" rx="32.5" ry="32.5"/>
<text text-anchor="middle" x="-101.65" y="-53.5197" font-family="Times New Roman,serif" font-size="14.00">safe1</text>
</g>
<!-- yr2&#45;&gt;safe1 -->
<g id="edge3" class="edge"><title>yr2&#45;&gt;safe1</title>
<path fill="none" stroke="black" d="M-113.005,12.3177C-111.704,4.34801 -110.117,-5.36876 -108.548,-14.9818"/>
<polygon fill="black" stroke="black" points="-111.996,-15.5791 -106.931,-24.8844 -105.088,-14.451 -111.996,-15.5791"/>
</g>
<!-- rg2 -->
<g id="node3" class="node"><title>rg2</title>
<polygon fill="none" stroke="black" points="60.3716,96.0559 6.37158,96.0559 6.37158,132.056 60.3716,132.056 60.3716,96.0559"/>
<text text-anchor="middle" x="33.3716" y="117.756" font-family="Times New Roman,serif" font-size="14.00">rg2</text>
</g>
<!-- green2 -->
<g id="node7" class="node"><title>green2</title>
<ellipse fill="none" stroke="black" cx="-11.442" cy="188.436" rx="32.5" ry="32.5"/>
<text text-anchor="middle" x="-11.442" y="192.136" font-family="Times New Roman,serif" font-size="14.00">green2</text>
</g>
<!-- rg2&#45;&gt;green2 -->
<g id="edge2" class="edge"><title>rg2&#45;&gt;green2</title>
<path fill="none" stroke="black" d="M22.5235,132.061C18.9172,138.047 14.7608,144.945 10.6202,151.818"/>
<polygon fill="black" stroke="black" points="13.5849,153.679 5.42628,160.438 7.58907,150.067 13.5849,153.679"/>
</g>
<!-- gy1 -->
<g id="node4" class="node"><title>gy1</title>
<polygon fill="none" stroke="black" points="130.086,-199.367 76.0863,-199.367 76.0863,-163.367 130.086,-163.367 130.086,-199.367"/>
<text text-anchor="middle" x="103.086" y="-177.667" font-family="Times New Roman,serif" font-size="14.00">gy1</text>
</g>
<!-- yellow1 -->
<g id="node12" class="node"><title>yellow1</title>
<ellipse fill="none" stroke="black" cx="155.159" cy="-107.511" rx="32.5" ry="32.5"/>
<text text-anchor="middle" x="155.159" y="-103.811" font-family="Times New Roman,serif" font-size="14.00">yellow1</text>
</g>
<!-- gy1&#45;&gt;yellow1 -->
<g id="edge9" class="edge"><title>gy1&#45;&gt;yellow1</title>
<path fill="none" stroke="black" d="M115.958,-163.11C120.374,-156.847 125.476,-149.611 130.508,-142.474"/>
<polygon fill="black" stroke="black" points="133.437,-144.394 136.339,-134.204 127.716,-140.36 133.437,-144.394"/>
</g>
<!-- yr1 -->
<g id="node5" class="node"><title>yr1</title>
<polygon fill="none" stroke="black" points="141.759,-48.6674 87.7594,-48.6674 87.7594,-12.6674 141.759,-12.6674 141.759,-48.6674"/>
<text text-anchor="middle" x="114.759" y="-26.9674" font-family="Times New Roman,serif" font-size="14.00">yr1</text>
</g>
<!-- safe2 -->
<g id="node10" class="node"><title>safe2</title>
<ellipse fill="none" stroke="black" cx="101.139" cy="56.9206" rx="32.5" ry="32.5"/>
<text text-anchor="middle" x="101.139" y="60.6206" font-family="Times New Roman,serif" font-size="14.00">safe2</text>
</g>
<!-- yr1&#45;&gt;safe2 -->
<g id="edge11" class="edge"><title>yr1&#45;&gt;safe2</title>
<path fill="none" stroke="black" d="M111.937,-12.5191C110.7,-4.56061 109.191,5.14249 107.698,14.742"/>
<polygon fill="black" stroke="black" points="111.155,15.2873 106.16,24.6306 104.238,14.2116 111.155,15.2873"/>
</g>
<!-- red1 -->
<g id="node13" class="node"><title>red1</title>
<ellipse fill="none" stroke="black" cx="41.7812" cy="-75.623" rx="32.5" ry="32.5"/>
<text text-anchor="middle" x="41.7812" y="-71.923" font-family="Times New Roman,serif" font-size="14.00">red1</text>
</g>
<!-- yr1&#45;&gt;red1 -->
<g id="edge12" class="edge"><title>yr1&#45;&gt;red1</title>
<path fill="none" stroke="black" d="M87.585,-47.4072C84.5761,-49.2608 81.4765,-51.1701 78.376,-53.0801"/>
<polygon fill="black" stroke="black" points="76.3881,-50.1939 69.7096,-58.4187 80.0595,-56.1538 76.3881,-50.1939"/>
</g>
<!-- rg1 -->
<g id="node6" class="node"><title>rg1</title>
<polygon fill="none" stroke="black" points="-7.14375,-133.035 -61.1437,-133.035 -61.1437,-97.0355 -7.14375,-97.0355 -7.14375,-133.035"/>
<text text-anchor="middle" x="-34.1437" y="-111.335" font-family="Times New Roman,serif" font-size="14.00">rg1</text>
</g>
<!-- green1 -->
<g id="node11" class="node"><title>green1</title>
<ellipse fill="none" stroke="black" cx="12.8698" cy="-188.389" rx="32.5" ry="32.5"/>
<text text-anchor="middle" x="12.8698" y="-184.689" font-family="Times New Roman,serif" font-size="14.00">green1</text>
</g>
<!-- rg1&#45;&gt;green1 -->
<g id="edge10" class="edge"><title>rg1&#45;&gt;green1</title>
<path fill="none" stroke="black" d="M-22.5224,-133.168C-18.8584,-138.885 -14.6715,-145.417 -10.4908,-151.94"/>
<polygon fill="black" stroke="black" points="-13.1861,-154.221 -4.84329,-160.752 -7.29262,-150.444 -13.1861,-154.221"/>
</g>
<!-- green2&#45;&gt;gy2 -->
<g id="edge6" class="edge"><title>green2&#45;&gt;gy2</title>
<path fill="none" stroke="black" d="M-43.9939,186.178C-50.5484,185.724 -57.4867,185.243 -64.1919,184.778"/>
<polygon fill="black" stroke="black" points="-64.7142,188.25 -74.4481,184.066 -64.2299,181.267 -64.7142,188.25"/>
</g>
<!-- yellow2&#45;&gt;yr2 -->
<g id="edge7" class="edge"><title>yellow2&#45;&gt;yr2</title>
<path fill="none" stroke="black" d="M-139.878,79.1223C-136.429,72.1055 -132.765,64.6522 -129.369,57.7438"/>
<polygon fill="black" stroke="black" points="-132.502,56.1834 -124.949,48.7531 -126.22,59.2715 -132.502,56.1834"/>
</g>
<!-- red2&#45;&gt;rg2 -->
<g id="edge8" class="edge"><title>red2&#45;&gt;rg2</title>
<path fill="none" stroke="black" d="M-13.6545,90.0147C-10.0687,91.8479 -6.37215,93.7377 -2.70142,95.6143"/>
<polygon fill="black" stroke="black" points="-1.01848,92.5437 6.29223,100.212 -4.20489,98.7765 -1.01848,92.5437"/>
</g>
<!-- safe2&#45;&gt;rg2 -->
<g id="edge5" class="edge"><title>safe2&#45;&gt;rg2</title>
<path fill="none" stroke="black" d="M76.2895,77.8712C71.9454,81.5338 67.3876,85.3766 62.9312,89.1338"/>
<polygon fill="black" stroke="black" points="64.9887,91.9771 55.0873,95.7471 60.4766,86.6253 64.9887,91.9771"/>
</g>
<!-- green1&#45;&gt;gy1 -->
<g id="edge14" class="edge"><title>green1&#45;&gt;gy1</title>
<path fill="none" stroke="black" d="M45.44,-185.854C51.9982,-185.343 58.9404,-184.803 65.6494,-184.281"/>
<polygon fill="black" stroke="black" points="66.2131,-187.747 75.9113,-183.482 65.6698,-180.769 66.2131,-187.747"/>
</g>
<!-- yellow1&#45;&gt;yr1 -->
<g id="edge15" class="edge"><title>yellow1&#45;&gt;yr1</title>
<path fill="none" stroke="black" d="M139.886,-78.46C136.403,-71.8351 132.712,-64.8142 129.262,-58.2527"/>
<polygon fill="black" stroke="black" points="132.184,-56.2899 124.433,-49.0673 125.988,-59.5474 132.184,-56.2899"/>
</g>
<!-- red1&#45;&gt;rg1 -->
<g id="edge16" class="edge"><title>red1&#45;&gt;rg1</title>
<path fill="none" stroke="black" d="M12.6438,-90.7482C9.2669,-92.5011 5.7914,-94.3053 2.33239,-96.1008"/>
<polygon fill="black" stroke="black" points="0.556638,-93.0791 -6.70627,-100.793 3.78173,-99.2919 0.556638,-93.0791"/>
</g>
<!-- safe1&#45;&gt;rg1 -->
<g id="edge13" class="edge"><title>safe1&#45;&gt;rg1</title>
<path fill="none" stroke="black" d="M-76.8968,-78.4199C-72.3648,-82.3013 -67.5992,-86.3827 -62.9608,-90.3553"/>
<polygon fill="black" stroke="black" points="-65.2102,-93.037 -55.3383,-96.8835 -60.6568,-87.7203 -65.2102,-93.037"/>
</g>
</g>
</svg>
