<?xml version="1.0" encoding="UTF-8" standalone="no"?>
<!DOCTYPE svg PUBLIC "-//W3C//DTD SVG 1.1//EN"
 "http://www.w3.org/Graphics/SVG/1.1/DTD/svg11.dtd">
<!-- Generated by graphviz version 2.44.1 (20200629.0846)
 -->
<!-- Title: TrafficLights Pages: 1 -->
<svg width="368pt" height="466pt"
 viewBox="0.00 0.00 367.63 465.64" xmlns="http://www.w3.org/2000/svg" xmlns:xlink="http://www.w3.org/1999/xlink">
<g id="graph0" class="graph" transform="scale(1 1) rotate(0) translate(4 461.64)">
<title>TrafficLights</title>
<polygon fill="white" stroke="transparent" points="-4,4 -4,-461.64 363.63,-461.64 363.63,4 -4,4"/>
<text text-anchor="middle" x="179.81" y="-20.4" font-family="Times New Roman,serif" font-size="12.00">PetriNet Model TrafficLights</text>
<text text-anchor="middle" x="179.81" y="-7.4" font-family="Times New Roman,serif" font-size="12.00">Extracted from ConceptBase and layed out by Graphviz</text>
<!-- gy2 -->
<g id="node1" class="node">
<title>gy2</title>
<polygon fill="none" stroke="black" points="109.75,-90.45 55.75,-90.45 55.75,-54.45 109.75,-54.45 109.75,-90.45"/>
<text text-anchor="middle" x="82.75" y="-68.75" font-family="Times New Roman,serif" font-size="14.00">gy2</text>
</g>
<!-- yellow2 -->
<g id="node8" class="node">
<title>yellow2</title>
<ellipse fill="none" stroke="black" cx="32.5" cy="-142.4" rx="32.5" ry="32.5"/>
<text text-anchor="middle" x="32.5" y="-138.7" font-family="Times New Roman,serif" font-size="14.00">yellow2</text>
</g>
<!-- gy2&#45;&gt;yellow2 -->
<g id="edge1" class="edge">
<title>gy2&#45;&gt;yellow2</title>
<path fill="none" stroke="black" d="M69.81,-90.47C65.97,-95.81 61.63,-101.85 57.31,-107.87"/>
<polygon fill="black" stroke="black" points="54.45,-105.84 51.46,-116.01 60.14,-109.93 54.45,-105.84"/>
</g>
<!-- yr2 -->
<g id="node2" class="node">
<title>yr2</title>
<polygon fill="none" stroke="black" points="96.08,-234.82 42.08,-234.82 42.08,-198.82 96.08,-198.82 96.08,-234.82"/>
<text text-anchor="middle" x="69.08" y="-213.12" font-family="Times New Roman,serif" font-size="14.00">yr2</text>
</g>
<!-- red2 -->
<g id="node9" class="node">
<title>red2</title>
<ellipse fill="none" stroke="black" cx="138.59" cy="-174.42" rx="32.5" ry="32.5"/>
<text text-anchor="middle" x="138.59" y="-170.72" font-family="Times New Roman,serif" font-size="14.00">red2</text>
</g>
<!-- yr2&#45;&gt;red2 -->
<g id="edge4" class="edge">
<title>yr2&#45;&gt;red2</title>
<path fill="none" stroke="black" d="M96.15,-200.31C98.07,-199.13 100.03,-197.94 101.99,-196.75"/>
<polygon fill="black" stroke="black" points="103.84,-199.71 110.56,-191.52 100.2,-193.74 103.84,-199.71"/>
</g>
<!-- safe1 -->
<g id="node14" class="node">
<title>safe1</title>
<ellipse fill="none" stroke="black" cx="82.71" cy="-300.3" rx="32.5" ry="32.5"/>
<text text-anchor="middle" x="82.71" y="-296.6" font-family="Times New Roman,serif" font-size="14.00">safe1</text>
</g>
<!-- yr2&#45;&gt;safe1 -->
<g id="edge3" class="edge">
<title>yr2&#45;&gt;safe1</title>
<path fill="none" stroke="black" d="M72.04,-234.93C73.16,-241.82 74.5,-249.99 75.83,-258.17"/>
<polygon fill="black" stroke="black" points="72.39,-258.78 77.45,-268.08 79.29,-257.65 72.39,-258.78"/>
</g>
<!-- rg2 -->
<g id="node3" class="node">
<title>rg2</title>
<polygon fill="none" stroke="black" points="238.22,-155.29 184.22,-155.29 184.22,-119.29 238.22,-119.29 238.22,-155.29"/>
<text text-anchor="middle" x="211.22" y="-133.59" font-family="Times New Roman,serif" font-size="14.00">rg2</text>
</g>
<!-- green2 -->
<g id="node7" class="node">
<title>green2</title>
<ellipse fill="none" stroke="black" cx="168.57" cy="-66.5" rx="32.5" ry="32.5"/>
<text text-anchor="middle" x="168.57" y="-62.8" font-family="Times New Roman,serif" font-size="14.00">green2</text>
</g>
<!-- rg2&#45;&gt;green2 -->
<g id="edge2" class="edge">
<title>rg2&#45;&gt;green2</title>
<path fill="none" stroke="black" d="M200.23,-119.06C197.29,-114.17 193.99,-108.7 190.67,-103.18"/>
<polygon fill="black" stroke="black" points="193.63,-101.32 185.48,-94.57 187.64,-104.94 193.63,-101.32"/>
</g>
<!-- gy1 -->
<g id="node4" class="node">
<title>gy1</title>
<polygon fill="none" stroke="black" points="304.57,-436.45 250.57,-436.45 250.57,-400.45 304.57,-400.45 304.57,-436.45"/>
<text text-anchor="middle" x="277.57" y="-414.75" font-family="Times New Roman,serif" font-size="14.00">gy1</text>
</g>
<!-- yellow1 -->
<g id="node12" class="node">
<title>yellow1</title>
<ellipse fill="none" stroke="black" cx="327.13" cy="-348.16" rx="32.5" ry="32.5"/>
<text text-anchor="middle" x="327.13" y="-344.46" font-family="Times New Roman,serif" font-size="14.00">yellow1</text>
</g>
<!-- gy1&#45;&gt;yellow1 -->
<g id="edge9" class="edge">
<title>gy1&#45;&gt;yellow1</title>
<path fill="none" stroke="black" d="M290.33,-400.35C293.99,-395.16 298.11,-389.31 302.24,-383.46"/>
<polygon fill="black" stroke="black" points="305.33,-385.14 308.24,-374.95 299.61,-381.11 305.33,-385.14"/>
</g>
<!-- yr1 -->
<g id="node5" class="node">
<title>yr1</title>
<polygon fill="none" stroke="black" points="315.68,-293.03 261.68,-293.03 261.68,-257.03 315.68,-257.03 315.68,-293.03"/>
<text text-anchor="middle" x="288.68" y="-271.33" font-family="Times New Roman,serif" font-size="14.00">yr1</text>
</g>
<!-- safe2 -->
<g id="node10" class="node">
<title>safe2</title>
<ellipse fill="none" stroke="black" cx="275.71" cy="-191.67" rx="32.5" ry="32.5"/>
<text text-anchor="middle" x="275.71" y="-187.97" font-family="Times New Roman,serif" font-size="14.00">safe2</text>
</g>
<!-- yr1&#45;&gt;safe2 -->
<g id="edge11" class="edge">
<title>yr1&#45;&gt;safe2</title>
<path fill="none" stroke="black" d="M285.86,-256.94C284.79,-250.06 283.53,-241.91 282.25,-233.73"/>
<polygon fill="black" stroke="black" points="285.71,-233.18 280.72,-223.84 278.79,-234.26 285.71,-233.18"/>
</g>
<!-- red1 -->
<g id="node13" class="node">
<title>red1</title>
<ellipse fill="none" stroke="black" cx="219.22" cy="-317.81" rx="32.5" ry="32.5"/>
<text text-anchor="middle" x="219.22" y="-314.11" font-family="Times New Roman,serif" font-size="14.00">red1</text>
</g>
<!-- yr1&#45;&gt;red1 -->
<g id="edge12" class="edge">
<title>yr1&#45;&gt;red1</title>
<path fill="none" stroke="black" d="M261.62,-291.69C259.71,-292.87 257.75,-294.08 255.79,-295.28"/>
<polygon fill="black" stroke="black" points="253.91,-292.33 247.23,-300.56 257.58,-298.29 253.91,-292.33"/>
</g>
<!-- rg1 -->
<g id="node6" class="node">
<title>rg1</title>
<polygon fill="none" stroke="black" points="173.96,-373.32 119.96,-373.32 119.96,-337.32 173.96,-337.32 173.96,-373.32"/>
<text text-anchor="middle" x="146.96" y="-351.62" font-family="Times New Roman,serif" font-size="14.00">rg1</text>
</g>
<!-- green1 -->
<g id="node11" class="node">
<title>green1</title>
<ellipse fill="none" stroke="black" cx="191.7" cy="-425.14" rx="32.5" ry="32.5"/>
<text text-anchor="middle" x="191.7" y="-421.44" font-family="Times New Roman,serif" font-size="14.00">green1</text>
</g>
<!-- rg1&#45;&gt;green1 -->
<g id="edge10" class="edge">
<title>rg1&#45;&gt;green1</title>
<path fill="none" stroke="black" d="M158.72,-373.67C161.81,-378.49 165.25,-383.87 168.72,-389.27"/>
<polygon fill="black" stroke="black" points="165.79,-391.19 174.13,-397.72 171.68,-387.41 165.79,-391.19"/>
</g>
<!-- green2&#45;&gt;gy2 -->
<g id="edge6" class="edge">
<title>green2&#45;&gt;gy2</title>
<path fill="none" stroke="black" d="M136.12,-68.75C130.86,-69.11 125.37,-69.5 120,-69.87"/>
<polygon fill="black" stroke="black" points="119.65,-66.38 109.92,-70.57 120.14,-73.37 119.65,-66.38"/>
</g>
<!-- yellow2&#45;&gt;yr2 -->
<g id="edge7" class="edge">
<title>yellow2&#45;&gt;yr2</title>
<path fill="none" stroke="black" d="M46.96,-171.81C49.82,-177.64 52.82,-183.74 55.65,-189.5"/>
<polygon fill="black" stroke="black" points="52.65,-191.33 60.2,-198.76 58.93,-188.24 52.65,-191.33"/>
</g>
<!-- red2&#45;&gt;rg2 -->
<g id="edge8" class="edge">
<title>red2&#45;&gt;rg2</title>
<path fill="none" stroke="black" d="M167.71,-159.53C170.06,-158.33 172.45,-157.11 174.84,-155.89"/>
<polygon fill="black" stroke="black" points="176.66,-158.89 183.97,-151.22 173.48,-152.65 176.66,-158.89"/>
</g>
<!-- safe2&#45;&gt;rg2 -->
<g id="edge5" class="edge">
<title>safe2&#45;&gt;rg2</title>
<path fill="none" stroke="black" d="M250.59,-170.49C247.25,-167.67 243.8,-164.76 240.4,-161.89"/>
<polygon fill="black" stroke="black" points="242.51,-159.1 232.61,-155.33 238,-164.45 242.51,-159.1"/>
</g>
<!-- green1&#45;&gt;gy1 -->
<g id="edge14" class="edge">
<title>green1&#45;&gt;gy1</title>
<path fill="none" stroke="black" d="M224.17,-422.61C229.43,-422.2 234.92,-421.77 240.29,-421.35"/>
<polygon fill="black" stroke="black" points="240.68,-424.83 250.38,-420.57 240.14,-417.86 240.68,-424.83"/>
</g>
<!-- yellow1&#45;&gt;yr1 -->
<g id="edge15" class="edge">
<title>yellow1&#45;&gt;yr1</title>
<path fill="none" stroke="black" d="M311.93,-319.26C308.97,-313.63 305.88,-307.75 302.95,-302.18"/>
<polygon fill="black" stroke="black" points="305.98,-300.43 298.23,-293.21 299.79,-303.69 305.98,-300.43"/>
</g>
<!-- red1&#45;&gt;rg1 -->
<g id="edge16" class="edge">
<title>red1&#45;&gt;rg1</title>
<path fill="none" stroke="black" d="M190.25,-332.85C187.91,-334.07 185.53,-335.3 183.15,-336.54"/>
<polygon fill="black" stroke="black" points="181.33,-333.54 174.07,-341.25 184.55,-339.75 181.33,-333.54"/>
</g>
<!-- safe1&#45;&gt;rg1 -->
<g id="edge13" class="edge">
<title>safe1&#45;&gt;rg1</title>
<path fill="none" stroke="black" d="M107.74,-321.73C111.07,-324.58 114.5,-327.53 117.89,-330.43"/>
<polygon fill="black" stroke="black" points="115.78,-333.23 125.65,-337.07 120.33,-327.91 115.78,-333.23"/>
</g>
</g>
</svg>
