<?xml version="1.0" encoding="UTF-8" standalone="no"?>
<!DOCTYPE svg PUBLIC "-//W3C//DTD SVG 1.1//EN"
 "http://www.w3.org/Graphics/SVG/1.1/DTD/svg11.dtd">
<!-- Generated by graphviz version 2.44.1 (20200629.0846)
 -->
<!-- Title: unix Pages: 1 -->
<svg width="432pt" height="339pt"
 viewBox="0.00 0.00 432.00 339.00" xmlns="http://www.w3.org/2000/svg" xmlns:xlink="http://www.w3.org/1999/xlink">
<g id="graph0" class="graph" transform="scale(0.44 0.44) rotate(0) translate(4 760)">
<title>unix</title>
<polygon fill="white" stroke="transparent" points="-4,4 -4,-760 969.59,-760 969.59,4 -4,4"/>
<!-- 5th Edition -->
<g id="node1" class="node">
<title>5th Edition</title>
<ellipse fill="#b2dfee" stroke="#b2dfee" cx="511.25" cy="-738" rx="50.09" ry="18"/>
<text text-anchor="middle" x="511.25" y="-734.3" font-family="Times New Roman,serif" font-size="14.00">5th Edition</text>
</g>
<!-- 6th Edition -->
<g id="node2" class="node">
<title>6th Edition</title>
<ellipse fill="#b2dfee" stroke="#b2dfee" cx="415.25" cy="-666" rx="50.09" ry="18"/>
<text text-anchor="middle" x="415.25" y="-662.3" font-family="Times New Roman,serif" font-size="14.00">6th Edition</text>
</g>
<!-- 5th Edition&#45;&gt;6th Edition -->
<g id="edge1" class="edge">
<title>5th Edition&#45;&gt;6th Edition</title>
<path fill="none" stroke="black" d="M489.94,-721.46C476.64,-711.77 459.34,-699.15 444.73,-688.5"/>
<polygon fill="black" stroke="black" points="446.64,-685.56 436.49,-682.49 442.51,-691.21 446.64,-685.56"/>
</g>
<!-- PWB 1.0 -->
<g id="node3" class="node">
<title>PWB 1.0</title>
<ellipse fill="#b2dfee" stroke="#b2dfee" cx="667.25" cy="-666" rx="44.39" ry="18"/>
<text text-anchor="middle" x="667.25" y="-662.3" font-family="Times New Roman,serif" font-size="14.00">PWB 1.0</text>
</g>
<!-- 5th Edition&#45;&gt;PWB 1.0 -->
<g id="edge2" class="edge">
<title>5th Edition&#45;&gt;PWB 1.0</title>
<path fill="none" stroke="black" d="M541.33,-723.5C566.43,-712.24 602.35,-696.12 629.41,-683.98"/>
<polygon fill="black" stroke="black" points="630.89,-687.15 638.58,-679.86 628.02,-680.77 630.89,-687.15"/>
</g>
<!-- LSX -->
<g id="node4" class="node">
<title>LSX</title>
<ellipse fill="#b2dfee" stroke="#b2dfee" cx="577.25" cy="-594" rx="27.9" ry="18"/>
<text text-anchor="middle" x="577.25" y="-590.3" font-family="Times New Roman,serif" font-size="14.00">LSX</text>
</g>
<!-- 6th Edition&#45;&gt;LSX -->
<g id="edge3" class="edge">
<title>6th Edition&#45;&gt;LSX</title>
<path fill="none" stroke="black" d="M446.69,-651.97C472.04,-641.4 508.55,-626 540.25,-612 542.04,-611.21 543.88,-610.39 545.74,-609.55"/>
<polygon fill="black" stroke="black" points="547.33,-612.67 554.99,-605.36 544.44,-606.3 547.33,-612.67"/>
</g>
<!-- 1 BSD -->
<g id="node5" class="node">
<title>1 BSD</title>
<ellipse fill="#b2dfee" stroke="#b2dfee" cx="120.25" cy="-594" rx="35.19" ry="18"/>
<text text-anchor="middle" x="120.25" y="-590.3" font-family="Times New Roman,serif" font-size="14.00">1 BSD</text>
</g>
<!-- 6th Edition&#45;&gt;1 BSD -->
<g id="edge4" class="edge">
<title>6th Edition&#45;&gt;1 BSD</title>
<path fill="none" stroke="black" d="M374.54,-655.34C318.44,-642.03 217.93,-618.18 161.53,-604.8"/>
<polygon fill="black" stroke="black" points="162.07,-601.33 151.53,-602.42 160.46,-608.14 162.07,-601.33"/>
</g>
<!-- Mini Unix -->
<g id="node6" class="node">
<title>Mini Unix</title>
<ellipse fill="#b2dfee" stroke="#b2dfee" cx="355.25" cy="-594" rx="46.29" ry="18"/>
<text text-anchor="middle" x="355.25" y="-590.3" font-family="Times New Roman,serif" font-size="14.00">Mini Unix</text>
</g>
<!-- 6th Edition&#45;&gt;Mini Unix -->
<g id="edge5" class="edge">
<title>6th Edition&#45;&gt;Mini Unix</title>
<path fill="none" stroke="black" d="M401.03,-648.41C393.56,-639.69 384.26,-628.85 376,-619.21"/>
<polygon fill="black" stroke="black" points="378.53,-616.78 369.36,-611.47 373.22,-621.34 378.53,-616.78"/>
</g>
<!-- Wollongong -->
<g id="node7" class="node">
<title>Wollongong</title>
<ellipse fill="#b2dfee" stroke="#b2dfee" cx="475.25" cy="-594" rx="55.79" ry="18"/>
<text text-anchor="middle" x="475.25" y="-590.3" font-family="Times New Roman,serif" font-size="14.00">Wollongong</text>
</g>
<!-- 6th Edition&#45;&gt;Wollongong -->
<g id="edge6" class="edge">
<title>6th Edition&#45;&gt;Wollongong</title>
<path fill="none" stroke="black" d="M429.47,-648.41C436.94,-639.69 446.24,-628.85 454.5,-619.21"/>
<polygon fill="black" stroke="black" points="457.28,-621.34 461.13,-611.47 451.96,-616.78 457.28,-621.34"/>
</g>
<!-- Interdata -->
<g id="node8" class="node">
<title>Interdata</title>
<ellipse fill="#b2dfee" stroke="#b2dfee" cx="249.25" cy="-594" rx="42.49" ry="18"/>
<text text-anchor="middle" x="249.25" y="-590.3" font-family="Times New Roman,serif" font-size="14.00">Interdata</text>
</g>
<!-- 6th Edition&#45;&gt;Interdata -->
<g id="edge7" class="edge">
<title>6th Edition&#45;&gt;Interdata</title>
<path fill="none" stroke="black" d="M384.02,-651.83C356.69,-640.31 316.87,-623.51 287.6,-611.17"/>
<polygon fill="black" stroke="black" points="288.68,-607.83 278.11,-607.17 285.96,-614.28 288.68,-607.83"/>
</g>
<!-- PWB 1.2 -->
<g id="node28" class="node">
<title>PWB 1.2</title>
<ellipse fill="#b2dfee" stroke="#b2dfee" cx="667.25" cy="-594" rx="44.39" ry="18"/>
<text text-anchor="middle" x="667.25" y="-590.3" font-family="Times New Roman,serif" font-size="14.00">PWB 1.2</text>
</g>
<!-- PWB 1.0&#45;&gt;PWB 1.2 -->
<g id="edge31" class="edge">
<title>PWB 1.0&#45;&gt;PWB 1.2</title>
<path fill="none" stroke="black" d="M667.25,-647.7C667.25,-639.98 667.25,-630.71 667.25,-622.11"/>
<polygon fill="black" stroke="black" points="670.75,-622.1 667.25,-612.1 663.75,-622.1 670.75,-622.1"/>
</g>
<!-- USG 1.0 -->
<g id="node29" class="node">
<title>USG 1.0</title>
<ellipse fill="#b2dfee" stroke="#b2dfee" cx="772.25" cy="-594" rx="42.79" ry="18"/>
<text text-anchor="middle" x="772.25" y="-590.3" font-family="Times New Roman,serif" font-size="14.00">USG 1.0</text>
</g>
<!-- PWB 1.0&#45;&gt;USG 1.0 -->
<g id="edge32" class="edge">
<title>PWB 1.0&#45;&gt;USG 1.0</title>
<path fill="none" stroke="black" d="M689.26,-650.33C704.52,-640.15 725.04,-626.47 741.86,-615.26"/>
<polygon fill="black" stroke="black" points="743.89,-618.11 750.26,-609.65 740,-612.29 743.89,-618.11"/>
</g>
<!-- 2 BSD -->
<g id="node19" class="node">
<title>2 BSD</title>
<ellipse fill="#b2dfee" stroke="#b2dfee" cx="77.25" cy="-234" rx="35.19" ry="18"/>
<text text-anchor="middle" x="77.25" y="-230.3" font-family="Times New Roman,serif" font-size="14.00">2 BSD</text>
</g>
<!-- 1 BSD&#45;&gt;2 BSD -->
<g id="edge19" class="edge">
<title>1 BSD&#45;&gt;2 BSD</title>
<path fill="none" stroke="black" d="M114.12,-576.21C105.09,-549.9 89.25,-497.18 89.25,-451 89.25,-451 89.25,-451 89.25,-377 89.25,-336.85 84.43,-290.55 80.9,-262.02"/>
<polygon fill="black" stroke="black" points="84.36,-261.49 79.62,-252.01 77.41,-262.37 84.36,-261.49"/>
</g>
<!-- Unix/TS 3.0 -->
<g id="node9" class="node">
<title>Unix/TS 3.0</title>
<ellipse fill="#b2dfee" stroke="#b2dfee" cx="602.25" cy="-378" rx="55.49" ry="18"/>
<text text-anchor="middle" x="602.25" y="-374.3" font-family="Times New Roman,serif" font-size="14.00">Unix/TS 3.0</text>
</g>
<!-- Interdata&#45;&gt;Unix/TS 3.0 -->
<g id="edge8" class="edge">
<title>Interdata&#45;&gt;Unix/TS 3.0</title>
<path fill="none" stroke="black" d="M272.68,-578.79C333.67,-541.82 497.51,-442.49 568.59,-399.41"/>
<polygon fill="black" stroke="black" points="570.44,-402.37 577.18,-394.2 566.81,-396.39 570.44,-402.37"/>
</g>
<!-- PWB 2.0 -->
<g id="node10" class="node">
<title>PWB 2.0</title>
<ellipse fill="#b2dfee" stroke="#b2dfee" cx="548.25" cy="-522" rx="44.39" ry="18"/>
<text text-anchor="middle" x="548.25" y="-518.3" font-family="Times New Roman,serif" font-size="14.00">PWB 2.0</text>
</g>
<!-- Interdata&#45;&gt;PWB 2.0 -->
<g id="edge9" class="edge">
<title>Interdata&#45;&gt;PWB 2.0</title>
<path fill="none" stroke="black" d="M280.61,-581.81C287.06,-579.72 293.83,-577.67 300.25,-576 383.43,-554.36 406.69,-560.11 490.25,-540 494.85,-538.89 499.63,-537.65 504.39,-536.35"/>
<polygon fill="black" stroke="black" points="505.37,-539.71 514.05,-533.63 503.47,-532.97 505.37,-539.71"/>
</g>
<!-- 7th Edition -->
<g id="node11" class="node">
<title>7th Edition</title>
<ellipse fill="#b2dfee" stroke="#b2dfee" cx="249.25" cy="-522" rx="50.09" ry="18"/>
<text text-anchor="middle" x="249.25" y="-518.3" font-family="Times New Roman,serif" font-size="14.00">7th Edition</text>
</g>
<!-- Interdata&#45;&gt;7th Edition -->
<g id="edge10" class="edge">
<title>Interdata&#45;&gt;7th Edition</title>
<path fill="none" stroke="black" d="M249.25,-575.7C249.25,-567.98 249.25,-558.71 249.25,-550.11"/>
<polygon fill="black" stroke="black" points="252.75,-550.1 249.25,-540.1 245.75,-550.1 252.75,-550.1"/>
</g>
<!-- TS 4.0 -->
<g id="node38" class="node">
<title>TS 4.0</title>
<ellipse fill="#b2dfee" stroke="#b2dfee" cx="687.25" cy="-234" rx="36" ry="18"/>
<text text-anchor="middle" x="687.25" y="-230.3" font-family="Times New Roman,serif" font-size="14.00">TS 4.0</text>
</g>
<!-- Unix/TS 3.0&#45;&gt;TS 4.0 -->
<g id="edge44" class="edge">
<title>Unix/TS 3.0&#45;&gt;TS 4.0</title>
<path fill="none" stroke="black" d="M612.33,-360.15C627.17,-335.36 655,-288.88 672.24,-260.07"/>
<polygon fill="black" stroke="black" points="675.31,-261.76 677.44,-251.39 669.3,-258.17 675.31,-261.76"/>
</g>
<!-- PWB 2.0&#45;&gt;Unix/TS 3.0 -->
<g id="edge42" class="edge">
<title>PWB 2.0&#45;&gt;Unix/TS 3.0</title>
<path fill="none" stroke="black" d="M545.02,-503.83C542.35,-485.31 540.4,-455.35 550.25,-432 555.14,-420.4 563.87,-409.94 572.79,-401.43"/>
<polygon fill="black" stroke="black" points="575.13,-404.04 580.25,-394.77 570.46,-398.82 575.13,-404.04"/>
</g>
<!-- 8th Edition -->
<g id="node12" class="node">
<title>8th Edition</title>
<ellipse fill="#b2dfee" stroke="#b2dfee" cx="448.25" cy="-162" rx="50.09" ry="18"/>
<text text-anchor="middle" x="448.25" y="-158.3" font-family="Times New Roman,serif" font-size="14.00">8th Edition</text>
</g>
<!-- 7th Edition&#45;&gt;8th Edition -->
<g id="edge11" class="edge">
<title>7th Edition&#45;&gt;8th Edition</title>
<path fill="none" stroke="black" d="M292.31,-512.73C336.8,-503.31 402.11,-486.79 419.25,-468 446.5,-438.12 438.25,-419.45 438.25,-379 438.25,-379 438.25,-379 438.25,-305 438.25,-264.9 442.27,-218.58 445.21,-190.04"/>
<polygon fill="black" stroke="black" points="448.7,-190.34 446.27,-180.02 441.73,-189.6 448.7,-190.34"/>
</g>
<!-- 32V -->
<g id="node13" class="node">
<title>32V</title>
<ellipse fill="#b2dfee" stroke="#b2dfee" cx="383.25" cy="-450" rx="27" ry="18"/>
<text text-anchor="middle" x="383.25" y="-446.3" font-family="Times New Roman,serif" font-size="14.00">32V</text>
</g>
<!-- 7th Edition&#45;&gt;32V -->
<g id="edge12" class="edge">
<title>7th Edition&#45;&gt;32V</title>
<path fill="none" stroke="black" d="M276.36,-506.83C298.81,-495.11 330.66,-478.47 353.74,-466.41"/>
<polygon fill="black" stroke="black" points="355.49,-469.45 362.74,-461.71 352.25,-463.24 355.49,-469.45"/>
</g>
<!-- V7M -->
<g id="node14" class="node">
<title>V7M</title>
<ellipse fill="#b2dfee" stroke="#b2dfee" cx="29.25" cy="-378" rx="29.5" ry="18"/>
<text text-anchor="middle" x="29.25" y="-374.3" font-family="Times New Roman,serif" font-size="14.00">V7M</text>
</g>
<!-- 7th Edition&#45;&gt;V7M -->
<g id="edge13" class="edge">
<title>7th Edition&#45;&gt;V7M</title>
<path fill="none" stroke="black" d="M213.74,-509.31C188.29,-500.09 153.77,-485.82 126.25,-468 97.08,-449.11 68.34,-421.26 49.81,-401.76"/>
<polygon fill="black" stroke="black" points="52.15,-399.14 42.76,-394.22 47.03,-403.92 52.15,-399.14"/>
</g>
<!-- Ultrix&#45;11 -->
<g id="node15" class="node">
<title>Ultrix&#45;11</title>
<ellipse fill="#b2dfee" stroke="#b2dfee" cx="108.25" cy="-90" rx="42.49" ry="18"/>
<text text-anchor="middle" x="108.25" y="-86.3" font-family="Times New Roman,serif" font-size="14.00">Ultrix&#45;11</text>
</g>
<!-- 7th Edition&#45;&gt;Ultrix&#45;11 -->
<g id="edge14" class="edge">
<title>7th Edition&#45;&gt;Ultrix&#45;11</title>
<path fill="none" stroke="black" d="M214.87,-508.82C195.67,-500.29 172.92,-486.98 159.25,-468 135.6,-435.19 140.25,-419.45 140.25,-379 140.25,-379 140.25,-379 140.25,-233 140.25,-192.04 127.42,-146.02 118.01,-117.77"/>
<polygon fill="black" stroke="black" points="121.28,-116.53 114.72,-108.21 114.66,-118.8 121.28,-116.53"/>
</g>
<!-- Xenix -->
<g id="node16" class="node">
<title>Xenix</title>
<ellipse fill="#b2dfee" stroke="#b2dfee" cx="200.25" cy="-450" rx="31.7" ry="18"/>
<text text-anchor="middle" x="200.25" y="-446.3" font-family="Times New Roman,serif" font-size="14.00">Xenix</text>
</g>
<!-- 7th Edition&#45;&gt;Xenix -->
<g id="edge15" class="edge">
<title>7th Edition&#45;&gt;Xenix</title>
<path fill="none" stroke="black" d="M237.64,-504.41C231.57,-495.74 224.03,-484.97 217.31,-475.38"/>
<polygon fill="black" stroke="black" points="220.04,-473.17 211.44,-466.99 214.31,-477.19 220.04,-473.17"/>
</g>
<!-- UniPlus+ -->
<g id="node17" class="node">
<title>UniPlus+</title>
<ellipse fill="#b2dfee" stroke="#b2dfee" cx="294.25" cy="-450" rx="44.39" ry="18"/>
<text text-anchor="middle" x="294.25" y="-446.3" font-family="Times New Roman,serif" font-size="14.00">UniPlus+</text>
</g>
<!-- 7th Edition&#45;&gt;UniPlus+ -->
<g id="edge16" class="edge">
<title>7th Edition&#45;&gt;UniPlus+</title>
<path fill="none" stroke="black" d="M259.91,-504.41C265.27,-496.08 271.88,-485.8 277.86,-476.49"/>
<polygon fill="black" stroke="black" points="280.88,-478.26 283.35,-467.96 275,-474.48 280.88,-478.26"/>
</g>
<!-- 9th Edition -->
<g id="node18" class="node">
<title>9th Edition</title>
<ellipse fill="#b2dfee" stroke="#b2dfee" cx="524.25" cy="-90" rx="50.09" ry="18"/>
<text text-anchor="middle" x="524.25" y="-86.3" font-family="Times New Roman,serif" font-size="14.00">9th Edition</text>
</g>
<!-- 8th Edition&#45;&gt;9th Edition -->
<g id="edge18" class="edge">
<title>8th Edition&#45;&gt;9th Edition</title>
<path fill="none" stroke="black" d="M465.87,-144.76C475.82,-135.6 488.42,-124 499.36,-113.92"/>
<polygon fill="black" stroke="black" points="501.99,-116.26 506.98,-106.91 497.25,-111.11 501.99,-116.26"/>
</g>
<!-- 3 BSD -->
<g id="node22" class="node">
<title>3 BSD</title>
<ellipse fill="#b2dfee" stroke="#b2dfee" cx="372.25" cy="-378" rx="35.19" ry="18"/>
<text text-anchor="middle" x="372.25" y="-374.3" font-family="Times New Roman,serif" font-size="14.00">3 BSD</text>
</g>
<!-- 32V&#45;&gt;3 BSD -->
<g id="edge23" class="edge">
<title>32V&#45;&gt;3 BSD</title>
<path fill="none" stroke="black" d="M380.58,-432.05C379.37,-424.35 377.91,-415.03 376.55,-406.36"/>
<polygon fill="black" stroke="black" points="379.97,-405.61 374.96,-396.28 373.06,-406.7 379.97,-405.61"/>
</g>
<!-- V7M&#45;&gt;Ultrix&#45;11 -->
<g id="edge17" class="edge">
<title>V7M&#45;&gt;Ultrix&#45;11</title>
<path fill="none" stroke="black" d="M26.84,-359.64C23.3,-329.65 18.59,-266.48 33.25,-216 44.37,-177.69 70.24,-139.16 88.47,-115.21"/>
<polygon fill="black" stroke="black" points="91.42,-117.12 94.8,-107.07 85.89,-112.82 91.42,-117.12"/>
</g>
<!-- 2.8 BSD -->
<g id="node20" class="node">
<title>2.8 BSD</title>
<ellipse fill="#b2dfee" stroke="#b2dfee" cx="210.25" cy="-162" rx="42.49" ry="18"/>
<text text-anchor="middle" x="210.25" y="-158.3" font-family="Times New Roman,serif" font-size="14.00">2.8 BSD</text>
</g>
<!-- 2 BSD&#45;&gt;2.8 BSD -->
<g id="edge20" class="edge">
<title>2 BSD&#45;&gt;2.8 BSD</title>
<path fill="none" stroke="black" d="M101.03,-220.49C121.74,-209.58 152.04,-193.64 175.47,-181.3"/>
<polygon fill="black" stroke="black" points="177.18,-184.36 184.4,-176.6 173.92,-178.16 177.18,-184.36"/>
</g>
<!-- 2.8 BSD&#45;&gt;Ultrix&#45;11 -->
<g id="edge21" class="edge">
<title>2.8 BSD&#45;&gt;Ultrix&#45;11</title>
<path fill="none" stroke="black" d="M188.62,-146.15C173.91,-136.06 154.27,-122.58 138.08,-111.47"/>
<polygon fill="black" stroke="black" points="139.72,-108.36 129.5,-105.58 135.76,-114.13 139.72,-108.36"/>
</g>
<!-- 2.9 BSD -->
<g id="node21" class="node">
<title>2.9 BSD</title>
<ellipse fill="#b2dfee" stroke="#b2dfee" cx="210.25" cy="-90" rx="42.49" ry="18"/>
<text text-anchor="middle" x="210.25" y="-86.3" font-family="Times New Roman,serif" font-size="14.00">2.9 BSD</text>
</g>
<!-- 2.8 BSD&#45;&gt;2.9 BSD -->
<g id="edge22" class="edge">
<title>2.8 BSD&#45;&gt;2.9 BSD</title>
<path fill="none" stroke="black" d="M210.25,-143.7C210.25,-135.98 210.25,-126.71 210.25,-118.11"/>
<polygon fill="black" stroke="black" points="213.75,-118.1 210.25,-108.1 206.75,-118.1 213.75,-118.1"/>
</g>
<!-- 4 BSD -->
<g id="node23" class="node">
<title>4 BSD</title>
<ellipse fill="#b2dfee" stroke="#b2dfee" cx="360.25" cy="-306" rx="35.19" ry="18"/>
<text text-anchor="middle" x="360.25" y="-302.3" font-family="Times New Roman,serif" font-size="14.00">4 BSD</text>
</g>
<!-- 3 BSD&#45;&gt;4 BSD -->
<g id="edge24" class="edge">
<title>3 BSD&#45;&gt;4 BSD</title>
<path fill="none" stroke="black" d="M369.34,-360.05C368.02,-352.35 366.42,-343.03 364.94,-334.36"/>
<polygon fill="black" stroke="black" points="368.35,-333.54 363.21,-324.28 361.45,-334.72 368.35,-333.54"/>
</g>
<!-- 4.1 BSD -->
<g id="node24" class="node">
<title>4.1 BSD</title>
<ellipse fill="#b2dfee" stroke="#b2dfee" cx="358.25" cy="-234" rx="42.49" ry="18"/>
<text text-anchor="middle" x="358.25" y="-230.3" font-family="Times New Roman,serif" font-size="14.00">4.1 BSD</text>
</g>
<!-- 4 BSD&#45;&gt;4.1 BSD -->
<g id="edge25" class="edge">
<title>4 BSD&#45;&gt;4.1 BSD</title>
<path fill="none" stroke="black" d="M359.75,-287.7C359.53,-279.98 359.27,-270.71 359.02,-262.11"/>
<polygon fill="black" stroke="black" points="362.52,-262 358.74,-252.1 355.52,-262.2 362.52,-262"/>
</g>
<!-- 4.1 BSD&#45;&gt;8th Edition -->
<g id="edge28" class="edge">
<title>4.1 BSD&#45;&gt;8th Edition</title>
<path fill="none" stroke="black" d="M377.78,-217.81C390.11,-208.22 406.24,-195.67 419.96,-185"/>
<polygon fill="black" stroke="black" points="422.39,-187.55 428.13,-178.64 418.09,-182.02 422.39,-187.55"/>
</g>
<!-- 4.1 BSD&#45;&gt;2.8 BSD -->
<g id="edge27" class="edge">
<title>4.1 BSD&#45;&gt;2.8 BSD</title>
<path fill="none" stroke="black" d="M331.1,-220.16C307.39,-208.95 272.78,-192.58 246.67,-180.23"/>
<polygon fill="black" stroke="black" points="248.01,-176.99 237.47,-175.88 245.01,-183.32 248.01,-176.99"/>
</g>
<!-- 4.2 BSD -->
<g id="node25" class="node">
<title>4.2 BSD</title>
<ellipse fill="#b2dfee" stroke="#b2dfee" cx="338.25" cy="-162" rx="42.49" ry="18"/>
<text text-anchor="middle" x="338.25" y="-158.3" font-family="Times New Roman,serif" font-size="14.00">4.2 BSD</text>
</g>
<!-- 4.1 BSD&#45;&gt;4.2 BSD -->
<g id="edge26" class="edge">
<title>4.1 BSD&#45;&gt;4.2 BSD</title>
<path fill="none" stroke="black" d="M353.41,-216.05C351.18,-208.26 348.48,-198.82 345.98,-190.08"/>
<polygon fill="black" stroke="black" points="349.3,-188.93 343.18,-180.28 342.57,-190.85 349.3,-188.93"/>
</g>
<!-- 4.3 BSD -->
<g id="node26" class="node">
<title>4.3 BSD</title>
<ellipse fill="#b2dfee" stroke="#b2dfee" cx="414.25" cy="-90" rx="42.49" ry="18"/>
<text text-anchor="middle" x="414.25" y="-86.3" font-family="Times New Roman,serif" font-size="14.00">4.3 BSD</text>
</g>
<!-- 4.2 BSD&#45;&gt;4.3 BSD -->
<g id="edge29" class="edge">
<title>4.2 BSD&#45;&gt;4.3 BSD</title>
<path fill="none" stroke="black" d="M355.11,-145.46C365.28,-136.11 378.39,-124.02 389.69,-113.62"/>
<polygon fill="black" stroke="black" points="392.18,-116.08 397.16,-106.73 387.44,-110.93 392.18,-116.08"/>
</g>
<!-- Ultrix&#45;32 -->
<g id="node27" class="node">
<title>Ultrix&#45;32</title>
<ellipse fill="#b2dfee" stroke="#b2dfee" cx="312.25" cy="-90" rx="42.49" ry="18"/>
<text text-anchor="middle" x="312.25" y="-86.3" font-family="Times New Roman,serif" font-size="14.00">Ultrix&#45;32</text>
</g>
<!-- 4.2 BSD&#45;&gt;Ultrix&#45;32 -->
<g id="edge30" class="edge">
<title>4.2 BSD&#45;&gt;Ultrix&#45;32</title>
<path fill="none" stroke="black" d="M331.95,-144.05C329.03,-136.18 325.48,-126.62 322.2,-117.79"/>
<polygon fill="black" stroke="black" points="325.43,-116.43 318.66,-108.28 318.86,-118.87 325.43,-116.43"/>
</g>
<!-- PWB 1.2&#45;&gt;PWB 2.0 -->
<g id="edge33" class="edge">
<title>PWB 1.2&#45;&gt;PWB 2.0</title>
<path fill="none" stroke="black" d="M643.17,-578.83C625.26,-568.3 600.63,-553.81 580.95,-542.24"/>
<polygon fill="black" stroke="black" points="582.69,-539.2 572.29,-537.14 579.14,-545.23 582.69,-539.2"/>
</g>
<!-- CB Unix 1 -->
<g id="node30" class="node">
<title>CB Unix 1</title>
<ellipse fill="#b2dfee" stroke="#b2dfee" cx="803.25" cy="-522" rx="49.29" ry="18"/>
<text text-anchor="middle" x="803.25" y="-518.3" font-family="Times New Roman,serif" font-size="14.00">CB Unix 1</text>
</g>
<!-- USG 1.0&#45;&gt;CB Unix 1 -->
<g id="edge34" class="edge">
<title>USG 1.0&#45;&gt;CB Unix 1</title>
<path fill="none" stroke="black" d="M779.75,-576.05C783.28,-568.09 787.57,-558.41 791.51,-549.51"/>
<polygon fill="black" stroke="black" points="794.75,-550.84 795.6,-540.28 788.35,-548 794.75,-550.84"/>
</g>
<!-- USG 2.0 -->
<g id="node31" class="node">
<title>USG 2.0</title>
<ellipse fill="#b2dfee" stroke="#b2dfee" cx="680.25" cy="-522" rx="42.79" ry="18"/>
<text text-anchor="middle" x="680.25" y="-518.3" font-family="Times New Roman,serif" font-size="14.00">USG 2.0</text>
</g>
<!-- USG 1.0&#45;&gt;USG 2.0 -->
<g id="edge35" class="edge">
<title>USG 1.0&#45;&gt;USG 2.0</title>
<path fill="none" stroke="black" d="M752.28,-577.81C739.39,-568 722.41,-555.08 708.18,-544.25"/>
<polygon fill="black" stroke="black" points="710.25,-541.43 700.17,-538.16 706.01,-547 710.25,-541.43"/>
</g>
<!-- CB Unix 2 -->
<g id="node32" class="node">
<title>CB Unix 2</title>
<ellipse fill="#b2dfee" stroke="#b2dfee" cx="841.25" cy="-450" rx="49.29" ry="18"/>
<text text-anchor="middle" x="841.25" y="-446.3" font-family="Times New Roman,serif" font-size="14.00">CB Unix 2</text>
</g>
<!-- CB Unix 1&#45;&gt;CB Unix 2 -->
<g id="edge36" class="edge">
<title>CB Unix 1&#45;&gt;CB Unix 2</title>
<path fill="none" stroke="black" d="M812.45,-504.05C816.88,-495.89 822.3,-485.91 827.23,-476.82"/>
<polygon fill="black" stroke="black" points="830.44,-478.25 832.13,-467.79 824.29,-474.91 830.44,-478.25"/>
</g>
<!-- USG 3.0 -->
<g id="node36" class="node">
<title>USG 3.0</title>
<ellipse fill="#b2dfee" stroke="#b2dfee" cx="602.25" cy="-450" rx="42.79" ry="18"/>
<text text-anchor="middle" x="602.25" y="-446.3" font-family="Times New Roman,serif" font-size="14.00">USG 3.0</text>
</g>
<!-- USG 2.0&#45;&gt;USG 3.0 -->
<g id="edge40" class="edge">
<title>USG 2.0&#45;&gt;USG 3.0</title>
<path fill="none" stroke="black" d="M662.94,-505.46C652.43,-496.04 638.86,-483.85 627.21,-473.4"/>
<polygon fill="black" stroke="black" points="629.29,-470.57 619.51,-466.49 624.61,-475.78 629.29,-470.57"/>
</g>
<!-- CB Unix 3 -->
<g id="node33" class="node">
<title>CB Unix 3</title>
<ellipse fill="#b2dfee" stroke="#b2dfee" cx="783.25" cy="-378" rx="49.29" ry="18"/>
<text text-anchor="middle" x="783.25" y="-374.3" font-family="Times New Roman,serif" font-size="14.00">CB Unix 3</text>
</g>
<!-- CB Unix 2&#45;&gt;CB Unix 3 -->
<g id="edge37" class="edge">
<title>CB Unix 2&#45;&gt;CB Unix 3</title>
<path fill="none" stroke="black" d="M827.5,-432.41C820.28,-423.69 811.29,-412.85 803.31,-403.21"/>
<polygon fill="black" stroke="black" points="805.97,-400.94 796.89,-395.47 800.58,-405.4 805.97,-400.94"/>
</g>
<!-- Unix/TS++ -->
<g id="node34" class="node">
<title>Unix/TS++</title>
<ellipse fill="#b2dfee" stroke="#b2dfee" cx="767.25" cy="-306" rx="51.99" ry="18"/>
<text text-anchor="middle" x="767.25" y="-302.3" font-family="Times New Roman,serif" font-size="14.00">Unix/TS++</text>
</g>
<!-- CB Unix 3&#45;&gt;Unix/TS++ -->
<g id="edge38" class="edge">
<title>CB Unix 3&#45;&gt;Unix/TS++</title>
<path fill="none" stroke="black" d="M779.37,-360.05C777.59,-352.26 775.44,-342.82 773.44,-334.08"/>
<polygon fill="black" stroke="black" points="776.84,-333.24 771.2,-324.28 770.01,-334.8 776.84,-333.24"/>
</g>
<!-- PDP&#45;11 Sys V -->
<g id="node35" class="node">
<title>PDP&#45;11 Sys V</title>
<ellipse fill="#b2dfee" stroke="#b2dfee" cx="901.25" cy="-306" rx="64.19" ry="18"/>
<text text-anchor="middle" x="901.25" y="-302.3" font-family="Times New Roman,serif" font-size="14.00">PDP&#45;11 Sys V</text>
</g>
<!-- CB Unix 3&#45;&gt;PDP&#45;11 Sys V -->
<g id="edge39" class="edge">
<title>CB Unix 3&#45;&gt;PDP&#45;11 Sys V</title>
<path fill="none" stroke="black" d="M807.98,-362.33C824.83,-352.33 847.37,-338.96 866.07,-327.87"/>
<polygon fill="black" stroke="black" points="868.09,-330.74 874.9,-322.63 864.52,-324.72 868.09,-330.74"/>
</g>
<!-- CB Unix 3&#45;&gt;TS 4.0 -->
<g id="edge46" class="edge">
<title>CB Unix 3&#45;&gt;TS 4.0</title>
<path fill="none" stroke="black" d="M753.4,-363.45C737.04,-354.52 717.79,-341.27 706.25,-324 694.01,-305.69 689.46,-280.92 687.86,-262.17"/>
<polygon fill="black" stroke="black" points="691.36,-261.94 687.24,-252.18 684.37,-262.38 691.36,-261.94"/>
</g>
<!-- Unix/TS++&#45;&gt;TS 4.0 -->
<g id="edge45" class="edge">
<title>Unix/TS++&#45;&gt;TS 4.0</title>
<path fill="none" stroke="black" d="M749.09,-289.12C738.05,-279.45 723.8,-266.99 711.77,-256.46"/>
<polygon fill="black" stroke="black" points="714.07,-253.81 704.23,-249.86 709.46,-259.08 714.07,-253.81"/>
</g>
<!-- USG 3.0&#45;&gt;Unix/TS 3.0 -->
<g id="edge41" class="edge">
<title>USG 3.0&#45;&gt;Unix/TS 3.0</title>
<path fill="none" stroke="black" d="M602.25,-431.7C602.25,-423.98 602.25,-414.71 602.25,-406.11"/>
<polygon fill="black" stroke="black" points="605.75,-406.1 602.25,-396.1 598.75,-406.1 605.75,-406.1"/>
</g>
<!-- Unix/TS 1.0 -->
<g id="node37" class="node">
<title>Unix/TS 1.0</title>
<ellipse fill="#b2dfee" stroke="#b2dfee" cx="718.25" cy="-450" rx="55.49" ry="18"/>
<text text-anchor="middle" x="718.25" y="-446.3" font-family="Times New Roman,serif" font-size="14.00">Unix/TS 1.0</text>
</g>
<!-- Unix/TS 1.0&#45;&gt;Unix/TS 3.0 -->
<g id="edge43" class="edge">
<title>Unix/TS 1.0&#45;&gt;Unix/TS 3.0</title>
<path fill="none" stroke="black" d="M693.08,-433.81C676.36,-423.72 654.21,-410.36 635.97,-399.35"/>
<polygon fill="black" stroke="black" points="637.74,-396.33 627.37,-394.16 634.12,-402.32 637.74,-396.33"/>
</g>
<!-- System V.0 -->
<g id="node39" class="node">
<title>System V.0</title>
<ellipse fill="#b2dfee" stroke="#b2dfee" cx="687.25" cy="-162" rx="53.09" ry="18"/>
<text text-anchor="middle" x="687.25" y="-158.3" font-family="Times New Roman,serif" font-size="14.00">System V.0</text>
</g>
<!-- TS 4.0&#45;&gt;System V.0 -->
<g id="edge47" class="edge">
<title>TS 4.0&#45;&gt;System V.0</title>
<path fill="none" stroke="black" d="M687.25,-215.7C687.25,-207.98 687.25,-198.71 687.25,-190.11"/>
<polygon fill="black" stroke="black" points="690.75,-190.1 687.25,-180.1 683.75,-190.1 690.75,-190.1"/>
</g>
<!-- System V.2 -->
<g id="node40" class="node">
<title>System V.2</title>
<ellipse fill="#b2dfee" stroke="#b2dfee" cx="687.25" cy="-90" rx="53.09" ry="18"/>
<text text-anchor="middle" x="687.25" y="-86.3" font-family="Times New Roman,serif" font-size="14.00">System V.2</text>
</g>
<!-- System V.0&#45;&gt;System V.2 -->
<g id="edge48" class="edge">
<title>System V.0&#45;&gt;System V.2</title>
<path fill="none" stroke="black" d="M687.25,-143.7C687.25,-135.98 687.25,-126.71 687.25,-118.11"/>
<polygon fill="black" stroke="black" points="690.75,-118.1 687.25,-108.1 683.75,-118.1 690.75,-118.1"/>
</g>
<!-- System V.3 -->
<g id="node41" class="node">
<title>System V.3</title>
<ellipse fill="#b2dfee" stroke="#b2dfee" cx="687.25" cy="-18" rx="53.09" ry="18"/>
<text text-anchor="middle" x="687.25" y="-14.3" font-family="Times New Roman,serif" font-size="14.00">System V.3</text>
</g>
<!-- System V.2&#45;&gt;System V.3 -->
<g id="edge49" class="edge">
<title>System V.2&#45;&gt;System V.3</title>
<path fill="none" stroke="black" d="M687.25,-71.7C687.25,-63.98 687.25,-54.71 687.25,-46.11"/>
<polygon fill="black" stroke="black" points="690.75,-46.1 687.25,-36.1 683.75,-46.1 690.75,-46.1"/>
</g>
</g>
</svg>
