<?xml version="1.0" encoding="UTF-8" standalone="no"?>
<!DOCTYPE svg PUBLIC "-//W3C//DTD SVG 1.1//EN"
 "http://www.w3.org/Graphics/SVG/1.1/DTD/svg11.dtd">
<!-- Generated by graphviz version 2.38.0 (20140413.2041)
 -->
<!-- Title: unix Pages: 1 -->
<svg width="432pt" height="345pt"
 viewBox="0.00 0.00 432.00 344.66" xmlns="http://www.w3.org/2000/svg" xmlns:xlink="http://www.w3.org/1999/xlink">
<g id="graph0" class="graph" transform="scale(0.451132 0.451132) rotate(0) translate(4 760)">
<title>unix</title>
<polygon fill="white" stroke="none" points="-4,4 -4,-760 953.592,-760 953.592,4 -4,4"/>
<!-- 5th Edition -->
<g id="node1" class="node"><title>5th Edition</title>
<ellipse fill="#b2dfee" stroke="#b2dfee" cx="581.247" cy="-738" rx="50.0912" ry="18"/>
<text text-anchor="middle" x="581.247" y="-734.3" font-family="Times New Roman,serif" font-size="14.00">5th Edition</text>
</g>
<!-- 6th Edition -->
<g id="node2" class="node"><title>6th Edition</title>
<ellipse fill="#b2dfee" stroke="#b2dfee" cx="425.247" cy="-666" rx="50.0912" ry="18"/>
<text text-anchor="middle" x="425.247" y="-662.3" font-family="Times New Roman,serif" font-size="14.00">6th Edition</text>
</g>
<!-- 5th Edition&#45;&gt;6th Edition -->
<g id="edge1" class="edge"><title>5th Edition&#45;&gt;6th Edition</title>
<path fill="none" stroke="black" d="M551.169,-723.503C526.458,-712.415 491.271,-696.626 464.372,-684.556"/>
<polygon fill="black" stroke="black" points="465.79,-681.356 455.233,-680.455 462.924,-687.743 465.79,-681.356"/>
</g>
<!-- PWB 1.0 -->
<g id="node3" class="node"><title>PWB 1.0</title>
<ellipse fill="#b2dfee" stroke="#b2dfee" cx="677.247" cy="-666" rx="44.393" ry="18"/>
<text text-anchor="middle" x="677.247" y="-662.3" font-family="Times New Roman,serif" font-size="14.00">PWB 1.0</text>
</g>
<!-- 5th Edition&#45;&gt;PWB 1.0 -->
<g id="edge2" class="edge"><title>5th Edition&#45;&gt;PWB 1.0</title>
<path fill="none" stroke="black" d="M602.553,-721.465C616.036,-711.633 633.641,-698.797 648.372,-688.055"/>
<polygon fill="black" stroke="black" points="650.642,-690.731 656.66,-682.011 646.518,-685.075 650.642,-690.731"/>
</g>
<!-- LSX -->
<g id="node4" class="node"><title>LSX</title>
<ellipse fill="#b2dfee" stroke="#b2dfee" cx="587.247" cy="-594" rx="27.8951" ry="18"/>
<text text-anchor="middle" x="587.247" y="-590.3" font-family="Times New Roman,serif" font-size="14.00">LSX</text>
</g>
<!-- 6th Edition&#45;&gt;LSX -->
<g id="edge3" class="edge"><title>6th Edition&#45;&gt;LSX</title>
<path fill="none" stroke="black" d="M456.695,-651.97C482.04,-641.396 518.551,-625.998 550.247,-612 552.042,-611.208 553.882,-610.387 555.737,-609.554"/>
<polygon fill="black" stroke="black" points="557.331,-612.675 564.991,-605.355 554.438,-606.3 557.331,-612.675"/>
</g>
<!-- 1 BSD -->
<g id="node5" class="node"><title>1 BSD</title>
<ellipse fill="#b2dfee" stroke="#b2dfee" cx="127.247" cy="-594" rx="35.194" ry="18"/>
<text text-anchor="middle" x="127.247" y="-590.3" font-family="Times New Roman,serif" font-size="14.00">1 BSD</text>
</g>
<!-- 6th Edition&#45;&gt;1 BSD -->
<g id="edge4" class="edge"><title>6th Edition&#45;&gt;1 BSD</title>
<path fill="none" stroke="black" d="M384.437,-655.414C327.595,-642.061 225.177,-618.004 168.239,-604.629"/>
<polygon fill="black" stroke="black" points="169.03,-601.219 158.494,-602.34 167.429,-608.034 169.03,-601.219"/>
</g>
<!-- Mini Unix -->
<g id="node6" class="node"><title>Mini Unix</title>
<ellipse fill="#b2dfee" stroke="#b2dfee" cx="365.247" cy="-594" rx="46.2923" ry="18"/>
<text text-anchor="middle" x="365.247" y="-590.3" font-family="Times New Roman,serif" font-size="14.00">Mini Unix</text>
</g>
<!-- 6th Edition&#45;&gt;Mini Unix -->
<g id="edge5" class="edge"><title>6th Edition&#45;&gt;Mini Unix</title>
<path fill="none" stroke="black" d="M411.028,-648.411C403.556,-639.693 394.258,-628.845 385.997,-619.208"/>
<polygon fill="black" stroke="black" points="388.53,-616.785 379.365,-611.47 383.215,-621.34 388.53,-616.785"/>
</g>
<!-- Wollongong -->
<g id="node7" class="node"><title>Wollongong</title>
<ellipse fill="#b2dfee" stroke="#b2dfee" cx="485.247" cy="-594" rx="55.7903" ry="18"/>
<text text-anchor="middle" x="485.247" y="-590.3" font-family="Times New Roman,serif" font-size="14.00">Wollongong</text>
</g>
<!-- 6th Edition&#45;&gt;Wollongong -->
<g id="edge6" class="edge"><title>6th Edition&#45;&gt;Wollongong</title>
<path fill="none" stroke="black" d="M439.467,-648.411C446.939,-639.693 456.237,-628.845 464.498,-619.208"/>
<polygon fill="black" stroke="black" points="467.28,-621.34 471.13,-611.47 461.965,-616.785 467.28,-621.34"/>
</g>
<!-- Interdata -->
<g id="node8" class="node"><title>Interdata</title>
<ellipse fill="#b2dfee" stroke="#b2dfee" cx="259.247" cy="-594" rx="42.4939" ry="18"/>
<text text-anchor="middle" x="259.247" y="-590.3" font-family="Times New Roman,serif" font-size="14.00">Interdata</text>
</g>
<!-- 6th Edition&#45;&gt;Interdata -->
<g id="edge7" class="edge"><title>6th Edition&#45;&gt;Interdata</title>
<path fill="none" stroke="black" d="M394.024,-651.834C366.685,-640.305 326.868,-623.515 297.598,-611.172"/>
<polygon fill="black" stroke="black" points="298.683,-607.831 288.109,-607.171 295.963,-614.281 298.683,-607.831"/>
</g>
<!-- PWB 1.2 -->
<g id="node28" class="node"><title>PWB 1.2</title>
<ellipse fill="#b2dfee" stroke="#b2dfee" cx="677.247" cy="-594" rx="44.393" ry="18"/>
<text text-anchor="middle" x="677.247" y="-590.3" font-family="Times New Roman,serif" font-size="14.00">PWB 1.2</text>
</g>
<!-- PWB 1.0&#45;&gt;PWB 1.2 -->
<g id="edge31" class="edge"><title>PWB 1.0&#45;&gt;PWB 1.2</title>
<path fill="none" stroke="black" d="M677.247,-647.697C677.247,-639.983 677.247,-630.712 677.247,-622.112"/>
<polygon fill="black" stroke="black" points="680.748,-622.104 677.247,-612.104 673.748,-622.104 680.748,-622.104"/>
</g>
<!-- USG 1.0 -->
<g id="node29" class="node"><title>USG 1.0</title>
<ellipse fill="#b2dfee" stroke="#b2dfee" cx="782.247" cy="-594" rx="42.7926" ry="18"/>
<text text-anchor="middle" x="782.247" y="-590.3" font-family="Times New Roman,serif" font-size="14.00">USG 1.0</text>
</g>
<!-- PWB 1.0&#45;&gt;USG 1.0 -->
<g id="edge32" class="edge"><title>PWB 1.0&#45;&gt;USG 1.0</title>
<path fill="none" stroke="black" d="M699.259,-650.326C714.519,-640.152 735.039,-626.472 751.856,-615.261"/>
<polygon fill="black" stroke="black" points="753.886,-618.114 760.265,-609.655 750.003,-612.29 753.886,-618.114"/>
</g>
<!-- 2 BSD -->
<g id="node19" class="node"><title>2 BSD</title>
<ellipse fill="#b2dfee" stroke="#b2dfee" cx="89.2474" cy="-234" rx="35.194" ry="18"/>
<text text-anchor="middle" x="89.2474" y="-230.3" font-family="Times New Roman,serif" font-size="14.00">2 BSD</text>
</g>
<!-- 1 BSD&#45;&gt;2 BSD -->
<g id="edge19" class="edge"><title>1 BSD&#45;&gt;2 BSD</title>
<path fill="none" stroke="black" d="M122.111,-576.134C114.533,-549.719 101.247,-496.865 101.247,-451 101.247,-451 101.247,-451 101.247,-377 101.247,-336.853 96.426,-290.548 92.8954,-262.022"/>
<polygon fill="black" stroke="black" points="96.3555,-261.487 91.6182,-252.01 89.4118,-262.373 96.3555,-261.487"/>
</g>
<!-- Unix/TS 3.0 -->
<g id="node9" class="node"><title>Unix/TS 3.0</title>
<ellipse fill="#b2dfee" stroke="#b2dfee" cx="617.247" cy="-378" rx="55.4913" ry="18"/>
<text text-anchor="middle" x="617.247" y="-374.3" font-family="Times New Roman,serif" font-size="14.00">Unix/TS 3.0</text>
</g>
<!-- Interdata&#45;&gt;Unix/TS 3.0 -->
<g id="edge8" class="edge"><title>Interdata&#45;&gt;Unix/TS 3.0</title>
<path fill="none" stroke="black" d="M282.737,-578.959C344.347,-542.13 510.807,-442.627 583.035,-399.451"/>
<polygon fill="black" stroke="black" points="584.982,-402.365 591.77,-394.229 581.391,-396.356 584.982,-402.365"/>
</g>
<!-- PWB 2.0 -->
<g id="node10" class="node"><title>PWB 2.0</title>
<ellipse fill="#b2dfee" stroke="#b2dfee" cx="560.247" cy="-522" rx="44.393" ry="18"/>
<text text-anchor="middle" x="560.247" y="-518.3" font-family="Times New Roman,serif" font-size="14.00">PWB 2.0</text>
</g>
<!-- Interdata&#45;&gt;PWB 2.0 -->
<g id="edge9" class="edge"><title>Interdata&#45;&gt;PWB 2.0</title>
<path fill="none" stroke="black" d="M290.605,-581.802C297.053,-579.71 303.833,-577.662 310.247,-576 394.292,-554.222 417.818,-560.235 502.247,-540 506.852,-538.896 511.635,-537.654 516.392,-536.355"/>
<polygon fill="black" stroke="black" points="517.371,-539.715 526.05,-533.638 515.476,-532.977 517.371,-539.715"/>
</g>
<!-- 7th Edition -->
<g id="node11" class="node"><title>7th Edition</title>
<ellipse fill="#b2dfee" stroke="#b2dfee" cx="259.247" cy="-522" rx="50.0912" ry="18"/>
<text text-anchor="middle" x="259.247" y="-518.3" font-family="Times New Roman,serif" font-size="14.00">7th Edition</text>
</g>
<!-- Interdata&#45;&gt;7th Edition -->
<g id="edge10" class="edge"><title>Interdata&#45;&gt;7th Edition</title>
<path fill="none" stroke="black" d="M259.247,-575.697C259.247,-567.983 259.247,-558.712 259.247,-550.112"/>
<polygon fill="black" stroke="black" points="262.748,-550.104 259.247,-540.104 255.748,-550.104 262.748,-550.104"/>
</g>
<!-- TS 4.0 -->
<g id="node38" class="node"><title>TS 4.0</title>
<ellipse fill="#b2dfee" stroke="#b2dfee" cx="671.247" cy="-234" rx="35.9954" ry="18"/>
<text text-anchor="middle" x="671.247" y="-230.3" font-family="Times New Roman,serif" font-size="14.00">TS 4.0</text>
</g>
<!-- Unix/TS 3.0&#45;&gt;TS 4.0 -->
<g id="edge44" class="edge"><title>Unix/TS 3.0&#45;&gt;TS 4.0</title>
<path fill="none" stroke="black" d="M623.761,-359.871C633.096,-335.325 650.355,-289.938 661.296,-261.17"/>
<polygon fill="black" stroke="black" points="664.595,-262.339 664.878,-251.748 658.052,-259.851 664.595,-262.339"/>
</g>
<!-- PWB 2.0&#45;&gt;Unix/TS 3.0 -->
<g id="edge42" class="edge"><title>PWB 2.0&#45;&gt;Unix/TS 3.0</title>
<path fill="none" stroke="black" d="M557.747,-503.773C555.824,-485.212 554.991,-455.216 565.247,-432 570.375,-420.393 579.248,-409.876 588.228,-401.327"/>
<polygon fill="black" stroke="black" points="590.597,-403.904 595.716,-394.627 585.929,-398.687 590.597,-403.904"/>
</g>
<!-- 8th Edition -->
<g id="node12" class="node"><title>8th Edition</title>
<ellipse fill="#b2dfee" stroke="#b2dfee" cx="460.247" cy="-162" rx="50.0912" ry="18"/>
<text text-anchor="middle" x="460.247" y="-158.3" font-family="Times New Roman,serif" font-size="14.00">8th Edition</text>
</g>
<!-- 7th Edition&#45;&gt;8th Edition -->
<g id="edge11" class="edge"><title>7th Edition&#45;&gt;8th Edition</title>
<path fill="none" stroke="black" d="M302.4,-512.879C347.423,-503.537 413.844,-487.017 431.247,-468 458.553,-438.161 450.247,-419.447 450.247,-379 450.247,-379 450.247,-379 450.247,-305 450.247,-264.897 454.265,-218.58 457.207,-190.04"/>
<polygon fill="black" stroke="black" points="460.696,-190.336 458.272,-180.022 453.735,-189.596 460.696,-190.336"/>
</g>
<!-- 32V -->
<g id="node13" class="node"><title>32V</title>
<ellipse fill="#b2dfee" stroke="#b2dfee" cx="395.247" cy="-450" rx="27" ry="18"/>
<text text-anchor="middle" x="395.247" y="-446.3" font-family="Times New Roman,serif" font-size="14.00">32V</text>
</g>
<!-- 7th Edition&#45;&gt;32V -->
<g id="edge12" class="edge"><title>7th Edition&#45;&gt;32V</title>
<path fill="none" stroke="black" d="M286.769,-506.834C309.554,-495.107 341.871,-478.473 365.3,-466.414"/>
<polygon fill="black" stroke="black" points="367.14,-469.403 374.43,-461.715 363.937,-463.179 367.14,-469.403"/>
</g>
<!-- V7M -->
<g id="node14" class="node"><title>V7M</title>
<ellipse fill="#b2dfee" stroke="#b2dfee" cx="29.2474" cy="-378" rx="29.4969" ry="18"/>
<text text-anchor="middle" x="29.2474" y="-374.3" font-family="Times New Roman,serif" font-size="14.00">V7M</text>
</g>
<!-- 7th Edition&#45;&gt;V7M -->
<g id="edge13" class="edge"><title>7th Edition&#45;&gt;V7M</title>
<path fill="none" stroke="black" d="M224.899,-508.836C199.981,-499.335 165.933,-484.928 138.247,-468 106.089,-448.337 73.1008,-420.047 51.9643,-400.672"/>
<polygon fill="black" stroke="black" points="54.1816,-397.955 44.4703,-393.719 49.4206,-403.086 54.1816,-397.955"/>
</g>
<!-- Ultrix&#45;11 -->
<g id="node15" class="node"><title>Ultrix&#45;11</title>
<ellipse fill="#b2dfee" stroke="#b2dfee" cx="120.247" cy="-90" rx="42.4939" ry="18"/>
<text text-anchor="middle" x="120.247" y="-86.3" font-family="Times New Roman,serif" font-size="14.00">Ultrix&#45;11</text>
</g>
<!-- 7th Edition&#45;&gt;Ultrix&#45;11 -->
<g id="edge14" class="edge"><title>7th Edition&#45;&gt;Ultrix&#45;11</title>
<path fill="none" stroke="black" d="M225.626,-508.64C206.847,-500.043 184.606,-486.731 171.247,-468 147.762,-435.07 152.247,-419.447 152.247,-379 152.247,-379 152.247,-379 152.247,-233 152.247,-192.037 139.418,-146.018 130.006,-117.768"/>
<polygon fill="black" stroke="black" points="133.281,-116.528 126.723,-108.207 126.66,-118.801 133.281,-116.528"/>
</g>
<!-- Xenix -->
<g id="node16" class="node"><title>Xenix</title>
<ellipse fill="#b2dfee" stroke="#b2dfee" cx="212.247" cy="-450" rx="31.6951" ry="18"/>
<text text-anchor="middle" x="212.247" y="-446.3" font-family="Times New Roman,serif" font-size="14.00">Xenix</text>
</g>
<!-- 7th Edition&#45;&gt;Xenix -->
<g id="edge15" class="edge"><title>7th Edition&#45;&gt;Xenix</title>
<path fill="none" stroke="black" d="M248.109,-504.411C242.29,-495.744 235.057,-484.971 228.614,-475.375"/>
<polygon fill="black" stroke="black" points="231.462,-473.339 222.982,-466.988 225.651,-477.241 231.462,-473.339"/>
</g>
<!-- UniPlus+ -->
<g id="node17" class="node"><title>UniPlus+</title>
<ellipse fill="#b2dfee" stroke="#b2dfee" cx="306.247" cy="-450" rx="44.393" ry="18"/>
<text text-anchor="middle" x="306.247" y="-446.3" font-family="Times New Roman,serif" font-size="14.00">UniPlus+</text>
</g>
<!-- 7th Edition&#45;&gt;UniPlus+ -->
<g id="edge16" class="edge"><title>7th Edition&#45;&gt;UniPlus+</title>
<path fill="none" stroke="black" d="M270.386,-504.411C276.122,-495.868 283.232,-485.278 289.604,-475.787"/>
<polygon fill="black" stroke="black" points="292.52,-477.723 295.189,-467.47 286.709,-473.821 292.52,-477.723"/>
</g>
<!-- 9th Edition -->
<g id="node18" class="node"><title>9th Edition</title>
<ellipse fill="#b2dfee" stroke="#b2dfee" cx="536.247" cy="-90" rx="50.0912" ry="18"/>
<text text-anchor="middle" x="536.247" y="-86.3" font-family="Times New Roman,serif" font-size="14.00">9th Edition</text>
</g>
<!-- 8th Edition&#45;&gt;9th Edition -->
<g id="edge18" class="edge"><title>8th Edition&#45;&gt;9th Edition</title>
<path fill="none" stroke="black" d="M477.874,-144.765C487.825,-135.6 500.421,-123.998 511.364,-113.919"/>
<polygon fill="black" stroke="black" points="513.994,-116.255 518.978,-106.906 509.251,-111.106 513.994,-116.255"/>
</g>
<!-- 3 BSD -->
<g id="node22" class="node"><title>3 BSD</title>
<ellipse fill="#b2dfee" stroke="#b2dfee" cx="375.247" cy="-378" rx="35.194" ry="18"/>
<text text-anchor="middle" x="375.247" y="-374.3" font-family="Times New Roman,serif" font-size="14.00">3 BSD</text>
</g>
<!-- 32V&#45;&gt;3 BSD -->
<g id="edge23" class="edge"><title>32V&#45;&gt;3 BSD</title>
<path fill="none" stroke="black" d="M390.406,-432.055C388.179,-424.261 385.482,-414.822 382.984,-406.079"/>
<polygon fill="black" stroke="black" points="386.296,-404.929 380.183,-396.275 379.565,-406.852 386.296,-404.929"/>
</g>
<!-- V7M&#45;&gt;Ultrix&#45;11 -->
<g id="edge17" class="edge"><title>V7M&#45;&gt;Ultrix&#45;11</title>
<path fill="none" stroke="black" d="M28.521,-359.567C27.8007,-329.461 28.6491,-266.131 45.2474,-216 57.7873,-178.126 83.3227,-139.498 101.094,-115.406"/>
<polygon fill="black" stroke="black" points="104.039,-117.312 107.251,-107.216 98.4443,-113.105 104.039,-117.312"/>
</g>
<!-- 2.8 BSD -->
<g id="node20" class="node"><title>2.8 BSD</title>
<ellipse fill="#b2dfee" stroke="#b2dfee" cx="222.247" cy="-162" rx="42.4939" ry="18"/>
<text text-anchor="middle" x="222.247" y="-158.3" font-family="Times New Roman,serif" font-size="14.00">2.8 BSD</text>
</g>
<!-- 2 BSD&#45;&gt;2.8 BSD -->
<g id="edge20" class="edge"><title>2 BSD&#45;&gt;2.8 BSD</title>
<path fill="none" stroke="black" d="M113.025,-220.485C133.737,-209.584 164.038,-193.637 187.473,-181.302"/>
<polygon fill="black" stroke="black" points="189.185,-184.357 196.404,-176.602 185.925,-178.162 189.185,-184.357"/>
</g>
<!-- 2.8 BSD&#45;&gt;Ultrix&#45;11 -->
<g id="edge21" class="edge"><title>2.8 BSD&#45;&gt;Ultrix&#45;11</title>
<path fill="none" stroke="black" d="M200.616,-146.155C185.912,-136.064 166.268,-122.583 150.081,-111.474"/>
<polygon fill="black" stroke="black" points="151.724,-108.356 141.498,-105.584 147.763,-114.128 151.724,-108.356"/>
</g>
<!-- 2.9 BSD -->
<g id="node21" class="node"><title>2.9 BSD</title>
<ellipse fill="#b2dfee" stroke="#b2dfee" cx="222.247" cy="-90" rx="42.4939" ry="18"/>
<text text-anchor="middle" x="222.247" y="-86.3" font-family="Times New Roman,serif" font-size="14.00">2.9 BSD</text>
</g>
<!-- 2.8 BSD&#45;&gt;2.9 BSD -->
<g id="edge22" class="edge"><title>2.8 BSD&#45;&gt;2.9 BSD</title>
<path fill="none" stroke="black" d="M222.247,-143.697C222.247,-135.983 222.247,-126.712 222.247,-118.112"/>
<polygon fill="black" stroke="black" points="225.748,-118.104 222.247,-108.104 218.748,-118.104 225.748,-118.104"/>
</g>
<!-- 4 BSD -->
<g id="node23" class="node"><title>4 BSD</title>
<ellipse fill="#b2dfee" stroke="#b2dfee" cx="372.247" cy="-306" rx="35.194" ry="18"/>
<text text-anchor="middle" x="372.247" y="-302.3" font-family="Times New Roman,serif" font-size="14.00">4 BSD</text>
</g>
<!-- 3 BSD&#45;&gt;4 BSD -->
<g id="edge24" class="edge"><title>3 BSD&#45;&gt;4 BSD</title>
<path fill="none" stroke="black" d="M374.506,-359.697C374.175,-351.983 373.778,-342.712 373.409,-334.112"/>
<polygon fill="black" stroke="black" points="376.906,-333.945 372.98,-324.104 369.912,-334.245 376.906,-333.945"/>
</g>
<!-- 4.1 BSD -->
<g id="node24" class="node"><title>4.1 BSD</title>
<ellipse fill="#b2dfee" stroke="#b2dfee" cx="370.247" cy="-234" rx="42.4939" ry="18"/>
<text text-anchor="middle" x="370.247" y="-230.3" font-family="Times New Roman,serif" font-size="14.00">4.1 BSD</text>
</g>
<!-- 4 BSD&#45;&gt;4.1 BSD -->
<g id="edge25" class="edge"><title>4 BSD&#45;&gt;4.1 BSD</title>
<path fill="none" stroke="black" d="M371.753,-287.697C371.533,-279.983 371.268,-270.712 371.022,-262.112"/>
<polygon fill="black" stroke="black" points="374.52,-262 370.736,-252.104 367.523,-262.2 374.52,-262"/>
</g>
<!-- 4.1 BSD&#45;&gt;8th Edition -->
<g id="edge28" class="edge"><title>4.1 BSD&#45;&gt;8th Edition</title>
<path fill="none" stroke="black" d="M389.776,-217.811C402.106,-208.221 418.241,-195.672 431.959,-185.002"/>
<polygon fill="black" stroke="black" points="434.389,-187.546 440.134,-178.644 430.091,-182.021 434.389,-187.546"/>
</g>
<!-- 4.1 BSD&#45;&gt;2.8 BSD -->
<g id="edge27" class="edge"><title>4.1 BSD&#45;&gt;2.8 BSD</title>
<path fill="none" stroke="black" d="M343.102,-220.161C319.393,-208.947 284.783,-192.578 258.671,-180.227"/>
<polygon fill="black" stroke="black" points="260.007,-176.988 249.471,-175.876 257.014,-183.316 260.007,-176.988"/>
</g>
<!-- 4.2 BSD -->
<g id="node25" class="node"><title>4.2 BSD</title>
<ellipse fill="#b2dfee" stroke="#b2dfee" cx="350.247" cy="-162" rx="42.4939" ry="18"/>
<text text-anchor="middle" x="350.247" y="-158.3" font-family="Times New Roman,serif" font-size="14.00">4.2 BSD</text>
</g>
<!-- 4.1 BSD&#45;&gt;4.2 BSD -->
<g id="edge26" class="edge"><title>4.1 BSD&#45;&gt;4.2 BSD</title>
<path fill="none" stroke="black" d="M365.406,-216.055C363.179,-208.261 360.482,-198.822 357.984,-190.079"/>
<polygon fill="black" stroke="black" points="361.296,-188.929 355.183,-180.275 354.565,-190.852 361.296,-188.929"/>
</g>
<!-- 4.3 BSD -->
<g id="node26" class="node"><title>4.3 BSD</title>
<ellipse fill="#b2dfee" stroke="#b2dfee" cx="426.247" cy="-90" rx="42.4939" ry="18"/>
<text text-anchor="middle" x="426.247" y="-86.3" font-family="Times New Roman,serif" font-size="14.00">4.3 BSD</text>
</g>
<!-- 4.2 BSD&#45;&gt;4.3 BSD -->
<g id="edge29" class="edge"><title>4.2 BSD&#45;&gt;4.3 BSD</title>
<path fill="none" stroke="black" d="M367.114,-145.465C377.276,-136.105 390.395,-124.022 401.693,-113.616"/>
<polygon fill="black" stroke="black" points="404.181,-116.083 409.165,-106.734 399.438,-110.934 404.181,-116.083"/>
</g>
<!-- Ultrix&#45;32 -->
<g id="node27" class="node"><title>Ultrix&#45;32</title>
<ellipse fill="#b2dfee" stroke="#b2dfee" cx="324.247" cy="-90" rx="42.4939" ry="18"/>
<text text-anchor="middle" x="324.247" y="-86.3" font-family="Times New Roman,serif" font-size="14.00">Ultrix&#45;32</text>
</g>
<!-- 4.2 BSD&#45;&gt;Ultrix&#45;32 -->
<g id="edge30" class="edge"><title>4.2 BSD&#45;&gt;Ultrix&#45;32</title>
<path fill="none" stroke="black" d="M343.954,-144.055C341.027,-136.176 337.476,-126.617 334.199,-117.794"/>
<polygon fill="black" stroke="black" points="337.427,-116.431 330.664,-108.275 330.865,-118.868 337.427,-116.431"/>
</g>
<!-- PWB 1.2&#45;&gt;PWB 2.0 -->
<g id="edge33" class="edge"><title>PWB 1.2&#45;&gt;PWB 2.0</title>
<path fill="none" stroke="black" d="M653.288,-578.666C635.858,-568.237 612.055,-553.996 592.888,-542.529"/>
<polygon fill="black" stroke="black" points="594.553,-539.446 584.174,-537.315 590.959,-545.453 594.553,-539.446"/>
</g>
<!-- CB Unix 1 -->
<g id="node30" class="node"><title>CB Unix 1</title>
<ellipse fill="#b2dfee" stroke="#b2dfee" cx="834.247" cy="-522" rx="49.2915" ry="18"/>
<text text-anchor="middle" x="834.247" y="-518.3" font-family="Times New Roman,serif" font-size="14.00">CB Unix 1</text>
</g>
<!-- USG 1.0&#45;&gt;CB Unix 1 -->
<g id="edge34" class="edge"><title>USG 1.0&#45;&gt;CB Unix 1</title>
<path fill="none" stroke="black" d="M794.571,-576.411C800.917,-567.868 808.783,-557.278 815.834,-547.787"/>
<polygon fill="black" stroke="black" points="818.859,-549.585 822.013,-539.47 813.24,-545.41 818.859,-549.585"/>
</g>
<!-- USG 2.0 -->
<g id="node31" class="node"><title>USG 2.0</title>
<ellipse fill="#b2dfee" stroke="#b2dfee" cx="700.247" cy="-522" rx="42.7926" ry="18"/>
<text text-anchor="middle" x="700.247" y="-518.3" font-family="Times New Roman,serif" font-size="14.00">USG 2.0</text>
</g>
<!-- USG 1.0&#45;&gt;USG 2.0 -->
<g id="edge35" class="edge"><title>USG 1.0&#45;&gt;USG 2.0</title>
<path fill="none" stroke="black" d="M764.049,-577.465C752.902,-567.949 738.458,-555.619 726.132,-545.097"/>
<polygon fill="black" stroke="black" points="728.273,-542.323 718.395,-538.492 723.728,-547.646 728.273,-542.323"/>
</g>
<!-- CB Unix 2 -->
<g id="node32" class="node"><title>CB Unix 2</title>
<ellipse fill="#b2dfee" stroke="#b2dfee" cx="856.247" cy="-450" rx="49.2915" ry="18"/>
<text text-anchor="middle" x="856.247" y="-446.3" font-family="Times New Roman,serif" font-size="14.00">CB Unix 2</text>
</g>
<!-- CB Unix 1&#45;&gt;CB Unix 2 -->
<g id="edge36" class="edge"><title>CB Unix 1&#45;&gt;CB Unix 2</title>
<path fill="none" stroke="black" d="M839.573,-504.055C842.023,-496.261 844.989,-486.822 847.737,-478.079"/>
<polygon fill="black" stroke="black" points="851.159,-478.865 850.818,-468.275 844.481,-476.766 851.159,-478.865"/>
</g>
<!-- USG 3.0 -->
<g id="node36" class="node"><title>USG 3.0</title>
<ellipse fill="#b2dfee" stroke="#b2dfee" cx="617.247" cy="-450" rx="42.7926" ry="18"/>
<text text-anchor="middle" x="617.247" y="-446.3" font-family="Times New Roman,serif" font-size="14.00">USG 3.0</text>
</g>
<!-- USG 2.0&#45;&gt;USG 3.0 -->
<g id="edge40" class="edge"><title>USG 2.0&#45;&gt;USG 3.0</title>
<path fill="none" stroke="black" d="M681.827,-505.465C670.544,-495.949 655.924,-483.619 643.448,-473.097"/>
<polygon fill="black" stroke="black" points="645.517,-470.263 635.616,-466.492 641.004,-475.614 645.517,-470.263"/>
</g>
<!-- CB Unix 3 -->
<g id="node33" class="node"><title>CB Unix 3</title>
<ellipse fill="#b2dfee" stroke="#b2dfee" cx="798.247" cy="-378" rx="49.2915" ry="18"/>
<text text-anchor="middle" x="798.247" y="-374.3" font-family="Times New Roman,serif" font-size="14.00">CB Unix 3</text>
</g>
<!-- CB Unix 2&#45;&gt;CB Unix 3 -->
<g id="edge37" class="edge"><title>CB Unix 2&#45;&gt;CB Unix 3</title>
<path fill="none" stroke="black" d="M842.502,-432.411C835.279,-423.693 826.291,-412.845 818.305,-403.208"/>
<polygon fill="black" stroke="black" points="820.969,-400.937 811.894,-395.47 815.579,-405.403 820.969,-400.937"/>
</g>
<!-- Unix/TS++ -->
<g id="node34" class="node"><title>Unix/TS++</title>
<ellipse fill="#b2dfee" stroke="#b2dfee" cx="751.247" cy="-306" rx="51.9908" ry="18"/>
<text text-anchor="middle" x="751.247" y="-302.3" font-family="Times New Roman,serif" font-size="14.00">Unix/TS++</text>
</g>
<!-- CB Unix 3&#45;&gt;Unix/TS++ -->
<g id="edge38" class="edge"><title>CB Unix 3&#45;&gt;Unix/TS++</title>
<path fill="none" stroke="black" d="M787.109,-360.411C781.514,-352.077 774.611,-341.797 768.361,-332.488"/>
<polygon fill="black" stroke="black" points="771.112,-330.307 762.632,-323.956 765.301,-334.209 771.112,-330.307"/>
</g>
<!-- PDP&#45;11 Sys V -->
<g id="node35" class="node"><title>PDP&#45;11 Sys V</title>
<ellipse fill="#b2dfee" stroke="#b2dfee" cx="885.247" cy="-306" rx="64.189" ry="18"/>
<text text-anchor="middle" x="885.247" y="-302.3" font-family="Times New Roman,serif" font-size="14.00">PDP&#45;11 Sys V</text>
</g>
<!-- CB Unix 3&#45;&gt;PDP&#45;11 Sys V -->
<g id="edge39" class="edge"><title>CB Unix 3&#45;&gt;PDP&#45;11 Sys V</title>
<path fill="none" stroke="black" d="M817.989,-361.116C829.504,-351.851 844.223,-340.008 856.955,-329.764"/>
<polygon fill="black" stroke="black" points="859.383,-332.303 864.98,-323.307 854.995,-326.849 859.383,-332.303"/>
</g>
<!-- CB Unix 3&#45;&gt;TS 4.0 -->
<g id="edge46" class="edge"><title>CB Unix 3&#45;&gt;TS 4.0</title>
<path fill="none" stroke="black" d="M758.713,-367.042C735.388,-359.15 707.204,-345.738 690.247,-324 676.618,-306.528 672.22,-281.486 671.029,-262.414"/>
<polygon fill="black" stroke="black" points="674.52,-262.113 670.656,-252.248 667.525,-262.37 674.52,-262.113"/>
</g>
<!-- Unix/TS++&#45;&gt;TS 4.0 -->
<g id="edge45" class="edge"><title>Unix/TS++&#45;&gt;TS 4.0</title>
<path fill="none" stroke="black" d="M733.094,-289.116C722.052,-279.454 707.805,-266.988 695.769,-256.456"/>
<polygon fill="black" stroke="black" points="698.065,-253.815 688.235,-249.864 693.456,-259.083 698.065,-253.815"/>
</g>
<!-- USG 3.0&#45;&gt;Unix/TS 3.0 -->
<g id="edge41" class="edge"><title>USG 3.0&#45;&gt;Unix/TS 3.0</title>
<path fill="none" stroke="black" d="M617.247,-431.697C617.247,-423.983 617.247,-414.712 617.247,-406.112"/>
<polygon fill="black" stroke="black" points="620.748,-406.104 617.247,-396.104 613.748,-406.104 620.748,-406.104"/>
</g>
<!-- Unix/TS 1.0 -->
<g id="node37" class="node"><title>Unix/TS 1.0</title>
<ellipse fill="#b2dfee" stroke="#b2dfee" cx="733.247" cy="-450" rx="55.4913" ry="18"/>
<text text-anchor="middle" x="733.247" y="-446.3" font-family="Times New Roman,serif" font-size="14.00">Unix/TS 1.0</text>
</g>
<!-- Unix/TS 1.0&#45;&gt;Unix/TS 3.0 -->
<g id="edge43" class="edge"><title>Unix/TS 1.0&#45;&gt;Unix/TS 3.0</title>
<path fill="none" stroke="black" d="M708.077,-433.811C691.356,-423.721 669.207,-410.355 650.968,-399.348"/>
<polygon fill="black" stroke="black" points="652.739,-396.329 642.369,-394.159 649.122,-402.323 652.739,-396.329"/>
</g>
<!-- System V.0 -->
<g id="node39" class="node"><title>System V.0</title>
<ellipse fill="#b2dfee" stroke="#b2dfee" cx="671.247" cy="-162" rx="53.0913" ry="18"/>
<text text-anchor="middle" x="671.247" y="-158.3" font-family="Times New Roman,serif" font-size="14.00">System V.0</text>
</g>
<!-- TS 4.0&#45;&gt;System V.0 -->
<g id="edge47" class="edge"><title>TS 4.0&#45;&gt;System V.0</title>
<path fill="none" stroke="black" d="M671.247,-215.697C671.247,-207.983 671.247,-198.712 671.247,-190.112"/>
<polygon fill="black" stroke="black" points="674.748,-190.104 671.247,-180.104 667.748,-190.104 674.748,-190.104"/>
</g>
<!-- System V.2 -->
<g id="node40" class="node"><title>System V.2</title>
<ellipse fill="#b2dfee" stroke="#b2dfee" cx="671.247" cy="-90" rx="53.0913" ry="18"/>
<text text-anchor="middle" x="671.247" y="-86.3" font-family="Times New Roman,serif" font-size="14.00">System V.2</text>
</g>
<!-- System V.0&#45;&gt;System V.2 -->
<g id="edge48" class="edge"><title>System V.0&#45;&gt;System V.2</title>
<path fill="none" stroke="black" d="M671.247,-143.697C671.247,-135.983 671.247,-126.712 671.247,-118.112"/>
<polygon fill="black" stroke="black" points="674.748,-118.104 671.247,-108.104 667.748,-118.104 674.748,-118.104"/>
</g>
<!-- System V.3 -->
<g id="node41" class="node"><title>System V.3</title>
<ellipse fill="#b2dfee" stroke="#b2dfee" cx="671.247" cy="-18" rx="53.0913" ry="18"/>
<text text-anchor="middle" x="671.247" y="-14.3" font-family="Times New Roman,serif" font-size="14.00">System V.3</text>
</g>
<!-- System V.2&#45;&gt;System V.3 -->
<g id="edge49" class="edge"><title>System V.2&#45;&gt;System V.3</title>
<path fill="none" stroke="black" d="M671.247,-71.6966C671.247,-63.9827 671.247,-54.7125 671.247,-46.1124"/>
<polygon fill="black" stroke="black" points="674.748,-46.1043 671.247,-36.1043 667.748,-46.1044 674.748,-46.1043"/>
</g>
</g>
</svg>
