<?xml version="1.0" encoding="UTF-8" standalone="no"?>
<!DOCTYPE svg PUBLIC "-//W3C//DTD SVG 1.1//EN"
 "http://www.w3.org/Graphics/SVG/1.1/DTD/svg11.dtd">
<!-- Generated by graphviz version 2.44.1 (20200629.0846)
 -->
<!-- Pages: 1 -->
<svg width="476pt" height="260pt"
 viewBox="0.00 0.00 476.00 260.00" xmlns="http://www.w3.org/2000/svg" xmlns:xlink="http://www.w3.org/1999/xlink">
<g id="graph0" class="graph" transform="scale(1 1) rotate(0) translate(4 256)">
<polygon fill="white" stroke="transparent" points="-4,4 -4,-256 472,-256 472,4 -4,4"/>
<!-- 0 -->
<g id="node1" class="node">
<title>0</title>
<ellipse fill="none" stroke="black" cx="238" cy="-234" rx="27" ry="18"/>
<text text-anchor="middle" x="238" y="-230.3" font-family="Times New Roman,serif" font-size="14.00">0</text>
</g>
<!-- 1 -->
<g id="node2" class="node">
<title>1</title>
<ellipse fill="none" stroke="black" cx="27" cy="-162" rx="27" ry="18"/>
<text text-anchor="middle" x="27" y="-158.3" font-family="Times New Roman,serif" font-size="14.00">1</text>
</g>
<!-- 0&#45;&gt;1 -->
<g id="edge1" class="edge">
<title>0&#45;&gt;1</title>
<path fill="none" stroke="black" d="M213.56,-226.14C180.32,-216.64 119.16,-198.54 68,-180 64.88,-178.87 61.66,-177.64 58.45,-176.38"/>
<polygon fill="black" stroke="black" points="59.57,-173.06 48.99,-172.55 56.94,-179.54 59.57,-173.06"/>
</g>
<!-- 2 -->
<g id="node3" class="node">
<title>2</title>
<ellipse fill="none" stroke="black" cx="73" cy="-90" rx="27" ry="18"/>
<text text-anchor="middle" x="73" y="-86.3" font-family="Times New Roman,serif" font-size="14.00">2</text>
</g>
<!-- 0&#45;&gt;2 -->
<g id="edge2" class="edge">
<title>0&#45;&gt;2</title>
<path fill="none" stroke="black" d="M212.13,-227.76C184.67,-220.99 141.52,-206.77 114,-180 96.53,-163.01 85.77,-137.16 79.69,-117.7"/>
<polygon fill="black" stroke="black" points="82.99,-116.53 76.85,-107.91 76.27,-118.48 82.99,-116.53"/>
</g>
<!-- 3 -->
<g id="node4" class="node">
<title>3</title>
<ellipse fill="none" stroke="black" cx="128" cy="-18" rx="27" ry="18"/>
<text text-anchor="middle" x="128" y="-14.3" font-family="Times New Roman,serif" font-size="14.00">3</text>
</g>
<!-- 0&#45;&gt;3 -->
<g id="edge3" class="edge">
<title>0&#45;&gt;3</title>
<path fill="none" stroke="black" d="M213.94,-225.83C192.62,-218.13 162.54,-203.7 147,-180 120.4,-139.44 121,-80.52 124.24,-46.34"/>
<polygon fill="black" stroke="black" points="127.74,-46.49 125.35,-36.17 120.79,-45.73 127.74,-46.49"/>
</g>
<!-- 4 -->
<g id="node5" class="node">
<title>4</title>
<ellipse fill="none" stroke="black" cx="183" cy="-162" rx="27" ry="18"/>
<text text-anchor="middle" x="183" y="-158.3" font-family="Times New Roman,serif" font-size="14.00">4</text>
</g>
<!-- 0&#45;&gt;4 -->
<g id="edge4" class="edge">
<title>0&#45;&gt;4</title>
<path fill="none" stroke="black" d="M226.07,-217.81C218.79,-208.55 209.34,-196.52 201.15,-186.09"/>
<polygon fill="black" stroke="black" points="203.84,-183.86 194.91,-178.16 198.34,-188.18 203.84,-183.86"/>
</g>
<!-- 5 -->
<g id="node6" class="node">
<title>5</title>
<ellipse fill="none" stroke="black" cx="221" cy="-90" rx="27" ry="18"/>
<text text-anchor="middle" x="221" y="-86.3" font-family="Times New Roman,serif" font-size="14.00">5</text>
</g>
<!-- 0&#45;&gt;5 -->
<g id="edge5" class="edge">
<title>0&#45;&gt;5</title>
<path fill="none" stroke="black" d="M235.95,-215.87C233.05,-191.67 227.73,-147.21 224.28,-118.39"/>
<polygon fill="black" stroke="black" points="227.72,-117.7 223.06,-108.19 220.77,-118.53 227.72,-117.7"/>
</g>
<!-- 6 -->
<g id="node7" class="node">
<title>6</title>
<ellipse fill="none" stroke="black" cx="276" cy="-18" rx="27" ry="18"/>
<text text-anchor="middle" x="276" y="-14.3" font-family="Times New Roman,serif" font-size="14.00">6</text>
</g>
<!-- 0&#45;&gt;6 -->
<g id="edge6" class="edge">
<title>0&#45;&gt;6</title>
<path fill="none" stroke="black" d="M241.05,-215.85C247.63,-178.74 263.26,-90.75 271.2,-46.05"/>
<polygon fill="black" stroke="black" points="274.69,-46.39 272.99,-35.94 267.8,-45.17 274.69,-46.39"/>
</g>
<!-- 7 -->
<g id="node8" class="node">
<title>7</title>
<ellipse fill="none" stroke="black" cx="331" cy="-162" rx="27" ry="18"/>
<text text-anchor="middle" x="331" y="-158.3" font-family="Times New Roman,serif" font-size="14.00">7</text>
</g>
<!-- 0&#45;&gt;7 -->
<g id="edge7" class="edge">
<title>0&#45;&gt;7</title>
<path fill="none" stroke="black" d="M255.49,-219.83C269.52,-209.27 289.42,-194.3 305.26,-182.37"/>
<polygon fill="black" stroke="black" points="307.7,-184.92 313.59,-176.11 303.49,-179.32 307.7,-184.92"/>
</g>
<!-- 8 -->
<g id="node9" class="node">
<title>8</title>
<ellipse fill="none" stroke="black" cx="386" cy="-90" rx="27" ry="18"/>
<text text-anchor="middle" x="386" y="-86.3" font-family="Times New Roman,serif" font-size="14.00">8</text>
</g>
<!-- 0&#45;&gt;8 -->
<g id="edge8" class="edge">
<title>0&#45;&gt;8</title>
<path fill="none" stroke="black" d="M264.27,-229.54C293.8,-224.21 341.01,-211.13 367,-180 381.29,-162.89 385.6,-137.6 386.59,-118.35"/>
<polygon fill="black" stroke="black" points="390.09,-118.18 386.84,-108.1 383.09,-118.01 390.09,-118.18"/>
</g>
<!-- 9 -->
<g id="node10" class="node">
<title>9</title>
<ellipse fill="none" stroke="black" cx="441" cy="-18" rx="27" ry="18"/>
<text text-anchor="middle" x="441" y="-14.3" font-family="Times New Roman,serif" font-size="14.00">9</text>
</g>
<!-- 0&#45;&gt;9 -->
<g id="edge9" class="edge">
<title>0&#45;&gt;9</title>
<path fill="none" stroke="black" d="M264.41,-230.07C297.34,-225.13 353.59,-212.29 389,-180 427.16,-145.21 437.43,-82.27 440.12,-46.25"/>
<polygon fill="black" stroke="black" points="443.63,-46.19 440.74,-36 436.64,-45.77 443.63,-46.19"/>
</g>
</g>
</svg>
