<?xml version="1.0" encoding="UTF-8" standalone="no"?>
<!DOCTYPE svg PUBLIC "-//W3C//DTD SVG 1.1//EN"
 "http://www.w3.org/Graphics/SVG/1.1/DTD/svg11.dtd">
<!-- Generated by graphviz version 2.44.1 (20200629.0846)
 -->
<!-- Pages: 1 -->
<svg width="502pt" height="188pt"
 viewBox="0.00 0.00 502.00 188.00" xmlns="http://www.w3.org/2000/svg" xmlns:xlink="http://www.w3.org/1999/xlink">
<g id="graph0" class="graph" transform="scale(1 1) rotate(0) translate(4 184)">
<polygon fill="white" stroke="transparent" points="-4,4 -4,-184 498,-184 498,4 -4,4"/>
<!-- 0 -->
<g id="node1" class="node">
<title>0</title>
<ellipse fill="none" stroke="black" cx="247" cy="-162" rx="27" ry="18"/>
<text text-anchor="middle" x="247" y="-158.3" font-family="Times New Roman,serif" font-size="14.00">0</text>
</g>
<!-- 1 -->
<g id="node2" class="node">
<title>1</title>
<ellipse fill="none" stroke="black" cx="27" cy="-90" rx="27" ry="18"/>
<text text-anchor="middle" x="27" y="-86.3" font-family="Times New Roman,serif" font-size="14.00">1</text>
</g>
<!-- 0&#45;&gt;1 -->
<g id="edge1" class="edge">
<title>0&#45;&gt;1</title>
<path fill="none" stroke="black" d="M222.13,-154.52C187.31,-145.26 122.23,-127.21 68,-108 64.88,-106.89 61.65,-105.68 58.43,-104.42"/>
<polygon fill="black" stroke="black" points="59.55,-101.1 48.96,-100.61 56.93,-107.59 59.55,-101.1"/>
</g>
<!-- 2 -->
<g id="node3" class="node">
<title>2</title>
<ellipse fill="none" stroke="black" cx="82" cy="-18" rx="27" ry="18"/>
<text text-anchor="middle" x="82" y="-14.3" font-family="Times New Roman,serif" font-size="14.00">2</text>
</g>
<!-- 0&#45;&gt;2 -->
<g id="edge2" class="edge">
<title>0&#45;&gt;2</title>
<path fill="none" stroke="black" d="M220.28,-158.96C187.22,-154.95 131.55,-143.08 101,-108 86.29,-91.11 82.05,-65.64 81.19,-46.27"/>
<polygon fill="black" stroke="black" points="84.69,-46.16 81.01,-36.22 77.69,-46.28 84.69,-46.16"/>
</g>
<!-- 3 -->
<g id="node4" class="node">
<title>3</title>
<ellipse fill="none" stroke="black" cx="137" cy="-90" rx="27" ry="18"/>
<text text-anchor="middle" x="137" y="-86.3" font-family="Times New Roman,serif" font-size="14.00">3</text>
</g>
<!-- 0&#45;&gt;3 -->
<g id="edge3" class="edge">
<title>0&#45;&gt;3</title>
<path fill="none" stroke="black" d="M227.84,-148.81C210.33,-137.67 184.24,-121.06 164.51,-108.5"/>
<polygon fill="black" stroke="black" points="166.26,-105.47 155.94,-103.05 162.5,-111.37 166.26,-105.47"/>
</g>
<!-- 4 -->
<g id="node5" class="node">
<title>4</title>
<ellipse fill="none" stroke="black" cx="192" cy="-18" rx="27" ry="18"/>
<text text-anchor="middle" x="192" y="-14.3" font-family="Times New Roman,serif" font-size="14.00">4</text>
</g>
<!-- 0&#45;&gt;4 -->
<g id="edge4" class="edge">
<title>0&#45;&gt;4</title>
<path fill="none" stroke="black" d="M234.25,-145.7C226.44,-135.59 216.85,-121.71 211,-108 202.54,-88.17 197.7,-64.2 195.02,-46.13"/>
<polygon fill="black" stroke="black" points="198.46,-45.43 193.66,-35.99 191.52,-46.37 198.46,-45.43"/>
</g>
<!-- 5 -->
<g id="node6" class="node">
<title>5</title>
<ellipse fill="none" stroke="black" cx="247" cy="-90" rx="27" ry="18"/>
<text text-anchor="middle" x="247" y="-86.3" font-family="Times New Roman,serif" font-size="14.00">5</text>
</g>
<!-- 0&#45;&gt;5 -->
<g id="edge5" class="edge">
<title>0&#45;&gt;5</title>
<path fill="none" stroke="black" d="M247,-143.7C247,-135.98 247,-126.71 247,-118.11"/>
<polygon fill="black" stroke="black" points="250.5,-118.1 247,-108.1 243.5,-118.1 250.5,-118.1"/>
</g>
<!-- 6 -->
<g id="node7" class="node">
<title>6</title>
<ellipse fill="none" stroke="black" cx="302" cy="-18" rx="27" ry="18"/>
<text text-anchor="middle" x="302" y="-14.3" font-family="Times New Roman,serif" font-size="14.00">6</text>
</g>
<!-- 0&#45;&gt;6 -->
<g id="edge6" class="edge">
<title>0&#45;&gt;6</title>
<path fill="none" stroke="black" d="M259.75,-145.7C267.56,-135.59 277.15,-121.71 283,-108 291.46,-88.17 296.3,-64.2 298.98,-46.13"/>
<polygon fill="black" stroke="black" points="302.48,-46.37 300.34,-35.99 295.54,-45.43 302.48,-46.37"/>
</g>
<!-- 7 -->
<g id="node8" class="node">
<title>7</title>
<ellipse fill="none" stroke="black" cx="357" cy="-90" rx="27" ry="18"/>
<text text-anchor="middle" x="357" y="-86.3" font-family="Times New Roman,serif" font-size="14.00">7</text>
</g>
<!-- 0&#45;&gt;7 -->
<g id="edge7" class="edge">
<title>0&#45;&gt;7</title>
<path fill="none" stroke="black" d="M266.16,-148.81C283.67,-137.67 309.76,-121.06 329.49,-108.5"/>
<polygon fill="black" stroke="black" points="331.5,-111.37 338.06,-103.05 327.74,-105.47 331.5,-111.37"/>
</g>
<!-- 8 -->
<g id="node9" class="node">
<title>8</title>
<ellipse fill="none" stroke="black" cx="412" cy="-18" rx="27" ry="18"/>
<text text-anchor="middle" x="412" y="-14.3" font-family="Times New Roman,serif" font-size="14.00">8</text>
</g>
<!-- 0&#45;&gt;8 -->
<g id="edge8" class="edge">
<title>0&#45;&gt;8</title>
<path fill="none" stroke="black" d="M273.72,-158.96C306.78,-154.95 362.45,-143.08 393,-108 407.71,-91.11 411.95,-65.64 412.81,-46.27"/>
<polygon fill="black" stroke="black" points="416.31,-46.28 412.99,-36.22 409.31,-46.16 416.31,-46.28"/>
</g>
<!-- 9 -->
<g id="node10" class="node">
<title>9</title>
<ellipse fill="none" stroke="black" cx="467" cy="-90" rx="27" ry="18"/>
<text text-anchor="middle" x="467" y="-86.3" font-family="Times New Roman,serif" font-size="14.00">9</text>
</g>
<!-- 0&#45;&gt;9 -->
<g id="edge9" class="edge">
<title>0&#45;&gt;9</title>
<path fill="none" stroke="black" d="M271.87,-154.52C306.69,-145.26 371.77,-127.21 426,-108 429.12,-106.89 432.35,-105.68 435.57,-104.42"/>
<polygon fill="black" stroke="black" points="437.07,-107.59 445.04,-100.61 434.45,-101.1 437.07,-107.59"/>
</g>
</g>
</svg>
